<svg xmlns="http://www.w3.org/2000/svg" viewBox="0 0 1200 452">

  <path id="earth" fill="white" class="cls-1" d="M703.727,58.168c53.4,34.462,68.535,73.161,78.165,92.874-4.858-5.081-11.736-11.272-21.563-10.79-4.543.585-7.754,3.824-10.781,5.395-5.689,1.253-8.223-5.258-16.943-5.01-8.986,3.255-8.816,14.058-16.172,15.8-3.428-.961-3.588-5.7-6.545-16.957-1.516-5.767-5.87-8.462-10.012-10.019-3.271-1.231-7.909-.411-8.086,2.312a12.5,12.5,0,0,0,3.851,8.863c2.789,2.6,3.954,4.494,6.161,9.249,1.878,3.464-.1,4.883-2.311,5.781-2.586,1.048-7.7.361-12.321-.386a57.3,57.3,0,0,0-7.316-.77c-2.743,0-6.326.617-6.161,3.083,0.23,3.436,3.072,6.543,4.236,11.175,1.138,2.676,2.377,6.5-12.707,5.4-31.086-1.895-36.008-1.235-50.057,11.561-6.653,6.06-11.029,12.143-15.016,22.351-2.768,7.084-1.242,15.882-1.926,25.82-0.385,4.5-2.159,8.5-1.155,13.488,5.442,13.013,15.547,13.661,27.581,16.091,6.348,1.282,10.1,6.009,6.3,17.051-1.256,3.653-2.4,3.845-5.049,10.064-2.79,6.557-4.965,12.651-8.813,16.141-3.794,3.44-6.984,3.173-8.856,8.478-5.078,14.385,2.24,23.759-5.006,37.381-7.156,13.453-16.579,15.446-20.793,25.435-4.448,10.543-.866,27.946,6.931,30.829,11.248,4.159,23.563-1.579,34.27-5.4,7.748-2.762,16.019-4.626,21.562-9.634,4.79-4.327,4.616-6.8,8.856-10.791,2.9-2.726,7.457-4.813,12.561-5.83,3.928-.782,6.756-1.668,8.617-3.8,8.4-9.639,11.818-25.211,23.1-31.986,12.319-7.4,30.9.6,37.35-15.8,3.276-8.327-2.593-24.8-1.925-36.225,0.9-15.448,1.039-33.986,6.545-40.078,0.9-.129,3.3-2.378,5.391.771,7.362,14.193-1.949,37.649,2.31,51.254,3.415,10.905,8.693,13.9,17.328,16.571,2.823,0.257,4.877.9,7.7,1.156-22.283,47.08-83.837,102.012-168.652,104.821-78.73,2.606-138.658-39.9-170.962-88.25-0.741-1.11,2.693-4.444,4.236-8.864,1.445-4.139,5.442-3.734,7.316-3.853,3.041-.194,7.461-3.908,10.011-6.937,2.512-2.984,3.279-8.664,6.931-10.4,4.677-2.23,9.014.3,13.477-4.625s6.161-9.121,9.626-14.258c5.839-3.228,15.74.56,21.563-4.239,6.657-5.488,25.613-27.781,23.1-40.464-0.749-3.781-7.012-9.908-10.782-12.332-4.527-2.912-12.86-11.095-16.557-21.966-2.727-8.019,3.048-11.96.77-19.269-2.056-6.6-7.683-7.533-11.551-11.175-6.468-6.09-10.937-9.7-17.713-15.8-2.728-2.454-6.158-6.468-12.706-6.551-11.945-.15-19.638,18.612-23.873,24.664-2.6,3.71-4.473,8.469-5.776,11.561-1.667,3.957,1.045,9.888,0,14.644-1.616,7.358-1.142,16.494.77,20.039,3.451,6.4,6.284,10.283,8.086,18.113,1.92,8.338-5.773,14.686-7.7,21.966-1.907,7.2-1.665,18.252-6.931,25.049-2.935,3.789-6.451,7.114-11.936,7.707C392.436,244.062,402.114,192,408.009,171.852c9.592-32.787,27.153-61.265,43.511-79,2.976,1.782,6.873,12.915,6.93,19.269,0.045,4.895-5.8,16.606-6.466,17.408-3.677,4.416-8.3,19.279-.079,15.734,1.44-.927,4.389-2.239,5.775-3.854,2.716-3.163,3.1-8.339,6.161-10.4,2.828-1.91,6.591-1.053,9.626-5.395,3.871-5.538.785-10.45,7.316-11.176,5.559,0.3,9.768,6.693,12.322,11.947,4.1,8.442,7.459,15.859,13.477,18.883,2,0.589,4.462,1.285,4.235-1.927-2.2-9.816-7.633-21.746-13.862-28.9-1.726-1.983-4.948-4.592-10.781-7.707-2.969-1.586-10.736-3.982-12.707-5.781-2.3-4.8,2.249-10.974,16.558-15.8,6.1-2.057,13.624-.955,19.637,5.01,4.813,4.774,1.751,10.592,1.925,12.332,0.357,3.567,1.094,5.425,3.081,5.78,13.535-.526,35.177-10.3,53.907-8.092,2.769,0.326,10.9,3.249,13.476,4.239s18.9,3.605,26.184,1.541c9.044-2.563,12.949-28.22,20.022-36.61,0.873,0.2,1.889-3.423,3.364-.952,6.2,10.38-.277,18.681.872,24.46,0.949,4.775,3.92,2.976,7.982,4.913,0.639,0.305,9,.433,12.04,2.024,6.019,3.146,12.965,7.216,26.184,2.312,4.064-1.508,3.458-5.619.77-7.322-6.85-6.517-16.256-15.5-20.793-18.112-2.364-1.361-5.891-6.454-16.172-12.717-7.826-4.768-16.959-5.791-24.258-6.937-13.092-2.084-20.011.107-32.729-5.01-7.156-2.879-8.419-9.834-13.092-14.259-4.213-3.99-9.734-4.329-13.092-5.781C591.477,24.65,651.267,24.314,703.727,58.168Zm92.8,176.885c-18.282,1.627-57.964-15.191-53.907-29.288,1.917-2.583,7.365-6.548,12.321-4.239,14.656,6.827,22.363,27.925,41.586,20.81v12.717Zm-7.316,45.859c-5.852-.347-21.573-5.445-27.724-10.019C763.079,261.749,793.852,266.313,789.208,280.912Z"/>
  <path id="arrow1" class="cls-1" fill="white" d="M323.982,63.483L34.865,228.643,306.82,391.159l190.105,25.1L231.57,228.643,522.008,33.094Z"/>
  <path id="arrow1_copy" fill="white" data-name="arrow1 copy" class="cls-1" d="M885.056,385.874L1174.17,220.715,902.218,58.2l-190.1-25.1L977.468,220.715,687.03,416.263Z"/>
</svg>
