{
  "accessors": [
    {
      "bufferView": 2,
      "componentType": 5126,
      "count": 63124,
      "max": [
        0.447147011756897,
        0.05077345669269562,
        0.04878859221935272
      ],
      "min": [
        -0.42336952686309814,
        -0.05025333911180496,
        -0.05007528141140938
      ],
      "type": "VEC3"
    },
    {
      "bufferView": 2,
      "byteOffset": 757488,
      "componentType": 5126,
      "count": 63124,
      "max": [
        0.9999996423721313,
        0.9999977946281433,
        1.0
      ],
      "min": [
        -0.9999996423721313,
        -0.9999977350234985,
        -1.0
      ],
      "type": "VEC3"
    },
    {
      "bufferView": 1,
      "componentType": 5126,
      "count": 63124,
      "max": [
        1.0,
        1.0
      ],
      "min": [
        0.0,
        0.0
      ],
      "type": "VEC2"
    },
    {
      "bufferView": 0,
      "componentType": 5125,
      "count": 211392,
      "type": "SCALAR"
    },
    {
      "bufferView": 2,
      "byteOffset": 1514976,
      "componentType": 5126,
      "count": 65532,
      "max": [
        0.448545902967453,
        0.05118592083454132,
        0.0507119782269001
      ],
      "min": [
        -0.4224453270435333,
        -0.050588540732860565,
        -0.04960496351122856
      ],
      "type": "VEC3"
    },
    {
      "bufferView": 2,
      "byteOffset": 2301360,
      "componentType": 5126,
      "count": 65532,
      "max": [
        1.0,
        1.0,
        0.9999997615814209
      ],
      "min": [
        -1.0,
        -1.0,
        -0.9999998211860657
      ],
      "type": "VEC3"
    },
    {
      "bufferView": 1,
      "byteOffset": 504992,
      "componentType": 5126,
      "count": 65532,
      "max": [
        1.0,
        1.0
      ],
      "min": [
        0.0,
        0.0
      ],
      "type": "VEC2"
    },
    {
      "bufferView": 0,
      "byteOffset": 845568,
      "componentType": 5125,
      "count": 219456,
      "type": "SCALAR"
    },
    {
      "bufferView": 2,
      "byteOffset": 3087744,
      "componentType": 5126,
      "count": 65532,
      "max": [
        0.44876495003700256,
        0.049540311098098755,
        0.051038261502981186
      ],
      "min": [
        -0.42450886964797974,
        -0.05090750381350517,
        -0.05020984634757042
      ],
      "type": "VEC3"
    },
    {
      "bufferView": 2,
      "byteOffset": 3874128,
      "componentType": 5126,
      "count": 65532,
      "max": [
        1.0,
        0.9999999403953552,
        0.9999999403953552
      ],
      "min": [
        -1.0,
        -0.9999998807907104,
        -0.9999999403953552
      ],
      "type": "VEC3"
    },
    {
      "bufferView": 1,
      "byteOffset": 1029248,
      "componentType": 5126,
      "count": 65532,
      "max": [
        1.0,
        1.0
      ],
      "min": [
        0.0,
        0.0
      ],
      "type": "VEC2"
    },
    {
      "bufferView": 0,
      "byteOffset": 1723392,
      "componentType": 5125,
      "count": 219456,
      "type": "SCALAR"
    },
    {
      "bufferView": 2,
      "byteOffset": 4660512,
      "componentType": 5126,
      "count": 16383,
      "max": [
        0.44178715348243713,
        0.048757635056972504,
        0.05190341919660568
      ],
      "min": [
        -0.42072102427482605,
        -0.05131833255290985,
        -0.04949265345931053
      ],
      "type": "VEC3"
    },
    {
      "bufferView": 2,
      "byteOffset": 4857108,
      "componentType": 5126,
      "count": 16383,
      "max": [
        0.9999995231628418,
        0.9999826550483704,
        0.9999989867210388
      ],
      "min": [
        -0.9999995231628418,
        -0.9999826550483704,
        -0.9999989867210388
      ],
      "type": "VEC3"
    },
    {
      "bufferView": 1,
      "byteOffset": 1553504,
      "componentType": 5126,
      "count": 16383,
      "max": [
        1.0,
        1.0
      ],
      "min": [
        0.0,
        0.0
      ],
      "type": "VEC2"
    },
    {
      "bufferView": 0,
      "byteOffset": 2601216,
      "componentType": 5125,
      "count": 54864,
      "type": "SCALAR"
    },
    {
      "bufferView": 3,
      "componentType": 5126,
      "count": 318,
      "max": [
        6.666666507720947
      ],
      "min": [
        0.0416666679084301
      ],
      "type": "SCALAR"
    },
    {
      "bufferView": 4,
      "componentType": 5126,
      "count": 318,
      "max": [
        0.9999995231628418,
        0.0,
        0.0,
        0.999987781047821
      ],
      "min": [
        -0.8635448813438416,
        0.0,
        0.0,
        -0.49743127822875977
      ],
      "type": "VEC4"
    }
  ],
  "animations": [
    {
      "channels": [
        {
          "sampler": 0,
          "target": {
            "node": 4,
            "path": "rotation"
          }
        }
      ],
      "name": "Scene",
      "samplers": [
        {
          "input": 16,
          "interpolation": "LINEAR",
          "output": 17
        }
      ]
    }
  ],
  "asset": {
    "extras": {
      "author": "oxterium (https://sketchfab.com/oxterium)",
      "license": "CC-BY-4.0 (http://creativecommons.org/licenses/by/4.0/)",
      "source": "https://sketchfab.com/3d-models/dna-hologram-c4a30768ac7044f182b4c4a36a7608ca",
      "title": "DNA hologram"
    },
    "generator": "Sketchfab-15.33.0",
    "version": "2.0"
  },
  "bufferViews": [
    {
      "buffer": 0,
      "byteLength": 2820672,
      "name": "floatBufferViews",
      "target": 34963
    },
    {
      "buffer": 0,
      "byteLength": 1684568,
      "byteOffset": 2820672,
      "byteStride": 8,
      "name": "floatBufferViews",
      "target": 34962
    },
    {
      "buffer": 0,
      "byteLength": 5053704,
      "byteOffset": 4505240,
      "byteStride": 12,
      "name": "floatBufferViews",
      "target": 34962
    },
    {
      "buffer": 0,
      "byteLength": 1272,
      "byteOffset": 9558944,
      "name": "floatBufferViews"
    },
    {
      "buffer": 0,
      "byteLength": 5088,
      "byteOffset": 9560216,
      "byteStride": 16,
      "name": "floatBufferViews"
    }
  ],
  "buffers": [
    {
      "byteLength": 9565304,
      "uri": "scene.bin"
    }
  ],
  "extensionsUsed": [
    "KHR_materials_emissive_strength"
  ],
  "materials": [
    {
      "doubleSided": true,
      "emissiveFactor": [
        0.663649136569167,
        0.05133609999999995,
        1.0
      ],
      "extensions": {
        "KHR_materials_emissive_strength": {
          "emissiveStrength": 1.5
        }
      },
      "name": "particle_2",
      "pbrMetallicRoughness": {
        "baseColorFactor": [
          0.0,
          0.0,
          0.0,
          1.0
        ],
        "metallicFactor": 0.0
      }
    },
    {
      "doubleSided": true,
      "emissiveFactor": [
        0.0693571372228665,
        0.7263821776162405,
        1.0
      ],
      "name": "Particle_1",
      "pbrMetallicRoughness": {
        "baseColorFactor": [
          0.0,
          0.0,
          0.0,
          1.0
        ],
        "metallicFactor": 0.0
      }
    }
  ],
  "meshes": [
    {
      "name": "Sphere.3514_particle_2_0",
      "primitives": [
        {
          "attributes": {
            "NORMAL": 1,
            "POSITION": 0,
            "TEXCOORD_0": 2
          },
          "indices": 3,
          "material": 0,
          "mode": 4
        }
      ]
    },
    {
      "name": "Sphere.3514_Particle_1_0",
      "primitives": [
        {
          "attributes": {
            "NORMAL": 5,
            "POSITION": 4,
            "TEXCOORD_0": 6
          },
          "indices": 7,
          "material": 1,
          "mode": 4
        }
      ]
    },
    {
      "name": "Sphere.3514_Particle_1_0",
      "primitives": [
        {
          "attributes": {
            "NORMAL": 9,
            "POSITION": 8,
            "TEXCOORD_0": 10
          },
          "indices": 11,
          "material": 1,
          "mode": 4
        }
      ]
    },
    {
      "name": "Sphere.3514_Particle_1_0",
      "primitives": [
        {
          "attributes": {
            "NORMAL": 13,
            "POSITION": 12,
            "TEXCOORD_0": 14
          },
          "indices": 15,
          "material": 1,
          "mode": 4
        }
      ]
    }
  ],
  "nodes": [
    {
      "children": [
        1
      ],
      "matrix": [
        1.0,
        0.0,
        0.0,
        0.0,
        0.0,
        2.220446049250313e-16,
        -1.0,
        0.0,
        0.0,
        1.0,
        2.220446049250313e-16,
        0.0,
        0.0,
        0.0,
        0.0,
        1.0
      ],
      "name": "Sketchfab_model"
    },
    {
      "children": [
        2
      ],
      "matrix": [
        0.009999999776482582,
        0.0,
        0.0,
        0.0,
        0.0,
        0.0,
        0.009999999776482582,
        0.0,
        0.0,
        -0.009999999776482582,
        0.0,
        0.0,
        0.0,
        0.0,
        0.0,
        1.0
      ],
      "name": "a467a8f058f4444993a7605bba02b5ba.fbx"
    },
    {
      "children": [
        3
      ],
      "name": "Object_2"
    },
    {
      "children": [
        4
      ],
      "name": "RootNode"
    },
    {
      "children": [
        5,
        6,
        7,
        8
      ],
      "name": "Sphere.3514",
      "rotation": [
        0.700086772441864,
        0.0,
        0.0,
        0.7140578031539917
      ],
      "scale": [
        100.0,
        99.99999237060547,
        99.99999237060547
      ]
    },
    {
      "mesh": 0,
      "name": "Sphere.3514_particle_2_0"
    },
    {
      "mesh": 1,
      "name": "Sphere.3514_Particle_1_0"
    },
    {
      "mesh": 2,
      "name": "Sphere.3514_Particle_1_0"
    },
    {
      "mesh": 3,
      "name": "Sphere.3514_Particle_1_0"
    }
  ],
  "scene": 0,
  "scenes": [
    {
      "name": "Sketchfab_Scene",
      "nodes": [
        0
      ]
    }
  ]
}
