<?xml version="1.0" encoding="utf-8"?>
<!-- Generator: Adobe Illustrator 27.8.1, SVG Export Plug-In . SVG Version: 6.00 Build 0)  -->
<svg version="1.1" id="Layer_1" xmlns="http://www.w3.org/2000/svg" xmlns:xlink="http://www.w3.org/1999/xlink" x="0px" y="0px"
	 viewBox="0 0 512 640" style="enable-background:new 0 0 512 640;" xml:space="preserve">
<path d="M104.1,325.4h80.6c2.4,0,4.3,2,4.3,4.3V358c0,17.9-14.6,32.5-32.5,32.5h-24.2c-17.9,0-32.5-14.6-32.5-32.5v-28.2
	C99.8,327.4,101.7,325.4,104.1,325.4L104.1,325.4z M313.4,325.4h80.6c2.4,0,4.3,2,4.3,4.3V358c0,17.9-14.6,32.5-32.5,32.5h-24.3
	c-17.9,0-32.5-14.6-32.5-32.5v-28.2C309,327.4,311,325.4,313.4,325.4L313.4,325.4z M209.2,254.9c9.6,16.5,23.5,30.4,39.8,40.2
	c16.4-9.8,30.2-23.7,39.8-40.2l3.8-7.1c3.5-7.1,6.3-14.7,8.2-22.6c0-0.1,0.1-0.2,0.1-0.4c2.5-9.3,3.6-22.1,3-32
	c-35.8-10.2-74.3-10.2-110.1,0C193,214.5,198.2,236.2,209.2,254.9L209.2,254.9z M308.5,230.4c-1.4,5.2-3.2,10.4-5.3,15.3h86.4v-15.3
	H308.5z M194.8,245.6c-2.1-4.9-3.9-10-5.3-15.3h-81.1v15.3H194.8z M220.6,226.5c-1.3-2-0.7-4.7,1.4-5.9c2-1.3,4.7-0.7,5.9,1.4
	l11.4,18l34.6-32.1c1.7-1.7,4.5-1.5,6.2,0.2c1.6,1.7,1.5,4.5-0.2,6.2l-38.4,35.6l0,0c-2,1.9-5.1,1.4-6.7-0.9L220.6,226.5z
	 M274.7,399.6h-51.3c-9.1,0-16.5,7.5-16.5,16.5v16.5h84.3v-16.5C291.2,407,283.7,399.6,274.7,399.6L274.7,399.6z M239.2,390.9h19.6
	v-91.7c-2.5,1.7-5.1,3.3-7.7,4.7c-1.4,0.8-3,0.7-4.3-0.1c-2.6-1.4-5.1-3-7.6-4.7V390.9z M361.3,256.2l28.3,55.5
	c1.1,2.1,0.2,4.7-1.9,5.9c-2.1,1.1-4.8,0.2-5.9-1.9l-28.2-55.4l-28.2,55.4c-1.1,2.2-3.7,3-5.9,1.9c-2.1-1.1-3-3.7-1.9-5.9l28.3-55.5
	H361.3z M152.1,256.2l28.3,55.5c1.1,2.1,0.2,4.7-1.9,5.9c-2.1,1.1-4.7,0.2-5.9-1.9l-28.2-55.4l-28.2,55.4c-1.1,2.2-3.7,3-5.9,1.9
	c-2.1-1.1-3-3.7-1.9-5.9l28.3-55.5H152.1z"/>
<g>
	<path d="M396.6,460.7c-4.8-18.2-23.7-29.2-41.9-24.3s-29.2,23.7-24.3,41.9c4.8,18.2,23.7,29.2,41.9,24.3
		C390.5,497.8,401.5,479.1,396.6,460.7z M378.2,461.2l-12.5,21.5c-0.7,1.2-1.9,2.1-3.1,2.4c-1.2,0.3-2.7,0.2-3.9-0.6l-10.8-6.3
		c-2.5-1.5-3.3-4.6-1.9-7c1.5-2.5,4.6-3.3,7-1.9l6.3,3.7l9.9-17.1c1.5-2.5,4.6-3.3,7-1.9C378.8,455.5,379.6,458.7,378.2,461.2z"/>
	<path d="M409.4,479.6l-10.5,15.5c-0.4,0.8-0.7,1.5-0.5,2.4c0.2,0.8,0.6,1.6,1.4,2.1c1.2,0.8,2.8,0.7,3.9-0.2l0.5-0.5
		c3-2.8,5.9-5.8,8.5-9.1l2.2-2.9c0.4-0.4,0.8-0.7,1.4-0.9c0.6,0,1.1,0,1.6,0.4c0.4,0.4,0.7,0.8,0.9,1.4c0.2,0.6,0,1.1-0.4,1.6
		l-2.2,2.9c-2.7,3.5-5.7,6.6-9,9.6l-0.7,0.5c-2.5,2.3-6.2,2.5-9.1,0.6c-0.2-0.1-0.4-0.2-0.6-0.5l-9.8,7.2c-1.1,0.8-1.7,2.2-1.5,3.6
		c0.1,1.1,0.8,1.9,1.6,2.5c1,0.6,2,0.8,3,0.3l28.2-8c2.6-0.7,4.9-2.4,6.2-4.7l8.1-13.5l-4.8-17.9l-13.6,3.9
		C412.2,476.6,410.4,477.9,409.4,479.6z"/>
	<path d="M438.8,469l-7.1,1.9l4.7,17.8l7.1-1.9c0.9-0.2,1.5-1.2,1.2-2.1l-3.8-14.4C440.7,469.3,439.7,468.8,438.8,469z"/>
	<path d="M363,516.2l-12.1-1.5c-0.1,0.2-0.2,0.5-0.3,0.7c-1.5,3-5,4.6-8.2,4l-0.7-0.1c-4.3-1-8.4-2.2-12.6-3.8l-3.3-1.4
		c-0.5-0.2-1-0.6-1.1-1.2c-0.3-0.6-0.3-1.1,0.1-1.6c0.2-0.5,0.6-1,1.2-1.1c0.6-0.3,1.1-0.3,1.6,0.1l3.3,1.4
		c3.8,1.6,7.9,2.8,11.9,3.7l0.7,0.1c1.4,0.3,2.8-0.4,3.4-1.7c0.4-0.8,0.4-1.6,0.2-2.5c-0.2-0.8-0.9-1.4-1.6-1.8l-16.8-8.2
		c-1.9-1-3.9-1.2-5.9-0.7l-13.8,3.3l4.8,18.1l13.8,7.7c2.3,1.3,5.2,1.7,7.8,1l28.4-7.1c1.1-0.3,1.9-1,2.5-1.8c0.6-1,0.6-2,0.2-3
		C365.7,517.2,364.5,516.3,363,516.2z"/>
	<path d="M296.5,508.6l3.8,14.4c0.2,0.9,1.2,1.5,2.1,1.2l7.1-1.9l-4.7-17.8l-7.1,1.9C296.8,506.7,296.3,507.7,296.5,508.6z"/>
</g>
<g transform="translate(0,-952.36218)">
	<path d="M79.8,1366.5l-7.3,11.3l-13.2,2.5l-2.5,13.2l-11.2,7.3l2.8,13.2l-7.6,11.1l7.5,11.1l-2.7,13.1l11.2,7.4l2.5,13.1l13.2,2.5
		l7.4,11.3l13.1-2.8l11.1,7.6l11.1-7.6l13.1,2.7l7.3-11.2l13.2-2.5l2.5-13.2l11.2-7.3l-2.8-13.2l7.6-11.1l-7.5-11.1l2.7-13.2
		l-11.2-7.3l-2.5-13.1l-13.2-2.5l-7.4-11.3l-13.1,2.8l-11.1-7.6l-11.1,7.6C93,1369.3,79.8,1366.5,79.8,1366.5z M86.7,1383
		c23.2-9.6,49.8,1.4,59.4,24.6c9.6,23.2-1.4,49.8-24.6,59.4c-23.2,9.6-49.8-1.4-59.4-24.6C52.5,1419.3,63.5,1392.7,86.7,1383z
		 M88.2,1386.7c-21.2,8.8-31.3,33.1-22.5,54.3c8.8,21.2,33.1,31.3,54.3,22.5c21.2-8.8,31.3-33.1,22.5-54.3
		C133.7,1387.9,109.4,1377.9,88.2,1386.7z M116.5,1398.2l11,4.5l-2.3,5.4l-15,36.2l-2.1,5.2l-5.2-1.8L83,1441l-5.6-1.9l3.8-11.3
		l5.6,1.9l14.7,4.9l12.8-31L116.5,1398.2z M69,1475.6l-10.9,60.5l25.1-16.8l17.9,22.5l7.7-52.1l-2.6,1.7c-1.3,0.9-3.2,0.9-4.5,0
		l-9.7-6.6l-11.5,2.3c-1.5,0.3-3.3-0.4-4.1-1.7l-6.5-9.8L69,1475.6L69,1475.6z M164.7,1435.9l-0.6,0.9l2.3,11.5
		c0.3,1.5-0.4,3.3-1.7,4.1l-9.8,6.5l-2.2,11.5c-0.3,1.6-1.6,2.8-3.2,3.1l-3,0.6l42.3,31.3l-3.3-28.6l29.7-5.9L164.7,1435.9
		L164.7,1435.9z"/>
</g>
<path d="M427,104.2c-1.1-0.5-2.1-0.9-3.3-1.6l6.8-25.1c4.8-17.9-5.7-36.1-23.6-40.9L395,33.4c-17.7-4.8-36.1,5.9-40.9,23.6
	l-6.8,25.1c-1.2,0-2.3-0.1-3.6-0.3c-2.9-0.4-5.7,1.5-6.4,4.4c-3.1,11.7-10.4,38.5-10.4,38.5c-6,22.3,24.2,51.7,33.7,60.4
	c12.6-2.7,53.3-13.1,59.3-35.4c0-0.2,7.3-27,10.4-38.5C431.1,108.3,429.5,105.4,427,104.2z M382.1,133.6l-3.6,13.4
	c-0.9,3.2-4.1,5-7.2,4.2l-3.3-0.9c-3.2-0.9-5-4.1-4.2-7.2l3.6-13.4c-4.3-4-6.3-10.1-4.6-16.2c2.3-8.7,11.2-13.8,19.8-11.4
	c8.7,2.3,13.8,11.2,11.4,19.8C392.6,128,387.9,132.3,382.1,133.6z M388.8,79.7c-7.7-2.1-16-2.1-23.8,0.4c-0.6,0.2-1.3,0.3-2,0.5
	l5.3-19.6c2.6-9.8,12.8-15.7,22.7-13.1l11.8,3.2c9.8,2.6,15.7,12.8,13.1,22.7l-5.3,19.6c-0.5-0.5-0.9-0.9-1.5-1.4
	C403.8,85.9,396.7,81.8,388.8,79.7z"/>
</svg>
