<svg xmlns:x="http://ns.adobe.com/Extensibility/1.0/" xmlns:i="http://ns.adobe.com/AdobeIllustrator/10.0/" xmlns:graph="http://ns.adobe.com/Graphs/1.0/" xmlns="http://www.w3.org/2000/svg" xmlns:xlink="http://www.w3.org/1999/xlink" version="1.1" x="0px" y="0px" viewBox="0 0 100 125" style="enable-background:new 0 0 100 100;" xml:space="preserve"><g i:extraneous="self"><g><path d="M71.8,44.3c0-12-9.8-21.8-21.8-21.8c-12,0-21.8,9.8-21.8,21.8c0,12,9.8,21.8,21.8,21.8C62,66.1,71.8,56.4,71.8,44.3z      M60.4,41.6L49.2,52.8c-0.6,0.6-1.5,1-2.3,1c-0.8,0-1.7-0.3-2.3-1L39,47.2c-1.3-1.3-1.3-3.4,0-4.6c1.3-1.3,3.4-1.3,4.6,0l3.3,3.3     l8.9-8.9c1.3-1.3,3.4-1.3,4.6,0C61.7,38.2,61.7,40.3,60.4,41.6z"/><path d="M76.6,58l-9,7.8c-0.4,0.4-0.7,0.8-0.7,1.4c0,0.5,0.1,1.1,0.5,1.5c0.6,0.7,1.6,0.9,2.4,0.5l0.4-0.2     c2.3-1.2,4.6-2.6,6.7-4.2l1.8-1.4c0.3-0.2,0.6-0.3,1-0.3c0.4,0.1,0.7,0.2,0.9,0.5c0.2,0.3,0.3,0.6,0.3,1c0,0.4-0.2,0.7-0.5,0.9     l-1.8,1.4c-2.2,1.7-4.6,3.1-7.1,4.4L71,71.5c-1.9,1-4.2,0.5-5.7-1.1c-0.1-0.1-0.2-0.2-0.3-0.4l-7.2,2.8c-0.8,0.3-1.4,1.1-1.5,2     c-0.1,0.7,0.2,1.3,0.6,1.8c0.5,0.5,1.1,0.8,1.8,0.7l18.6-0.3c1.7,0,3.4-0.7,4.6-1.9l7.2-7V56.3l-9,0.2     C78.8,56.6,77.5,57.1,76.6,58z"/><path d="M96.4,56.3h-4.7V68h4.7c0.6,0,1.1-0.5,1.1-1.1v-9.5C97.5,56.8,97,56.3,96.4,56.3z"/><path d="M42.1,72.9L34.9,70c-0.1,0.1-0.2,0.3-0.3,0.4c-1.4,1.6-3.8,2-5.7,1.1l-0.4-0.2c-2.5-1.3-4.8-2.7-7.1-4.4l-1.8-1.4     c-0.3-0.2-0.5-0.5-0.5-0.9c-0.1-0.4,0-0.7,0.3-1c0.2-0.3,0.5-0.5,0.9-0.5c0.4-0.1,0.7,0,1,0.3l1.8,1.4c2.1,1.6,4.4,3,6.7,4.2     l0.4,0.2c0.8,0.4,1.8,0.2,2.4-0.5c0.4-0.4,0.5-0.9,0.5-1.5c0-0.5-0.3-1-0.7-1.4l-9-7.8c-1-0.9-2.2-1.4-3.5-1.4l-9-0.2v11.9l7.2,7     c1.2,1.2,2.9,1.9,4.6,1.9l18.6,0.3c0.7,0,1.3-0.3,1.8-0.7c0.5-0.5,0.7-1.1,0.6-1.8C43.6,74,43,73.2,42.1,72.9z"/><path d="M2.5,57.4v9.5C2.5,67.5,3,68,3.6,68h4.7V56.3H3.6C3,56.3,2.5,56.8,2.5,57.4z"/></g></g></svg>