<svg id="eGZFSCkM4aN1" xmlns="http://www.w3.org/2000/svg" xmlns:xlink="http://www.w3.org/1999/xlink" viewBox="0 0 200 202" shape-rendering="geometricPrecision" text-rendering="geometricPrecision">
    <g id="eGZFSCkM4aN2_ts" transform="translate(99.650001,101) scale(0,0)"><g transform="translate(-99.650001,-100.999994)"><path d="M17.8,27.1h163.7c5.5,0,9.8,4.3,9.8,9.8c0,33.7,0,67.4,0,101.2c0,4.9-4.3,9.2-9.8,9.2h-63.8v9.2h11l17.2,18.4h-92.5l17.8-18.4h10.4v-9.2h-63.8c-5.5,0-9.8-4.3-9.8-9.2C8,104.4,8,70.7,8,36.9c0-5.5,4.3-9.8,9.8-9.8ZM73.6,163.2l-4.9,5.5h62.5l-5.5-5.5c-17.1,0-34.9,0-52.1,0Zm38-6.7v-9.2h-23.3v9.2h23.3ZM14.8,124h170.4v-87.1c0-1.8-1.8-3.1-3.7-3.1h-163.7c-1.8,0-3.1,1.2-3.1,3.1v87.1h.1Zm170.4,6.7h-170.4v7.4c0,1.2,1.2,3.1,3.1,3.1c54.6,0,109.1,0,163.7,0c1.8,0,3.7-1.8,3.7-3.1v-7.4h-.1Z"/></g></g><g id="eGZFSCkM4aN4_ts" transform="translate(100,67.481158) scale(0,0)"><g transform="translate(-100.599998,-83.899994)"><path d="M115.1,71.2v0l-6.3-6.3v0l-.9-.9h-.7-22.1v31v8.8h31v-8.8-22.2-.7l-1-.9Zm-7-5.8l6.5,6.5h-6.5v-6.5Zm7,37.5h-29.2v-7.1h29.2v7.1Zm-29.2-8v-30.1h21.2v7.9h7.9v22.1h-29.1v.1Z"/><path d="M98.7,100.3l-.5,1.6h-.7l1.7-5.1h.8l1.7,5.1h-.7l-.5-1.6c0,0-1.8,0-1.8,0Zm1.7-.5l-.5-1.5c-.1-.3-.2-.6-.3-.9v0c-.1.3-.2.6-.3.9l-.5,1.5h1.6v0Z"/><path d="M103.2,96.8v5.1h-.7v-5.1h.7Z"/><path d="M103.7,79h6.4c.1.3.4.5.7.5.4,0,.7-.3.7-.7s-.3-.7-.7-.7c-.3,0-.6.2-.7.5h-8.4c0,0-.1,0-.1,0v-.8h-2.1v.8c0,0-.1,0-.1,0h-8.4c0-.4-.3-.6-.6-.6-.4,0-.7.3-.7.7s.3.7.7.7c.3,0,.6-.2.7-.5h6.4c-3.8,1.3-6.6,4.8-6.8,8.9h-.8v2.2h2.1v-2.1h-.8c.3-4.6,3.8-8.3,8.3-8.8v.7h2.1v-.7c4.5.5,8.1,4.2,8.3,8.8h-.7v2.1h2.1v-2.1h-.8c-.2-4.2-3-7.7-6.8-8.9ZM91.3,89.4h-.9v-.9h.9v.9Zm19.4,0h-.9v-.9h.9v.9Z"/></g></g><g id="eGZFSCkM4aN9_ts" transform="translate(159.118225,60.318222) scale(1,1)"><g transform="translate(-159.118225,-60.318222)"><g id="eGZFSCkM4aN10_ts" transform="translate(138.736771,39.936771) scale(0,0)"><path d="M179.1,44.1c.2,0,.4-.2.4-.4v-3.3c0-.2-.2-.4-.4-.4h-3.3c-.2,0-.4.2-.4.4v1.2h-14.2c-.2-1.1-1.3-1.9-2.5-1.6-.8.2-1.5.8-1.6,1.6h-14.2v-1.2c0-.2-.2-.4-.4-.4h-3.3c-.2,0-.4.2-.4.4v3.3c0,.2.2.4.4.4h1.2v14.2c-1.1.2-1.9,1.3-1.6,2.5.2.8.8,1.5,1.6,1.6v14.2h-1.2c-.2,0-.4.2-.4.4v3.3c0,.2.2.4.4.4h3.3c.2,0,.4-.2.4-.4v-1.3h14.1c.2,1.1,1.3,1.9,2.5,1.6.8-.2,1.5-.8,1.6-1.6h14.2v1.2c0,.2.2.4.4.4h3.3c.2,0,.4-.2.4-.4v-3.3c0-.2-.2-.4-.4-.4h-1.2v-14.2c1.1-.2,1.9-1.3,1.6-2.5-.2-.8-.8-1.5-1.6-1.6v-14.1h1.3Zm-2.9-3.4h2.5v2.5h-2.5v-2.5Zm-17.1,0c.7,0,1.2.6,1.2,1.2s-.6,1.2-1.2,1.2c-.7,0-1.2-.6-1.2-1.2c0,0,0,0,0,0-.1-.6.5-1.2,1.2-1.2Zm-19.6,2.5v-2.5h2.5v2.5h-2.5Zm0,17.1c0-.7.6-1.2,1.2-1.2s1.2.6,1.2,1.2c0,.7-.6,1.2-1.2,1.2c0,0,0,0,0,0-.6,0-1.2-.5-1.2-1.2ZM142,79.8h-2.5v-2.5h2.5v2.5Zm17.1,0c-.7,0-1.2-.6-1.2-1.2s.6-1.2,1.2-1.2c.7,0,1.2.6,1.2,1.2c0,0,0,0,0,0c0,.7-.5,1.2-1.2,1.2Zm19.5-2.4v2.5h-2.5v-2.5h2.5Zm0-17.1c0,.7-.6,1.2-1.2,1.2s-1.2-.6-1.2-1.2.6-1.2,1.2-1.2c0,0,0,0,0,0c.7-.1,1.2.5,1.2,1.2ZM177,58.2c-1.1.2-1.9,1.4-1.6,2.5.2.8.8,1.4,1.6,1.6v14.2h-1.2c-.2,0-.4.2-.4.4v1.2h-14.2c-.2-1.1-1.4-1.9-2.5-1.6-.8.2-1.4.8-1.6,1.6h-14.2v-1.2c0-.2-.2-.4-.4-.4h-1.2v-14.2c1.1-.2,1.9-1.4,1.6-2.5-.2-.8-.8-1.4-1.6-1.6v-14.1h1.2c.2,0,.4-.2.4-.4v-1.2h14.1c.2,1.1,1.4,1.9,2.5,1.6.8-.2,1.4-.8,1.6-1.6h14.2v1.2c0,.2.2.4.4.4h1.2v14.1h.1Z" transform="translate(-138.736769,-39.93677)"/></g><g id="eGZFSCkM4aN11_ts" transform="translate(141.383102,60.318387) scale(0,1)"><path d="M164.4,47.5h1.4c.2,0,.4-.2.4-.4s-.2-.4-.4-.4h-1.8l-.4-.9c-.1-.2-.3-.3-.6-.2-.2.1-.3.3-.2.6l.2.5h-6.7l.3-.7c.1-.2,0-.5-.2-.6s-.5,0-.6.2l-.5,1h-2c-.2,0-.4.2-.4.4s.2.4.4.4h1.6l-7.4,16.3h-1.5c-.2,0-.4.2-.4.4s.2.4.4.4h1.1c0,0,.3-.6-3.8,8.4h-1c-.2,0-.4.2-.4.4s.2.4.4.4h.6l-.4.8c-.1.2,0,.5.2.6s.5,0,.6-.2c0,0,0,0,0,0l.5-1.2h10.4c.2,0,.4-.2.4-.4s-.2-.4-.4-.4h-1L155,69h9.1l2.1,4.5c.1.1.2.2.4.3h8.7l.2.5c.1.2.3.3.6.2s.3-.3.2-.6L164.4,47.5ZM152.5,73h-2.6l1.8-3.9h2.6L152.5,73ZM167,73c-2.4-5.4-1.6-3.5-1.8-3.9h.9c.2,0,.4-.2.4-.4s-.2-.4-.4-.4h-16.4c-.2,0-.4.2-.4.4s.2.4.4.4h1.1c-.2.4.7-1.4-1.8,3.9h-4.6c5.2-11.5,3.4-7.5,3.8-8.4h14.1l.5,1.2c.1.2.3.3.5.2s.3-.3.2-.5c0,0,0,0,0,0l-.4-.8h.9c.2,0,.4-.2.4-.4s-.2-.4-.4-.4h-1.3l-5.2-11.3c-.1-.2-.3-.3-.6-.2-.2.1-.3.3-.2.6l.6,1.4v0L152.9,64h-4.6l7.4-16.3h4L171.6,73h-4.6Zm-5.1-9.2h-4.3l2.1-4.7l2.2,4.7Zm-2.6-5.7l-2.6,5.7h-2.6l3.9-8.5l1.3,2.8ZM172.5,73L161,47.5h2.6L175.1,73h-2.6Z" transform="translate(-141.899996,-60.318378)"/></g><g id="eGZFSCkM4aN12_ts" transform="translate(156.5,73.400002) scale(0,1)"><path d="M162.4,73h-5.5c-.2,0-.4.2-.4.4s.2.4.4.4h5.5c.2,0,.4-.2.4-.4s-.2-.4-.4-.4Z" transform="translate(-156.499998,-73.399994)"/></g></g></g><g id="eGZFSCkM4aN13_ts" transform="translate(14.400009,33.900003) scale(0,0)"><g transform="translate(-14.399997,-33.899999)"><path d="M21.3,61.6c-.7,0-1.4.6-1.4,1.4v8.1c0,.7.6,1.4,1.4,1.4h8.1c.7,0,1.4-.6,1.4-1.4v-8.1c0-.7-.6-1.4-1.4-1.4h-8.1ZM28,69.8h-5.4v-5.4h5.4v5.4Z"/><g id="eGZFSCkM4aN15_ts" transform="translate(33.555576,84.000001) scale(0,1)"><g transform="translate(-33.555576,-84)"><path d="M54.4,63h8.1c.7,0,1.4-.6,1.4-1.4v-8.1c0-.7-.6-1.4-1.4-1.4h-8.1c-.7,0-1.4.6-1.4,1.4v8.1c.1.8.7,1.4,1.4,1.4Zm1.4-8.1h5.4v5.4h-5.4v-5.4Z"/><path d="M56.6,76.5h3.8c1.9,0,3.5-1.6,3.5-3.5v0-3.8c0-1.9-1.6-3.5-3.5-3.5v0h-3.8c-1.9,0-3.5,1.6-3.5,3.5v3.8c0,2,1.6,3.5,3.5,3.5Zm-.8-7.3c0-.4.4-.8.8-.8h3.8c.4,0,.8.4.8.8v0v3.8c0,.4-.4.8-.8.8h-3.8c-.4,0-.8-.4-.8-.8v-3.8Z"/><path d="M63.2,84c0-2.6-2.1-4.7-4.7-4.7s-4.7,2.1-4.7,4.7s2.1,4.7,4.7,4.7s4.7-2.1,4.7-4.7Zm-6.7,0c0-1.1.9-2,2-2s2,.9,2,2-.9,2-2,2-2-.9-2-2Z"/><path d="M53.4,96.9l1.9,3.3c.2.4.7.7,1.2.7h3.8c.5,0,.9-.3,1.2-.7l1.9-3.3c.2-.4.2-.9,0-1.4l-1.9-3.3c-.2-.4-.7-.7-1.2-.7h-3.8c-.5,0-.9.3-1.2.7l-1.9,3.3c-.3.5-.3,1,0,1.4Zm3.9-2.6h2.3l1.1,2-1.1,2h-2.3l-1.1-1.9l1.1-2.1Z"/><path d="M55,111.2l-.7,2.2c-.2.7.2,1.5.9,1.7.4.1.9,0,1.2-.2l1.7-1.3l1.7,1.3c.6.5,1.4.3,1.9-.2.3-.3.4-.8.2-1.2l-.7-2.2l1.8-1.4c.6-.5.7-1.3.3-1.9-.3-.3-.7-.5-1.1-.5h-2.1l-.7-2.1c-.2-.7-1-1.1-1.7-.9-.4.1-.8.5-.9.9l-.7,2.1h-2.1c-.7,0-1.4.6-1.4,1.4c0,.4.2.8.5,1.1l1.9,1.2Zm3.2-1.4c.1.1.2.2.4.3-.1.2-.2.3-.2.5h-.2-.2c0-.2-.1-.4-.2-.5.1-.1.2-.2.4-.3Z"/><path d="M69.1,47h-21.7c-.7,0-1.4.6-1.4,1.4v15.3l-11.4,3c-.7.2-1.2.9-1,1.6.1.5.5.9,1,1L46,72.4v47c0,.7.6,1.4,1.4,1.4h21.7c.7,0,1.4-.6,1.4-1.4v-71.1c0-.7-.6-1.3-1.4-1.3v0Zm-1.4,71.1h-19v-46.8c0-.6-.4-1.1-1-1.3l-7.6-2l7.5-2c.6-.2,1-.7,1-1.3v-15h19l.1,68.4Z"/></g></g><path d="M29.6,51.6l-8.1-3.5c-.7-.3-1.5,0-1.8.7-.1.2-.1.5-.1.7l1.3,8.1c.1.6.5,1,1.1,1.1h.2c.5,0,1-.3,1.2-.7L25,54.8l4.2-.7c.7-.1,1.2-.8,1.1-1.5c0-.4-.3-.8-.7-1Zm-5.6.7c-.4.1-.8.3-1,.7l-.1.1-.3-1.6l1.5.7-.1.1Z"/><path d="M24,83.7c.8,0,1.5-.2,2.2-.6l2.5,2.5c.5.6,1.4.6,1.9.1.6-.5.6-1.4.1-1.9c0,0-.1-.1-.1-.1L28,81.1c.3-.6.4-1.2.4-1.8c0-2.5-2-4.5-4.4-4.5-2.5,0-4.5,2-4.5,4.4s2,4.4,4.5,4.5c0,0,0,0,0,0Zm0-6.2c1,0,1.7.8,1.7,1.7c0,1-.8,1.7-1.7,1.7s-1.7-.8-1.7-1.7.8-1.7,1.7-1.7c0,0,0,0,0,0v0Z"/><path d="M19.2,92.5c0,.7.6,1.4,1.4,1.4.7,0,1.4-.6,1.4-1.4v-1h1.4v5.4h-.4c-.7,0-1.4.6-1.4,1.4s.6,1.4,1.4,1.4h3.5c.7,0,1.4-.6,1.4-1.4s-.6-1.4-1.4-1.4h-.5v-5.4h1.4v1c0,.7.6,1.4,1.4,1.4s1.4-.6,1.4-1.4v-2.4c0-.7-.6-1.4-1.4-1.4h-8.1c-.7,0-1.4.6-1.4,1.4v2.4h-.1Z"/><path d="M24.6,115.1h6.8c.7,0,1.4-.6,1.4-1.4v-6.7c0-.7-.6-1.4-1.4-1.4h-2.7v-2.7c0-.7-.6-1.4-1.4-1.4h-6.8c-.7,0-1.4.6-1.4,1.4v6.8c0,.7.6,1.4,1.4,1.4h2.7v2.7c.1.7.7,1.3,1.4,1.3Zm4.1-5.4v-1.4h1.4v4.1h-4.1v-1.4h1.4c.7.1,1.3-.5,1.3-1.3Zm-6.8-1.4v-4.1h4.1v4.1h-4.1Z"/><path d="M99.8,33.9h-84c-.7,0-1.4.6-1.4,1.4v85.3h23.7v-47.5l-2.7-.7v45.5h-18.2v-72.5h18.3v18.3l2.7-.7v-17.6h6.5c.8-.7,1.8-1.1,2.8-1.1h21.7c1,0,2,.4,2.8,1.1h27.9c.7,0,1.4-.6,1.4-1.4v-8.8c-.2-.7-.8-1.3-1.5-1.3Zm-1.4,8.8h-81.2v-6.1h81.2v6.1Z"/></g></g><g id="eGZFSCkM4aN27_to" transform="translate(134.202019,93.74057)"><g id="eGZFSCkM4aN27_ts" transform="scale(0,0)"><path d="M139.7,100.5l3.4-5.1c.2-.3.1-.8-.2-1l-2.3-1.6c-.1-.1-.2-.1-.3-.1l-3.6-4.3c-.4-.4-.9-.7-1.4-.8l-9.1-.9-.2.3v0l-.6.8v0l-.2.3l4.3,8c.3.5.7.9,1.3,1l5.6,1.8c0,0,0,0,.1.1l2.3,1.6c.2.3.7.2.9-.1ZM131,96.3c-.3-.1-.5-.3-.7-.6l-3.9-7.2l5.7,3.8c-.1.2-.1.5-.1.8.2.8,1,1.3,1.8,1.2.8-.2,1.3-1,1.2-1.8-.2-.8-1-1.3-1.8-1.2-.2,0-.3.1-.5.2l-5.8-3.9l8.1.9c.3,0,.6.2.8.4l3.5,4.2-3.2,4.8-5.1-1.6Z" transform="translate(-134.202019,-93.74057)"/></g></g><g id="eGZFSCkM4aN28_ts" transform="translate(159.099998,103.550003) scale(0,0)"><g transform="translate(-159.099998,-103.550003)"><g id="eGZFSCkM4aN29_ts" transform="translate(159.100006,90.900002) scale(0,0)"><path d="M159.1,93c1.2,0,2.1-1,2.1-2.1s-1-2.1-2.1-2.1c-1.2,0-2.1,1-2.1,2.1s.9,2.1,2.1,2.1Zm0-3.5c.8,0,1.4.6,1.4,1.4s-.6,1.4-1.4,1.4-1.4-.6-1.4-1.4.6-1.4,1.4-1.4Z" transform="translate(-159.100006,-90.900002)"/></g><g id="eGZFSCkM4aN30_ts" transform="translate(158.5,116.699997) scale(0,0)"><path d="M156.4,116.7c0,1.2,1,2.1,2.1,2.1s2.1-1,2.1-2.1-1-2.1-2.1-2.1-2.1.9-2.1,2.1v0Zm3.5,0c0,.8-.6,1.4-1.4,1.4s-1.4-.6-1.4-1.4.6-1.4,1.4-1.4s1.4.6,1.4,1.4Z" transform="translate(-158.5,-116.699997)"/></g><path d="M149.1,103.4c-1.2.2-2.1,1.2-2.1,2.5c0,1.4,1.1,2.5,2.5,2.5.2,0,.5,0,.7-.1.8,1.5,2,2.8,3.4,3.7c1.6,1,3.4,1.5,5.3,1.5c5.4,0,9.8-4.4,9.8-9.8s-4.4-9.8-9.8-9.8c-5.3.1-9.7,4.3-9.8,9.5Zm.4,4.3c-1,0-1.8-.8-1.8-1.8s.8-1.8,1.8-1.8s1.8.8,1.8,1.8-.8,1.8-1.8,1.8Zm11.9,4c-2.7,0-5-2.2-5-5c0-1.2.4-2.3,1.1-3.2.6-.8,1.5-1.3,2.5-1.6.2.5.7.9,1.3.9s1.1-.4,1.3-.9c1,.3,1.8.8,2.5,1.6.7.9,1.1,2,1.1,3.2.1,2.8-2.1,5-4.8,5Zm-.7-10.2c0-.4.3-.7.7-.7s.7.3.7.7-.3.7-.7.7-.7-.4-.7-.7Zm7.2,2.3c0,1.4-.3,2.7-.9,3.8c0-.3.1-.5.1-.8c0-1.3-.5-2.6-1.3-3.7-.8-.9-1.8-1.6-3-1.9-.1-.7-.7-1.2-1.4-1.2s-1.3.5-1.4,1.2c-1.2.3-2.2.9-3,1.9s-1.3,2.3-1.3,3.7c0,3.1,2.5,5.6,5.5,5.7-.7.2-1.5.3-2.3.3-1.7,0-3.4-.5-4.9-1.4-1.3-.8-2.4-2-3.1-3.4.7-.4,1.1-1.2,1.1-2.1c0-1.3-1-2.3-2.2-2.5.2-4.8,4.2-8.7,9-8.7c5,0,9.1,4.1,9.1,9.1v0Z"/><g id="eGZFSCkM4aN32_ts" transform="translate(162.3,114.599999) scale(0,1)"><path d="M162.3,114.6c0,.2.2.4.4.4h10.3c.2,0,.4-.2.4-.4s-.2-.4-.4-.4h-10.3c-.2,0-.4.2-.4.4Z" transform="translate(-162.3,-114.599995)"/></g><g id="eGZFSCkM4aN33_ts" transform="translate(165,116.7) scale(0,0)"><path d="M172.2,116.7c0-.2-.2-.4-.4-.4h-6.4c-.2,0-.4.2-.4.4s.2.4.4.4h6.4c.2-.1.4-.2.4-.4Z" transform="translate(-165,-116.7)"/></g><g id="eGZFSCkM4aN34_ts" transform="translate(166.3,118.8) scale(0,1)"><path d="M166.7,118.3c-.2,0-.4.2-.4.4s.2.4.4.4h3.5c.2,0,.4-.2.4-.4s-.2-.4-.4-.4h-3.5Z" transform="translate(-166.3,-118.8)"/></g><g id="eGZFSCkM4aN35_ts" transform="translate(144.8,92.5) scale(0,1)"><path d="M145.2,92.9h10.3c.2,0,.4-.2.4-.4s-.2-.4-.4-.4h-10.3c-.2,0-.4.2-.4.4s.2.4.4.4Z" transform="translate(-144.799999,-92.5)"/></g><g id="eGZFSCkM4aN36_ts" transform="translate(146,90.4) scale(0,1)"><path d="M146.4,90.8h6.4c.2,0,.4-.2.4-.4s-.2-.4-.4-.4h-6.4c-.2,0-.4.2-.4.4c0,.3.2.4.4.4Z" transform="translate(-146,-90.4)"/></g><g id="eGZFSCkM4aN37_ts" transform="translate(149.649994,88.400002) scale(0,1)"><path d="M147.9,88.8h3.5c.2,0,.4-.2.4-.4s-.2-.4-.4-.4h-3.5c-.2,0-.4.2-.4.4s.2.4.4.4Z" transform="translate(-149.649994,-88.400002)"/></g></g></g><g id="eGZFSCkM4aN38_tr" transform="translate(101.150002,83.950001) rotate(0)"><g id="eGZFSCkM4aN38_ts" transform="scale(1,1)"><g transform="translate(-101.150001,-83.950001)"><g id="eGZFSCkM4aN39_ts" transform="translate(111.550003,73.15) scale(0,0)"><path d="M101.8,82.4l13.1-14c.2-.2.6-.3.9,0l5.5,5.2v-9.7h-19.5v18.5v0Z" transform="translate(-111.550003,-73.15)"/></g><g id="eGZFSCkM4aN40_ts" transform="translate(86.199997,87.850002) scale(0,0)"><path d="M99.7,84.6l-19.3.6c0,0,0,0,0,0-.3,0-.6-.3-.6-.6l-.2-7.1-6.9,7.3L86.9,98.2L99.7,84.6v0Z" transform="translate(-86.199997,-87.850002)"/></g><g id="eGZFSCkM4aN41_ts" transform="translate(97.950001,69.000002) scale(0,0)"><path d="M100.5,82.5v-19.3c0-.3.3-.6.6-.6h7.3l-6.9-7.1-14,13.6l13,13.4v0Z" transform="translate(-97.950001,-69.000002)"/></g><g id="eGZFSCkM4aN42_ts" transform="translate(90.049999,74.049999) scale(0,0)"><path d="M99.7,83.4L86.3,69.5c-.2-.2-.2-.6,0-.9l4.6-4.5-10.5.3L81,84l18.7-.6v0Z" transform="translate(-90.049999,-74.049999)"/></g><g id="eGZFSCkM4aN43_ts" transform="translate(112.250004,93.900002) scale(0,0)"><path d="M111.4,103.8l10.5-.3-.6-19.5-18.7.6L116,98.4c.2.2.2.6,0,.9l-4.6,4.5v0Z" transform="translate(-112.250004,-93.900002)"/></g><g id="eGZFSCkM4aN44_ts" transform="translate(116.099995,80.049995) scale(0,0)"><path d="M115.4,69.7L102.6,83.3l19.3-.6c.3,0,.6.3.6.6l.2,7.1l6.9-7.3-14.2-13.4Z" transform="translate(-116.099995,-80.049995)"/></g><g id="eGZFSCkM4aN45_ts" transform="translate(104.350002,98.949997) scale(0,0)"><path d="M101.8,85.5v19.2c0,.3-.3.6-.6.6h-7.3l6.9,7.1l14-13.6-13-13.3v0Z" transform="translate(-104.350002,-98.949997)"/></g><g id="eGZFSCkM4aN46_ts" transform="translate(90.75,94.799999) scale(0,0)"><path d="M86.9,99.7c-.1,0-.3-.1-.4-.2L81,94.4v9.7h19.5v-18.6l-13.1,14c-.1.1-.3.2-.5.2Z" transform="translate(-90.75,-94.799999)"/></g></g></g></g><g id="eGZFSCkM4aN47_tr" transform="translate(100.000003,110.142868) rotate(0)"><g id="eGZFSCkM4aN47_ts" transform="scale(0,0)"><g transform="translate(-104.549995,-81.949999)"><path d="M103.6,111.1c1.4,0,2.5-1.1,2.5-2.5s-1.1-2.5-2.5-2.5-2.5,1.1-2.5,2.5c-.1,1.4,1.1,2.5,2.5,2.5Z" clip-rule="evenodd" fill-rule="evenodd"/><path d="M89.4,107.1c1.1.6,2.5.3,3.1-.8.8-1.1.3-2.5-.8-3.4-1.1-.6-2.5-.3-3.1,1.1-.9,1.2-.3,2.6.8,3.1Z" clip-rule="evenodd" fill-rule="evenodd"/><path d="M78.4,96.9c.8,1.4,2.5,2,4,1.1s2-2.5,1.1-4c-.8-1.4-2.5-1.7-4-1.1-1.4.9-1.7,2.6-1.1,4Z" clip-rule="evenodd" fill-rule="evenodd"/><path d="M74.7,82.5c0,1.7,1.1,2.8,2.8,2.8c1.4,0,2.8-1.1,2.8-2.8c0-1.4-1.4-2.8-2.8-2.8-1.7,0-2.8,1.4-2.8,2.8Z" clip-rule="evenodd" fill-rule="evenodd"/><path d="M78.4,68.1c-.8,1.4-.3,3.4,1.1,4.2s3.4.3,4.2-1.1c.8-1.7.3-3.4-1.1-4.2-1.7-.9-3.4-.6-4.2,1.1Z" clip-rule="evenodd" fill-rule="evenodd"/><path d="M88.8,57c-1.7.8-2.3,3.1-1.4,4.8c1.1,1.4,3.1,2,4.8,1.1s2.3-3.1,1.1-4.8c-.8-1.4-2.8-1.9-4.5-1.1Z" clip-rule="evenodd" fill-rule="evenodd"/><path d="M103.6,52.8c-2,0-3.7,1.7-3.7,3.7s1.7,3.7,3.7,3.7s3.7-1.7,3.7-3.7-1.7-3.7-3.7-3.7Z" clip-rule="evenodd" fill-rule="evenodd"/><path d="M118.6,56.5c-2-1.4-4.5-.6-5.7,1.4-1.1,2-.6,4.5,1.4,5.7c2.3,1.1,4.8.6,5.9-1.4c1.2-2.1.4-4.6-1.6-5.7Z" clip-rule="evenodd" fill-rule="evenodd"/><path d="M130.2,67.2c-1.4-2.3-4.2-3.1-6.5-1.7-2.3,1.1-3.1,4-1.7,6.2c1.4,2.3,4.2,3.1,6.5,2c2.3-1.4,3.1-4.2,1.7-6.5Z" clip-rule="evenodd" fill-rule="evenodd"/><path d="M134.4,82.5c0-2.5-2.3-4.8-4.8-4.8-2.8,0-4.8,2.3-4.8,4.8s2,4.8,4.8,4.8c2.6,0,4.8-2.2,4.8-4.8Z" clip-rule="evenodd" fill-rule="evenodd"/><path d="M130.8,98.1c1.4-2.3.6-5.7-2-7.1s-5.7-.6-7.1,2c-1.7,2.5-.8,5.7,1.7,7.1s5.9.5,7.4-2Z" clip-rule="evenodd" fill-rule="evenodd"/></g></g></g></svg>
    