<svg id="solution" xmlns="http://www.w3.org/2000/svg" xmlns:xlink="http://www.w3.org/1999/xlink"
    viewBox="0 0 45 45" shape-rendering="geometricPrecision" text-rendering="geometricPrecision">
    <g id="solution-u-puzzle3_to" transform="translate(35.601251,30.806243)">
        <g id="solution-u-puzzle3_ts" transform="scale(0,0)">
            <path id="solution-u-puzzle3"
                d="M39.38,25.81l2.97,3-8.74,8.75-2.99-2.98c-.13-.14-.33-.19-.51-.18-.2.04-.36.16-.45.34-.48.98-1.05,1.89-1.42,2.26-.76.77-2.08.77-2.84,0-.37-.39-.59-.89-.59-1.42c0-.54.22-1.03.59-1.41.38-.37,1.29-.94,2.27-1.42.17-.09.29-.25.32-.45.04-.18-.02-.37-.16-.52l-2.98-2.97l2.4-2.41c.44.8.9,1.48,1.27,1.84.61.62,1.41.94,2.26.94.86,0,1.66-.32,2.27-.94c1.24-1.25,1.24-3.28,0-4.53-.36-.35-1.04-.82-1.85-1.26l2.41-2.41l2.97,2.98c.14.14.33.21.53.18.19-.04.36-.16.44-.34.48-.98,1.05-1.89,1.42-2.27.76-.74,2.08-.74,2.83,0c.79.79.79,2.07,0,2.84-.37.37-1.28.96-2.26,1.42-.17.09-.29.25-.33.45s.04.37.17.51Z"
                transform="translate(-33.601251,-28.806243)" />
        </g>
    </g>
    <g id="solution-u-puzzle2_to" transform="translate(23.997499,17.198762)">
        <g id="solution-u-puzzle2_ts" transform="scale(0,0)">
            <path id="solution-u-puzzle2"
                d="M32.2,27.4c-.76.77-2.08.75-2.83,0-.38-.37-.95-1.28-1.43-2.26-.08-.18-.25-.31-.43-.34h-.1c-.16,0-.31.05-.43.18L24,27.95l-2.4-2.38c.81-.47,1.48-.93,1.84-1.29c1.25-1.24,1.25-3.27,0-4.52-1.24-1.25-3.28-1.25-4.52,0-.37.35-.83,1.03-1.28,1.83l-2.39-2.4l2.97-2.98c.15-.12.2-.32.17-.51-.03-.18-.15-.36-.33-.45-.98-.48-1.89-1.05-2.26-1.43-.37-.37-.59-.87-.59-1.4c0-.54.22-1.04.59-1.43.76-.75,2.08-.75,2.83,0c.38.38.95,1.29,1.43,2.28.09.16.25.29.44.32.19.04.39-.03.52-.17L24,10.44l8.75,8.75-2.97,2.99c-.14.14-.21.32-.17.52.03.19.16.35.33.44.98.48,1.89,1.05,2.26,1.43.78.78.78,2.05,0,2.83Z"
                transform="translate(-23.997499,-19.198762)" />
        </g>
    </g>
    <g id="solution-u-puzzle1_to" transform="translate(12.3975,30.798749)">
        <g id="solution-u-puzzle1_ts" transform="scale(0,0)">
            <path id="solution-u-puzzle1"
                d="M20.17,25.81l2.98,3-8.76,8.75-2.97-2.98c-.15-.14-.34-.19-.53-.18-.19.04-.36.16-.44.34-.48.98-1.05,1.89-1.42,2.26-.76.77-2.08.77-2.83,0-.39-.39-.59-.89-.59-1.42c0-.54.2-1.03.59-1.41.37-.37,1.28-.94,2.26-1.42.18-.09.29-.25.33-.45.03-.18-.04-.37-.17-.52L5.64,28.81l2.4-2.41c.45.8.9,1.48,1.27,1.84c1.25,1.26,3.28,1.25,4.53,0s1.25-3.28,0-4.53c-.37-.35-1.03-.82-1.84-1.26l2.39-2.41l2.99,2.98c.13.14.33.21.52.18.19-.04.36-.16.44-.34.47-.98,1.05-1.89,1.42-2.27.79-.76,2.05-.76,2.84,0c.78.79.78,2.07,0,2.84-.38.37-1.29.96-2.27,1.42-.17.09-.29.25-.32.45-.04.2.02.37.16.51Z"
                transform="translate(-14.3975,-28.798749)" />
        </g>
    </g>
    <g id="solution-s-g1_to" transform="translate(31.531496,12.988497)">
        <g id="solution-s-g1_ts" transform="scale(0,0)">
            <g id="solution-s-g1" transform="translate(-31.531496,-12.988497)">
                <path id="solution-u-stick1"
                    d="M35.489,17.628c-.167,0-.334-.064-.462-.192L27.112,9.457c-.252-.255-.251-.667.004-.919.255-.254.665-.251.92.003l7.915,7.979c.252.255.251.667-.004.919-.127.127-.293.189-.458.189Z" />
            </g>
        </g>
    </g>
    <g id="solution-s-g2_ts" transform="translate(37.978998,38.426212) scale(0,0)">
        <g id="solution-s-g2" transform="translate(-37.978998,-38.426212)">
            <path id="solution-u-stick2"
                d="M35.766,41.225c-.17,0-.339-.066-.466-.197-.251-.257-.244-.669.013-.919l4.426-4.298c.26-.25.671-.244.919.014.251.257.244.669-.013.919l-4.426,4.298c-.127.122-.29.183-.453.183Z" />
        </g>
    </g>
</svg>