<svg xmlns="http://www.w3.org/2000/svg" xmlns:xlink="http://www.w3.org/1999/xlink" version="1.1" x="0px" y="0px" viewBox="0 0 512 640" style="enable-background:new 0 0 512 512;" xml:space="preserve"><path d="M56,278.9h111.2c3.3,0,6,2.7,6,6v38.9c0,24.7-20.2,44.9-44.9,44.9H94.9c-24.7,0-44.9-20.2-44.9-44.9v-38.9  C50,281.6,52.7,278.9,56,278.9L56,278.9z M344.8,278.9H456c3.3,0,6,2.7,6,6v38.9c0,24.7-20.2,44.9-44.9,44.9h-33.5  c-24.7,0-44.9-20.2-44.9-44.9v-38.9C338.8,281.6,341.5,278.9,344.8,278.9L344.8,278.9z M201,181.5c13.3,22.8,32.4,42,55,55.5  c22.6-13.5,41.7-32.7,55-55.5l5.2-9.8c4.8-9.8,8.7-20.3,11.3-31.2c0-0.2,0.1-0.3,0.1-0.5c3.4-12.8,4.9-30.5,4.2-44.2  c-49.4-14.1-102.5-14.1-151.9,0C178.6,125.8,185.9,155.7,201,181.5L201,181.5z M338.1,147.7c-2,7.2-4.4,14.3-7.3,21.1H450v-21.1  H338.1z M181.2,168.7c-2.9-6.8-5.4-13.8-7.3-21.1H62v21.1H181.2z M216.8,142.4c-1.8-2.8-0.9-6.5,1.9-8.2c2.8-1.8,6.5-0.9,8.2,1.9  l15.7,24.8l47.8-44.3c2.4-2.3,6.2-2.1,8.5,0.3c2.2,2.4,2.1,6.2-0.3,8.5l-53,49.2l0,0c-2.7,2.6-7.1,2-9.2-1.2L216.8,142.4z   M291.4,381.2h-70.8c-12.5,0-22.8,10.3-22.8,22.8v22.8h116.4V404C314.2,391.5,303.9,381.2,291.4,381.2L291.4,381.2z M242.4,369.2  h27.1V242.6c-3.5,2.3-7,4.5-10.6,6.5c-2,1.1-4.2,1-6-0.1c-3.6-2-7.1-4.2-10.5-6.5V369.2z M411,183.4l39,76.6  c1.5,2.9,0.3,6.5-2.6,8.1c-2.9,1.5-6.6,0.3-8.1-2.6L400.4,189l-38.9,76.5c-1.5,3-5.1,4.1-8.1,2.6c-2.9-1.5-4.1-5.1-2.6-8.1l39-76.6  H411z M122.2,183.4l39,76.6c1.5,2.9,0.3,6.5-2.6,8.1c-2.9,1.5-6.5,0.3-8.1-2.6L111.6,189l-38.9,76.5c-1.5,3-5.1,4.1-8.1,2.6  c-2.9-1.5-4.1-5.1-2.6-8.1l39-76.6H122.2z"/></svg>