<svg id="e6GnlSqRINC1" xmlns="http://www.w3.org/2000/svg" xmlns:xlink="http://www.w3.org/1999/xlink"
    viewBox="0 0 512 640" shape-rendering="geometricPrecision" text-rendering="geometricPrecision">
    <g id="e6GnlSqRINC2_ts" transform="translate(255.999985,320.049988) scale(0,0)">
        <g transform="translate(-255.999985,-320.049988)">
            <path
                d="M103.7,74.1c0-22.7,18.4-41.1,41-41.1h222.6c22.6,0,41,18.4,41,41.1v491.9c0,22.7-18.4,41.1-41,41.1h-222.6c-22.6,0-41-18.4-41-41.1v-491.9Zm17.6-.1v492c0,12.9,10.5,23.4,23.4,23.4h222.6c13,0,23.4-10.5,23.4-23.4v-492c0-12.9-10.5-23.4-23.4-23.4h-41c-3.2,0-7.2,2.3-8.9,5L305.9,74.8c-1.6,2.7-5.6,5-8.9,5h-82c-3.3,0-7.2-2.3-8.9-5L194.6,55.6c-1.6-2.7-5.6-5-8.9-5h-41c-12.9,0-23.4,10.5-23.4,23.4Z"
                clip-rule="evenodd" fill-rule="evenodd" />
        </g>
    </g>
    <g transform="matrix(1.1 0 0 1.1-25.605-33.766317)">
        <g id="e6GnlSqRINC5_ts" transform="translate(256.049995,329.699997) scale(0,0)">
            <path
                d="M361.3,517h-210.6c-9.7,0-17.6-7.9-17.6-17.6v-339.4c0-9.7,7.9-17.6,17.6-17.6h210.7c9.7,0,17.6,7.9,17.6,17.6c0,67.068209,0,237.218085,0,339.4-.1,9.7-8,17.6-17.7,17.6ZM150.7,154.2c-3.2,0-5.9,2.6-5.9,5.9v339.4c0,3.2,2.6,5.9,5.9,5.9h210.7c3.2,0,5.9-2.6,5.9-5.9v-339.5c0-3.2-2.6-5.9-5.9-5.9h-210.7v.1Z"
                transform="translate(-256.049995,-329.699997)" />
        </g>
        <g id="e6GnlSqRINC6_ts" transform="translate(256.723936,476.049988) scale(0,0)">
            <path
                d="M273.6,493.6h-35.1c-6.5,0-11.7-5.2-11.7-11.7v-11.7c0-6.5,5.2-11.7,11.7-11.7h35.1c6.5,0,11.7,5.2,11.7,11.7v11.7c0,6.4-5.3,11.7-11.7,11.7Zm-35.2-23.4v11.7h35.1v-11.7h-35.1Z"
                transform="translate(-256.050011,-476.049988)" />
        </g>
        <g id="e6GnlSqRINC7_ts" transform="translate(162.4,440.040909) scale(0,1)">
            <rect width="187.2" height="11.7" rx="0" ry="0" transform="translate(0,-5.85)" />
        </g>
        <g id="e6GnlSqRINC8_ts" transform="translate(256.000015,312.100021) scale(0,1)">
            <path
                d="M337.9,329.7h-163.8c-3.2,0-5.9-2.6-5.9-5.9v-23.4c0-3.2,2.6-5.9,5.9-5.9h163.8c3.2,0,5.9,2.6,5.9,5.9v23.4c0,3.3-2.6,5.9-5.9,5.9ZM179.9,318h152.1v-11.7h-152.1v11.7Z"
                transform="translate(-256.000015,-312.100021)" />
        </g>
        <g id="e6GnlSqRINC9_ts" transform="translate(256.72394,358.900009) scale(0,1)">
            <path
                d="M337.9,376.5h-163.8c-3.2,0-5.9-2.6-5.9-5.9v-23.4c0-3.2,2.6-5.9,5.9-5.9h163.8c3.2,0,5.9,2.6,5.9,5.9v23.4c0,3.3-2.6,5.9-5.9,5.9Zm-158-11.7h152.1v-11.7h-152.1v11.7Z"
                transform="translate(-256.000015,-358.900009)" />
        </g>
        <g id="e6GnlSqRINC10_ts" transform="translate(256.049988,243.100006) scale(0,0)">
            <path
                d="M285.3,269.5h-58.5c-3.2,0-5.9-2.6-5.9-5.9v-41c0-3.2,2.6-5.9,5.9-5.9h58.5c3.2,0,5.9,2.6,5.9,5.9v41c-.1,3.2-2.7,5.9-5.9,5.9Zm-52.7-11.7h46.8v-29.3h-46.8v29.3Z"
                transform="translate(-256.049988,-243.100006)" />
        </g>
        <g id="e6GnlSqRINC11_ts" transform="translate(255.999992,205.050011) scale(0,0)">
            <path
                d="M279.4,222.6h-11.7v-21l-2.4-2.4h-18.6l-2.4,2.4v21h-11.7v-23.4c0-1.6.6-3,1.7-4.1l5.9-5.9c1.1-1.1,2.6-1.7,4.1-1.7h23.4c1.6,0,3,.6,4.1,1.7l5.9,5.9c1.1,1.1,1.7,2.6,1.7,4.1v23.4Z"
                transform="translate(-255.999992,-205.050011)" />
        </g>
        <g id="e6GnlSqRINC12_ts" transform="translate(326.200012,405.799988) scale(0,0)">
            <path
                d="M326.2,423.4c-9.7,0-17.6-7.9-17.6-17.6s7.9-17.6,17.6-17.6s17.6,7.9,17.6,17.6-7.9,17.6-17.6,17.6Zm0-23.5c-3.2,0-5.9,2.6-5.9,5.9c0,3.2,2.6,5.9,5.9,5.9s5.9-2.6,5.9-5.9c0-3.2-2.7-5.9-5.9-5.9Z"
                transform="translate(-326.200012,-405.799988)" />
        </g>
        <g id="e6GnlSqRINC13_ts" transform="translate(279.653705,405.799988) scale(0,0)">
            <path
                d="M279.4,423.4c-9.7,0-17.6-7.9-17.6-17.6s7.9-17.6,17.6-17.6s17.6,7.9,17.6,17.6-7.9,17.6-17.6,17.6Zm0-23.5c-3.2,0-5.9,2.6-5.9,5.9c0,3.2,2.6,5.9,5.9,5.9s5.9-2.6,5.9-5.9c0-3.2-2.7-5.9-5.9-5.9Z"
                transform="translate(-279.399994,-405.799988)" />
        </g>
        <g id="e6GnlSqRINC14_ts" transform="translate(185.800003,405.799988) scale(0,0)">
            <path
                d="M185.8,423.4c-9.7,0-17.6-7.9-17.6-17.6s7.9-17.6,17.6-17.6s17.6,7.9,17.6,17.6c-.1,9.7-7.9,17.6-17.6,17.6Zm0-23.5c-3.2,0-5.9,2.6-5.9,5.9c0,3.2,2.6,5.9,5.9,5.9s5.9-2.6,5.9-5.9c-.1-3.2-2.7-5.9-5.9-5.9Z"
                transform="translate(-185.800003,-405.799988)" />
        </g>
        <g id="e6GnlSqRINC15_ts" transform="translate(185.8,358.9) scale(0,1)">
            <path
                d="M294,360.4c.9.9,2.3.9,3.1,0c.9-.9.9-2.3,0-3.1-.9-.9-2.3-.9-3.1,0-.9.8-.9,2.2,0,3.1Zm-10.6.2c.9.9,2.3.9,3.1,0c.9-.9.9-2.3,0-3.1-.9-.9-2.3-.9-3.1,0s-.8,2.3,0,3.1Zm-10.7-.1c.9.9,2.3.9,3.1,0c.9-.9.9-2.3,0-3.1-.9-.9-2.3-.9-3.1,0-.9.8-.9,2.2,0,3.1Zm-10.5.1c.9.9,2.3.9,3.1,0c.9-.9.9-2.3,0-3.1-.9-.9-2.3-.9-3.1,0-.9.9-.9,2.3,0,3.1Zm-10.6-.1c0,0,2.3.9,3.1,0s.9-2.3,0-3.1c-.9-.9-2.3-.9-3.1,0-.8.8-.8,2.2,0,3.1Zm-10.5.1c.9.9,2.3.9,3.1,0c.9-.9.9-2.3,0-3.1-.9-.9-2.3-.9-3.1,0-.9.8-.9,2.2,0,3.1Zm-10.3-.2c.9.9,2.3.9,3.1,0c.9-.9.9-2.3,0-3.1-.9-.9-2.3-.9-3.1,0s-.8,2.3,0,3.1Zm-10.6.1c.9.9,2.3.9,3.1,0c.9-.9.9-2.3,0-3.1-.9-.9-2.3-.9-3.1,0-.9.8-.9,2.2,0,3.1Zm-10.5,0c.9.9,2.3.9,3.1,0c.9-.9.9-2.3,0-3.1-.9-.9-2.3-.9-3.1,0-.9.8-.9,2.2,0,3.1Zm-10.5-.1c.9.9,2.3.9,3.1,0c.9-.9.9-2.3,0-3.1-.9-.9-2.3-.9-3.1,0-.9.9-.9,2.3,0,3.1Zm-10,.1c.9.9,2.3.9,3.1,0c.9-.9.9-2.3,0-3.1-.9-.9-2.3-.9-3.1,0-.9.9-.9,2.3,0,3.1Z"
                transform="translate(-188.525253,-358.9)" />
        </g>
        <g id="e6GnlSqRINC16_ts" transform="translate(185.8,311.627272) scale(0,1)">
            <path
                d="M294,360.4c.9.9,2.3.9,3.1,0c.9-.9.9-2.3,0-3.1-.9-.9-2.3-.9-3.1,0-.9.8-.9,2.2,0,3.1Zm-10.6.2c.9.9,2.3.9,3.1,0c.9-.9.9-2.3,0-3.1-.9-.9-2.3-.9-3.1,0s-.8,2.3,0,3.1Zm-10.7-.1c.9.9,2.3.9,3.1,0c.9-.9.9-2.3,0-3.1-.9-.9-2.3-.9-3.1,0-.9.8-.9,2.2,0,3.1Zm-10.5.1c.9.9,2.3.9,3.1,0c.9-.9.9-2.3,0-3.1-.9-.9-2.3-.9-3.1,0-.9.9-.9,2.3,0,3.1Zm-10.6-.1c0,0,2.3.9,3.1,0s.9-2.3,0-3.1c-.9-.9-2.3-.9-3.1,0-.8.8-.8,2.2,0,3.1Zm-10.5.1c.9.9,2.3.9,3.1,0c.9-.9.9-2.3,0-3.1-.9-.9-2.3-.9-3.1,0-.9.8-.9,2.2,0,3.1Zm-10.3-.2c.9.9,2.3.9,3.1,0c.9-.9.9-2.3,0-3.1-.9-.9-2.3-.9-3.1,0s-.8,2.3,0,3.1Zm-10.6.1c.9.9,2.3.9,3.1,0c.9-.9.9-2.3,0-3.1-.9-.9-2.3-.9-3.1,0-.9.8-.9,2.2,0,3.1Zm-10.5,0c.9.9,2.3.9,3.1,0c.9-.9.9-2.3,0-3.1-.9-.9-2.3-.9-3.1,0-.9.8-.9,2.2,0,3.1Zm-10.5-.1c.9.9,2.3.9,3.1,0c.9-.9.9-2.3,0-3.1-.9-.9-2.3-.9-3.1,0-.9.9-.9,2.3,0,3.1Zm-10,.1c.9.9,2.3.9,3.1,0c.9-.9.9-2.3,0-3.1-.9-.9-2.3-.9-3.1,0-.9.9-.9,2.3,0,3.1Z"
                transform="translate(-188.525253,-358.9)" />
        </g>
    </g>
    <g transform="translate(-2.649997-41.000003)">
        <g id="e6GnlSqRINC18_ts" transform="translate(258.699997,364.499985) scale(0,0)">
            <path
                d="M306.6,412.4h-13.7c0-45.3-36.8-82.1-82.1-82.1v-13.7c52.9,0,95.7,42.9,95.8,95.8Z"
                transform="translate(-258.699997,-364.499985)" />
        </g>
        <g id="e6GnlSqRINC19_ts" transform="translate(245.000008,378.199997) scale(0,0)">
            <path
                d="M279.2,412.4h-13.7c0-30.2-24.5-54.7-54.7-54.7v-13.7c37.8,0,68.4,30.6,68.4,68.4Z"
                transform="translate(-245.000008,-378.199997)" />
        </g>
        <g id="e6GnlSqRINC20_ts" transform="translate(231.349998,391.849991) scale(0,0)">
            <path d="M251.9,412.4h-13.7c0-15.1-12.3-27.4-27.4-27.4v-13.7c22.7.1,41,18.4,41.1,41.1Z"
                transform="translate(-231.349998,-391.849991)" />
        </g>
        <g id="e6GnlSqRINC21_ts" transform="translate(272.400002,350.799988) scale(0,0)">
            <path
                d="M334,412.4h-13.7C320.2,352,271.2,303,210.8,302.9v-13.7c68,.1,123.1,55.2,123.2,123.2Z"
                transform="translate(-272.400002,-350.799988)" />
        </g>
        <g id="e6GnlSqRINC22_ts" transform="translate(203.899994,412.399994) scale(0,0)">
            <path
                d="M203.9,432.9c-11.3,0-20.5-9.2-20.5-20.5s9.2-20.5,20.5-20.5s20.5,9.2,20.5,20.5-9.1,20.5-20.5,20.5Zm0-27.3c-3.8,0-6.8,3.1-6.8,6.8s3.1,6.8,6.8,6.8c3.8,0,6.8-3.1,6.8-6.8s-3-6.8-6.8-6.8Z"
                transform="translate(-203.899994,-412.399994)" />
        </g>
    </g>
    <g>
        <g id="e6GnlSqRINC24_ts" transform="translate(194.501175,352.199997) scale(0,0)">
            <g transform="translate(-194.501175,-352.199997)">
                <path
                    d="M242.3,406.8h-95.6c-3.8,0-6.8-3.1-6.8-6.8v-95.6c0-3.8,3.1-6.8,6.8-6.8h95.6c3.8,0,6.8,3.1,6.8,6.8v95.6c.1,3.7-3,6.8-6.8,6.8Zm-88.8-13.7h82v-82h-82v82Z" />
                <path
                    d="M151.5,404.8l-9.7-9.7l41-41c2.7-2.7,7-2.7,9.7,0l15.7,15.7L217,361c2.7-2.7,7-2.7,9.7,0l20.5,20.5-9.7,9.7-15.7-15.7-8.8,8.8c-2.7,2.7-7,2.7-9.7,0l-15.7-15.7-36.1,36.2Z" />
            </g>
        </g>
        <g id="e6GnlSqRINC27_ts" transform="translate(317.5,352.199997) scale(0,0)">
            <g transform="translate(-317.5,-352.199997)">
                <path
                    d="M365.3,406.8h-95.6c-3.8,0-6.8-3.1-6.8-6.8v-95.6c0-3.8,3.1-6.8,6.8-6.8h95.6c3.8,0,6.8,3.1,6.8,6.8v95.6c0,3.7-3,6.8-6.8,6.8Zm-88.8-13.7h82v-82h-82v82Z" />
                <rect width="13.7" height="41" rx="0" ry="0" transform="translate(310.7 331.7)" />
                <rect width="41" height="13.7" rx="0" ry="0" transform="translate(297 345.3)" />
            </g>
        </g>
        <g id="e6GnlSqRINC31_ts" transform="translate(194.501175,475.199997) scale(0,0)">
            <g transform="translate(-194.501175,-475.199997)">
                <path
                    d="M242.3,529.8h-95.6c-3.8,0-6.8-3.1-6.8-6.8v-95.6c0-3.8,3.1-6.8,6.8-6.8h95.6c3.8,0,6.8,3.1,6.8,6.8v95.6c.1,3.7-3,6.8-6.8,6.8Zm-88.8-13.7h82v-82h-82v82Z" />
                <rect width="13.7" height="41" rx="0" ry="0" transform="translate(187.7 454.6)" />
                <rect width="41" height="13.7" rx="0" ry="0" transform="translate(174 468.3)" />
            </g>
        </g>
        <g id="e6GnlSqRINC35_ts" transform="translate(317.5,475.199997) scale(0,0)">
            <g transform="translate(-317.5,-475.199997)">
                <path
                    d="M365.3,529.8h-95.6c-3.8,0-6.8-3.1-6.8-6.8v-95.6c0-3.8,3.1-6.8,6.8-6.8h95.6c3.8,0,6.8,3.1,6.8,6.8v95.6c0,3.7-3,6.8-6.8,6.8Zm-88.8-13.7h82v-82h-82v82Z" />
                <path
                    d="M274.5,527.8l-9.7-9.7l41-41c2.7-2.7,7-2.7,9.7,0l15.7,15.7L340,484c2.7-2.7,7-2.7,9.7,0l20.5,20.5-9.7,9.7-15.7-15.7-8.8,8.8c-2.7,2.7-7,2.7-9.7,0l-15.7-15.7-36.1,36.2Z" />
            </g>
        </g>
        <g>
            <g id="e6GnlSqRINC39_ts" transform="translate(141.8,557.15) scale(0,1)">
                <rect width="41" height="13.7" rx="0" ry="0" transform="translate(-1.9,-6.85)" />
            </g>
            <g id="e6GnlSqRINC40_ts" transform="translate(262.8,557.15) scale(0,1)">
                <rect width="109.3" height="13.7" rx="0" ry="0" transform="translate(0,-6.85)" />
            </g>
            <g id="e6GnlSqRINC41_ts" transform="translate(194.55,557.15) scale(0,1)">
                <rect width="54.7" height="13.7" rx="0" ry="0" transform="translate(-0.05,-6.85)" />
            </g>
        </g>
    </g>
    <g id="e6GnlSqRINC42_ts" transform="translate(258.700004,193.150002) scale(0,0)">
        <g transform="translate(-258.700004,-193.150001)">
            <path
                d="M289.6,167.2l-37.7-21.8c-5.1-2.9-11.1-2.9-16.2,0s-8.1,8.2-8.1,14v43.6c0,5.9,3,11.1,8.1,14.1c2.5,1.5,5.3,2.2,8.1,2.2s5.6-.7,8.1-2.2l37.7-21.8c5.1-2.9,8.1-8.2,8.1-14.1c0-5.8-3-11.1-8.1-14Zm-6.3,17.3l-37.8,21.8c-1.7,1-3.2.3-3.7,0-.6-.3-1.9-1.3-1.9-3.2v-43.6c0-2,1.3-2.9,1.9-3.2.3-.2,1-.5,1.9-.5.6,0,1.2.1,1.9.5l37.8,21.8c1.7,1,1.9,2.6,1.9,3.2-.1.6-.3,2.2-2,3.2Zm6.3-17.3l-37.7-21.8c-5.1-2.9-11.1-2.9-16.2,0s-8.1,8.2-8.1,14v43.6c0,5.9,3,11.1,8.1,14.1c2.5,1.5,5.3,2.2,8.1,2.2s5.6-.7,8.1-2.2l37.7-21.8c5.1-2.9,8.1-8.2,8.1-14.1c0-5.8-3-11.1-8.1-14Zm-6.3,17.3l-37.8,21.8c-1.7,1-3.2.3-3.7,0-.6-.3-1.9-1.3-1.9-3.2v-43.6c0-2,1.3-2.9,1.9-3.2.3-.2,1-.5,1.9-.5.6,0,1.2.1,1.9.5l37.8,21.8c1.7,1,1.9,2.6,1.9,3.2-.1.6-.3,2.2-2,3.2Zm6.3-17.3l-37.7-21.8c-5.1-2.9-11.1-2.9-16.2,0s-8.1,8.2-8.1,14v43.6c0,5.9,3,11.1,8.1,14.1c2.5,1.5,5.3,2.2,8.1,2.2s5.6-.7,8.1-2.2l37.7-21.8c5.1-2.9,8.1-8.2,8.1-14.1c0-5.8-3-11.1-8.1-14Zm-6.3,17.3l-37.8,21.8c-1.7,1-3.2.3-3.7,0-.6-.3-1.9-1.3-1.9-3.2v-43.6c0-2,1.3-2.9,1.9-3.2.3-.2,1-.5,1.9-.5.6,0,1.2.1,1.9.5l37.8,21.8c1.7,1,1.9,2.6,1.9,3.2-.1.6-.3,2.2-2,3.2Zm6.3-17.3l-37.7-21.8c-5.1-2.9-11.1-2.9-16.2,0s-8.1,8.2-8.1,14v43.6c0,5.9,3,11.1,8.1,14.1c2.5,1.5,5.3,2.2,8.1,2.2s5.6-.7,8.1-2.2l37.7-21.8c5.1-2.9,8.1-8.2,8.1-14.1c0-5.8-3-11.1-8.1-14Zm-6.3,17.3l-37.8,21.8c-1.7,1-3.2.3-3.7,0-.6-.3-1.9-1.3-1.9-3.2v-43.6c0-2,1.3-2.9,1.9-3.2.3-.2,1-.5,1.9-.5.6,0,1.2.1,1.9.5l37.8,21.8c1.7,1,1.9,2.6,1.9,3.2-.1.6-.3,2.2-2,3.2Zm6.3-17.3l-37.7-21.8c-5.1-2.9-11.1-2.9-16.2,0s-8.1,8.2-8.1,14v43.6c0,5.9,3,11.1,8.1,14.1c2.5,1.5,5.3,2.2,8.1,2.2s5.6-.7,8.1-2.2l37.7-21.8c5.1-2.9,8.1-8.2,8.1-14.1c0-5.8-3-11.1-8.1-14Zm-6.3,17.3l-37.8,21.8c-1.7,1-3.2.3-3.7,0-.6-.3-1.9-1.3-1.9-3.2v-43.6c0-2,1.3-2.9,1.9-3.2.3-.2,1-.5,1.9-.5.6,0,1.2.1,1.9.5l37.8,21.8c1.7,1,1.9,2.6,1.9,3.2-.1.6-.3,2.2-2,3.2Zm6.3-17.3l-37.7-21.8c-5.1-2.9-11.1-2.9-16.2,0s-8.1,8.2-8.1,14v43.6c0,5.9,3,11.1,8.1,14.1c2.5,1.5,5.3,2.2,8.1,2.2s5.6-.7,8.1-2.2l37.7-21.8c5.1-2.9,8.1-8.2,8.1-14.1c0-5.8-3-11.1-8.1-14Zm-6.3,17.3l-37.8,21.8c-1.7,1-3.2.3-3.7,0-.6-.3-1.9-1.3-1.9-3.2v-43.6c0-2,1.3-2.9,1.9-3.2.3-.2,1-.5,1.9-.5.6,0,1.2.1,1.9.5l37.8,21.8c1.7,1,1.9,2.6,1.9,3.2-.1.6-.3,2.2-2,3.2Zm6.3-17.3l-37.7-21.8c-5.1-2.9-11.1-2.9-16.2,0s-8.1,8.2-8.1,14v43.6c0,5.9,3,11.1,8.1,14.1c2.5,1.5,5.3,2.2,8.1,2.2s5.6-.7,8.1-2.2l37.7-21.8c5.1-2.9,8.1-8.2,8.1-14.1c0-5.8-3-11.1-8.1-14Zm-6.3,17.3l-37.8,21.8c-1.7,1-3.2.3-3.7,0-.6-.3-1.9-1.3-1.9-3.2v-43.6c0-2,1.3-2.9,1.9-3.2.3-.2,1-.5,1.9-.5.6,0,1.2.1,1.9.5l37.8,21.8c1.7,1,1.9,2.6,1.9,3.2-.1.6-.3,2.2-2,3.2Zm58.6-76.2h-166.4c-15.4,0-27.8,12.5-27.8,27.9v114c0,15.4,12.5,27.8,27.8,27.8h166.4c15.4,0,27.8-12.5,27.8-27.8v-114c0-15.4-12.4-27.9-27.8-27.9Zm15.4,141.9c0,8.5-6.9,15.4-15.4,15.4h-166.4c-8.5,0-15.4-6.9-15.4-15.4v-114c0-8.5,6.9-15.4,15.4-15.4h166.4c8.5,0,15.4,6.9,15.4,15.4v114Zm-67.7-83l-37.7-21.8c-5.1-2.9-11.1-2.9-16.2,0s-8.1,8.2-8.1,14v43.6c0,5.9,3,11.1,8.1,14.1c2.5,1.5,5.3,2.2,8.1,2.2s5.6-.7,8.1-2.2l37.7-21.8c5.1-2.9,8.1-8.2,8.1-14.1c0-5.8-3-11.1-8.1-14Zm-6.3,17.3l-37.8,21.8c-1.7,1-3.2.3-3.7,0-.6-.3-1.9-1.3-1.9-3.2v-43.6c0-2,1.3-2.9,1.9-3.2.3-.2,1-.5,1.9-.5.6,0,1.2.1,1.9.5l37.8,21.8c1.7,1,1.9,2.6,1.9,3.2-.1.6-.3,2.2-2,3.2Zm6.3-17.3l-37.7-21.8c-5.1-2.9-11.1-2.9-16.2,0s-8.1,8.2-8.1,14v43.6c0,5.9,3,11.1,8.1,14.1c2.5,1.5,5.3,2.2,8.1,2.2s5.6-.7,8.1-2.2l37.7-21.8c5.1-2.9,8.1-8.2,8.1-14.1c0-5.8-3-11.1-8.1-14Zm-6.3,17.3l-37.8,21.8c-1.7,1-3.2.3-3.7,0-.6-.3-1.9-1.3-1.9-3.2v-43.6c0-2,1.3-2.9,1.9-3.2.3-.2,1-.5,1.9-.5.6,0,1.2.1,1.9.5l37.8,21.8c1.7,1,1.9,2.6,1.9,3.2-.1.6-.3,2.2-2,3.2Zm6.3-17.3l-37.7-21.8c-5.1-2.9-11.1-2.9-16.2,0s-8.1,8.2-8.1,14v43.6c0,5.9,3,11.1,8.1,14.1c2.5,1.5,5.3,2.2,8.1,2.2s5.6-.7,8.1-2.2l37.7-21.8c5.1-2.9,8.1-8.2,8.1-14.1c0-5.8-3-11.1-8.1-14Zm-6.3,17.3l-37.8,21.8c-1.7,1-3.2.3-3.7,0-.6-.3-1.9-1.3-1.9-3.2v-43.6c0-2,1.3-2.9,1.9-3.2.3-.2,1-.5,1.9-.5.6,0,1.2.1,1.9.5l37.8,21.8c1.7,1,1.9,2.6,1.9,3.2-.1.6-.3,2.2-2,3.2Zm6.3-17.3l-37.7-21.8c-5.1-2.9-11.1-2.9-16.2,0s-8.1,8.2-8.1,14v43.6c0,5.9,3,11.1,8.1,14.1c2.5,1.5,5.3,2.2,8.1,2.2s5.6-.7,8.1-2.2l37.7-21.8c5.1-2.9,8.1-8.2,8.1-14.1c0-5.8-3-11.1-8.1-14Zm-6.3,17.3l-37.8,21.8c-1.7,1-3.2.3-3.7,0-.6-.3-1.9-1.3-1.9-3.2v-43.6c0-2,1.3-2.9,1.9-3.2.3-.2,1-.5,1.9-.5.6,0,1.2.1,1.9.5l37.8,21.8c1.7,1,1.9,2.6,1.9,3.2-.1.6-.3,2.2-2,3.2Zm6.3-17.3l-37.7-21.8c-5.1-2.9-11.1-2.9-16.2,0s-8.1,8.2-8.1,14v43.6c0,5.9,3,11.1,8.1,14.1c2.5,1.5,5.3,2.2,8.1,2.2s5.6-.7,8.1-2.2l37.7-21.8c5.1-2.9,8.1-8.2,8.1-14.1c0-5.8-3-11.1-8.1-14Zm-6.3,17.3l-37.8,21.8c-1.7,1-3.2.3-3.7,0-.6-.3-1.9-1.3-1.9-3.2v-43.6c0-2,1.3-2.9,1.9-3.2.3-.2,1-.5,1.9-.5.6,0,1.2.1,1.9.5l37.8,21.8c1.7,1,1.9,2.6,1.9,3.2-.1.6-.3,2.2-2,3.2Zm6.3-17.3l-37.7-21.8c-5.1-2.9-11.1-2.9-16.2,0s-8.1,8.2-8.1,14v43.6c0,5.9,3,11.1,8.1,14.1c2.5,1.5,5.3,2.2,8.1,2.2s5.6-.7,8.1-2.2l37.7-21.8c5.1-2.9,8.1-8.2,8.1-14.1c0-5.8-3-11.1-8.1-14Zm-6.3,17.3l-37.8,21.8c-1.7,1-3.2.3-3.7,0-.6-.3-1.9-1.3-1.9-3.2v-43.6c0-2,1.3-2.9,1.9-3.2.3-.2,1-.5,1.9-.5.6,0,1.2.1,1.9.5l37.8,21.8c1.7,1,1.9,2.6,1.9,3.2-.1.6-.3,2.2-2,3.2Zm6.3-17.3l-37.7-21.8c-5.1-2.9-11.1-2.9-16.2,0s-8.1,8.2-8.1,14v43.6c0,5.9,3,11.1,8.1,14.1c2.5,1.5,5.3,2.2,8.1,2.2s5.6-.7,8.1-2.2l37.7-21.8c5.1-2.9,8.1-8.2,8.1-14.1c0-5.8-3-11.1-8.1-14Zm-6.3,17.3l-37.8,21.8c-1.7,1-3.2.3-3.7,0-.6-.3-1.9-1.3-1.9-3.2v-43.6c0-2,1.3-2.9,1.9-3.2.3-.2,1-.5,1.9-.5.6,0,1.2.1,1.9.5l37.8,21.8c1.7,1,1.9,2.6,1.9,3.2-.1.6-.3,2.2-2,3.2Zm6.3-17.3l-37.7-21.8c-5.1-2.9-11.1-2.9-16.2,0s-8.1,8.2-8.1,14v43.6c0,5.9,3,11.1,8.1,14.1c2.5,1.5,5.3,2.2,8.1,2.2s5.6-.7,8.1-2.2l37.7-21.8c5.1-2.9,8.1-8.2,8.1-14.1c0-5.8-3-11.1-8.1-14Zm-6.3,17.3l-37.8,21.8c-1.7,1-3.2.3-3.7,0-.6-.3-1.9-1.3-1.9-3.2v-43.6c0-2,1.3-2.9,1.9-3.2.3-.2,1-.5,1.9-.5.6,0,1.2.1,1.9.5l37.8,21.8c1.7,1,1.9,2.6,1.9,3.2-.1.6-.3,2.2-2,3.2Z" />
            <path
                d="M332.3,241.8c0,3.5-2.8,6.2-6.2,6.2h-142.3c-3.4,0-6.2-2.8-6.2-6.2s2.8-6.2,6.2-6.2h142.3c3.4,0,6.2,2.8,6.2,6.2Z" />
            <g id="e6GnlSqRINC45_to" transform="translate(194,241.800003)">
                <circle r="12.7" transform="translate(0,-0.000003)" />
            </g>
        </g>
    </g>
</svg>
    