<svg xmlns="http://www.w3.org/2000/svg" xmlns:xlink="http://www.w3.org/1999/xlink"
  xml:space="preserve" version="1.1"
  style="shape-rendering:geometricPrecision;text-rendering:geometricPrecision;image-rendering:optimizeQuality;"
  viewBox="0 0 333.33 416.66249999999997" x="0px" y="0px" fill-rule="evenodd" clip-rule="evenodd"><defs><style type="text/css">

  </style></defs><g><path class="fil0" d="M170.96 76.34l17.67 29.84 42.57 9.89 -28.42 32.29 3.74 43.55 -39.52 -17.07 -40.22 17 4.02 -42.82 -28.63 -33.02 41.96 -9.41 22.57 -37.46 4.26 7.2zm10.16 36.75l-14.49 -24.48 -16.14 26.76 -29.87 6.7 20.49 23.63 -2.86 30.48 28.83 -12.19 28.06 12.12 -2.68 -31.15 20.22 -22.96 -30.46 -7.08 -1.09 -1.83zm82.29 81.46c-4.38,6.7 -9.44,12.93 -15.08,18.56 -6.54,6.54 -13.86,12.3 -21.81,17.13l9.7 77.15 19.27 -35.66c0.87,-1.6 2.59,-2.67 4.53,-2.62l47.2 1.32 -43.81 -75.89zm-156.62 35.69c-7.95,-4.83 -15.27,-10.59 -21.8,-17.13 -5.64,-5.64 -10.7,-11.86 -15.08,-18.56l-43.81 75.89 47.19 -1.32c1.94,-0.05 3.66,1.02 4.53,2.62l19.28 35.65 9.69 -77.15zm134.47 -173.4c-19.09,-19.09 -45.47,-30.9 -74.6,-30.9 -29.13,0 -55.52,11.81 -74.6,30.9 -19.09,19.09 -30.9,45.47 -30.9,74.6 0,29.13 11.81,55.51 30.9,74.6 19.09,19.09 45.47,30.9 74.6,30.9 29.13,0 55.51,-11.81 74.6,-30.9 19.09,-19.09 30.9,-45.46 30.9,-74.6 0,-29.13 -11.81,-55.52 -30.9,-74.6z"/></g></svg>