<svg id="evRLH7USDtP1" xmlns="http://www.w3.org/2000/svg" xmlns:xlink="http://www.w3.org/1999/xlink" viewBox="0 0 200 202" shape-rendering="geometricPrecision" text-rendering="geometricPrecision">
<g id="evRLH7USDtP2_ts" transform="translate(99.92222,98.450006) scale(0,0)"><g transform="translate(-99.92222,-98.450006)"><path d="M196.3,154v0c0-.3-.1-.4-.1-.6v0c-.1-.1-.2-.3-.3-.4c0,0,0,0,0-.1-.1-.1-.3-.2-.4-.3v0L183,146.1v-106.6c0-4.9-4-8.9-9-8.9h-148.3c-4.9,0-9,4-9,8.9v106.6L4.3,152.5v0c-.2.1-.3.2-.4.3c0,0,0,0,0,.1-.1.1-.2.3-.3.4v0c-.1.2-.1.4-.1.6v.1.1c0,6.1,6,12.2,12.2,12.2h168.5c6.3-.3,12.2-6.1,12.1-12.3.1.1,0,0,0,0ZM25.7,34h148.4c3,0,5.6,2.4,5.6,5.5v106h-159.6v-106c0-3,2.5-5.5,5.6-5.5ZM18.8,149h162l6.7,3.5h-175.4l6.7-3.5Zm101.4,6.8c-.5,1.1-1.7,1.9-3,1.9h-34.7c-1.4,0-2.4-.8-3-1.9h40.7Zm63.9,7.1h-168.4c-3.7,0-7.6-3.4-8.6-7.1h69.3c.7,2.7,3.1,4.9,6,4.9h34.7c2.9,0,5.5-2,6-4.9h69.4c-.7,3.7-4.5,6.9-8.4,7.1Z"/><path d="M25.2,141.3h149.7c1,0,1.8-.8,1.8-1.8v-100c0-1-.8-1.8-1.8-1.8h-149.7c-1,0-1.8.8-1.8,1.8v100.1c.1,1,.8,1.7,1.8,1.7ZM26.9,41.2h146.3v96.7h-146.3v-96.7Z"/></g></g><g><g id="evRLH7USDtP6_ts" transform="translate(39.150001,124.700001) scale(1,0)"><g transform="translate(-39.15,-124.7)"><path d="M44,121.1v-10.3h-9.7v10.3h9.7Zm-4.9-8.3c1.7,0,3,1.4,3,3.1s-1.3,3.1-3,3.1-3-1.4-3-3.1s1.3-3.1,3-3.1Z"/><ellipse rx="4.4" ry="4.5" transform="translate(39.1 98.8)"/><rect width="10.7" height="1.9" rx="0" ry="0" transform="translate(33.8 105.2)"/><rect width="10.7" height="1.9" rx="0" ry="0" transform="translate(33.7 122.8)"/><rect width="10.7" height="1.9" rx="0" ry="0" transform="translate(33.8 87.9)"/><polygon points="34.7,84 38.9,86.6 43.3,84.3 43.5,79.2 39.3,76.6 34.8,78.9"/><rect width="10.7" height="1.9" rx="0" ry="0" transform="translate(33.8 72.2)"/><rect width="10.7" height="1.9" rx="0" ry="0" transform="translate(33.8 55)"/><polygon points="41.6,65.5 43.2,63 40.4,63.8 39.4,61 38.3,63.7 35.5,62.7 36.9,65.3 34.4,66.9 37.2,67.4 36.9,70.4 39.1,68.5 41.1,70.6 41.1,67.6 43.9,67.3"/><path d="M39.1,53.7l4.3-2.6-.1-5L39,43.6l-4.3,2.6.1,5l4.3,2.5Zm0-8.4L42,46.9v3.4L39.1,52l-2.9-1.6v-3.4l2.9-1.7Z"/></g></g><g id="evRLH7USDtP17_ts" transform="translate(29.7,132.05) scale(0,1)"><g transform="translate(-29.7,-132.05)"><path d="M56.3,128.3h-26.6v7.5h26.6v-7.5Zm-1.7,6.5h-23.7v-5.9h23.7v5.9v0Z"/><polygon points="61.9,133.9 63,132.7 64.1,133.9 64.7,133.2 63.6,132.1 64.7,131 64.1,130.3 63,131.5 62,130.3 61.4,131 62.4,132.1 61.4,133.3"/><rect width="12" height="1.8" rx="0" ry="0" transform="translate(67.3 131.2)"/><polygon points="89.6,130.3 88.6,131.5 87.5,130.3 86.9,131 88,132.1 86.9,133.3 87.5,133.9 88.5,132.7 89.6,133.9 90.2,133.2 89.1,132.1 90.2,131"/><path d="M84.5,128.3h-1.1-25.5v7.5h25.5v0h26.6v0h53.4v-7.5h-53.4-25.5Zm.1,6.5v-5.7h23.7v5.7h-23.7Zm-1.8-5.7v5.7h-23.5v-5.7h23.5Zm79.2,0v5.9h-52v-5.9h52Z"/><rect width="12" height="1.8" rx="0" ry="0" transform="translate(92.9 131.2)"/></g></g><g id="evRLH7USDtP24_ts" transform="translate(104.849995,82.05) scale(0,0)"><g transform="translate(-104.849995,-82.049999)"><polygon points="63.9,51.2 62.8,52.3 61.8,51.2 61.2,51.8 62.2,52.9 61.2,54.1 61.7,54.7 62.8,53.5 63.9,54.7 64.5,54.1 63.4,52.9 64.5,51.8"/><path d="M56.8,114.9h96.1v-58.5v0-7.2h-96.1v7.5v0c0,0,0,58.2,0,58.2Zm69-56.7v1.8h-13.7v-1.8h13.7Zm-18.9,0v1.8h-13.7v-1.8h13.7Zm-18.4,0v1.8h-8.5v-1.8h8.5Zm-13.6,0v1.8h-13.7v-1.8h13.7Zm76.7,50.4h-93.6v-46h93.6v46ZM58,50h93.6v5.9h-93.6c0,0,0-5.9,0-5.9Z"/><rect width="2.2" height="8.3" rx="0" ry="0" transform="translate(148 64.7)"/><rect width="3.3" height="1" rx="0" ry="0" transform="translate(66 52.6)"/><path d="M70.9,54.7h3.4v-3.2h-3.4v3.2Zm.5-2.7h2.3v2.2h-2.3v-2.2Z"/></g></g></g><g id="evRLH7USDtP31_ts" transform="translate(100.05,80.099998) scale(0,0)"><g transform="translate(-102.5,-85.599998)"><path d="M102.5,106.5c-11.6,0-20.9-9.4-20.9-20.9s9.4-20.9,20.9-20.9s20.9,9.4,20.9,20.9c0,11.6-9.3,20.9-20.9,20.9Zm0-38.8c-9.9,0-17.9,8-17.9,17.9s8,17.9,17.9,17.9s17.9-8,17.9-17.9v0c0-9.9-8-17.9-17.9-17.9Z"/><path d="M102.5,91.4c-3.2,0-5.8-2.6-5.8-5.8s2.6-5.8,5.8-5.8s5.8,2.6,5.8,5.8-2.6,5.8-5.8,5.8Zm0-8.6c-1.6,0-2.9,1.3-2.9,2.9s1.3,2.9,2.9,2.9s2.9-1.3,2.9-2.9-1.3-2.9-2.9-2.9Z"/><g id="evRLH7USDtP34_tr" transform="translate(102.364818,85.599998) rotate(0)"><path d="M95.2,85.6h-7.7c0-8.3,6.7-15,15-15v7.7c-4,0-7.3,3.3-7.3,7.3Z" transform="translate(-102.364818,-85.599998)"/></g><g id="evRLH7USDtP35_tr" transform="translate(102.9,86) rotate(0)"><path d="M102.9,101v-7.7c4,0,7.3-3.3,7.3-7.3h7.7c0,8.3-6.7,15-15,15Z" transform="translate(-102.9,-86)"/></g></g></g><g id="evRLH7USDtP36_ts" transform="translate(102.599991,83.649998) scale(0,0)"><g transform="translate(-102.599991,-83.649998)"><path d="M118.4,89.1c-1.3,0-2.4,1.1-2.4,2.4v4.3c0,.5-.4.8-.8.8h-25.3c-.5,0-.8-.4-.8-.8v-4.3c0-1.3-1.1-2.4-2.4-2.4s-2.4,1.1-2.4,2.4v4.3c0,3.1,2.5,5.7,5.7,5.7h25.3c3.1,0,5.6-2.5,5.6-5.6v-4.3c-.1-1.4-1.2-2.5-2.5-2.5Z"/><g id="evRLH7USDtP38_to" transform="translate(102.499992,79.999996)"><path d="M100.8,93.5c.5.5,1.1.7,1.7.7v0c.6,0,1.3-.2,1.7-.7l9.9-9.9c.9-.9.9-2.5,0-3.4s-2.5-.9-3.4,0L104.9,86v-17.8c0-1.3-1.1-2.4-2.4-2.4s-2.4,1.1-2.4,2.4v17.8l-5.8-5.8c-.9-.9-2.5-.9-3.4,0s-.9,2.5,0,3.4l9.9,9.9Z" transform="translate(-102.499992,-79.999996)"/></g></g></g><g id="evRLH7USDtP39_ts" transform="translate(102.800003,122.799995) scale(0,0)"><g transform="translate(-102.800003,-122.799995)"><path d="M59,114.7v16.2h87.6v-16.2h-87.6Zm86.4,14.9h-85v-13.6h85c0,0,0,13.6,0,13.6Z" clip-rule="evenodd" fill-rule="evenodd"/><g id="evRLH7USDtP41_ts" transform="translate(65.4,122.950005) scale(0,0)"><rect width="8.4" height="11.3" rx="0" ry="0" transform="translate(-4.2,-5.650005)" clip-rule="evenodd" fill-rule="evenodd"/></g><g id="evRLH7USDtP42_ts" transform="translate(74.799999,122.950005) scale(0,0)"><rect width="8.4" height="11.3" rx="0" ry="0" transform="translate(-4.199999,-5.650005)" clip-rule="evenodd" fill-rule="evenodd"/></g><g id="evRLH7USDtP43_ts" transform="translate(84.200001,122.950005) scale(0,0)"><rect width="8.4" height="11.3" rx="0" ry="0" transform="translate(-4.200001,-5.650005)" clip-rule="evenodd" fill-rule="evenodd"/></g><g id="evRLH7USDtP44_ts" transform="translate(93.700001,122.950005) scale(0,0)"><rect width="8.4" height="11.3" rx="0" ry="0" transform="translate(-4.200001,-5.650005)" clip-rule="evenodd" fill-rule="evenodd"/></g><g id="evRLH7USDtP45_ts" transform="translate(103.100002,122.950005) scale(0,0)"><rect width="8.4" height="11.3" rx="0" ry="0" transform="translate(-4.200002,-5.650005)" clip-rule="evenodd" fill-rule="evenodd"/></g><g id="evRLH7USDtP46_ts" transform="translate(112.399998,122.950005) scale(0,0)"><rect width="8.4" height="11.3" rx="0" ry="0" transform="translate(-4.199998,-5.650005)" clip-rule="evenodd" fill-rule="evenodd"/></g><g id="evRLH7USDtP47_ts" transform="translate(121.799999,122.950005) scale(0,0)"><rect width="8.4" height="11.3" rx="0" ry="0" transform="translate(-4.199999,-5.650005)" clip-rule="evenodd" fill-rule="evenodd"/></g><g id="evRLH7USDtP48_ts" transform="translate(131.299999,122.950005) scale(0,0)"><rect width="8.4" height="11.3" rx="0" ry="0" transform="translate(-4.199999,-5.650005)" clip-rule="evenodd" fill-rule="evenodd"/></g><g id="evRLH7USDtP49_ts" transform="translate(140.699997,122.950005) scale(0,0)"><rect width="8.4" height="11.3" rx="0" ry="0" transform="translate(-4.199997,-5.650005)" clip-rule="evenodd" fill-rule="evenodd"/></g></g></g><g id="evRLH7USDtP50_ts" transform="translate(100.05,89.5) scale(0,0)"><g transform="translate(-102.487499,-91.437498)"><path d="M140.1,81.4c2.2,0,3.9-1.8,3.9-3.9c0-1-.4-2-1.2-2.8L132.4,64.3c-1.5-1.5-4-1.5-5.6,0c0,0,0,0,0,0L116.4,74.7c-1.5,1.5-1.5,4,0,5.6s4,1.5,5.6,0c0,0,0,0,0,0l7.6-7.6l7.6,7.6c.9.7,1.9,1.1,2.9,1.1Z"/><path d="M82.8,80.3c1.5,1.5,4,1.5,5.6,0c1.5-1.5,1.5-4,0-5.6L78,64.3c-1.5-1.5-4-1.5-5.6,0c0,0,0,0,0,0L62.1,74.7c-1.5,1.5-1.5,4,0,5.6c1.5,1.5,4,1.5,5.6,0l7.6-7.6l7.5,7.6Z"/><path d="M82.1,118.5c.7.7,1.7,1.2,2.8,1.2h36.1c1,0,2-.4,2.8-1.2l10-10c1.5-1.5,1.5-4,0-5.6-1.5-1.5-4-1.5-5.6,0l-8.8,8.8h-32.9L76.8,102c-1.5-1.5-4-1.5-5.6,0-1.5,1.5-1.5,4,0,5.6l10.9,10.9Z"/></g></g><g id="evRLH7USDtP54_to" transform="translate(140.762512,93.537498)"><g id="evRLH7USDtP54_ts" transform="scale(0,0)"><path d="M139.4,94l3.9-2.1c.1-.1.2-.2.1-.3c0,0-.1-.1-.1-.1l-13.7-5.2c-.1,0-.2,0-.3.1c0,.1,0,.1,0,.2l5.2,13.7c0,.1.2.2.3.1.1,0,.1-.1.1-.1l2.1-3.9l4.3,4.3c.1.1.2.1.3,0c0,0,0,0,0,0l2.1-2.1c.1-.1.1-.2,0-.3L139.4,94Z" transform="translate(-136.537506,-93.537498)" clip-rule="evenodd" fill-rule="evenodd"/></g></g><g id="evRLH7USDtP55_ts" transform="translate(100.050002,88.900002) scale(0,0)"><g transform="translate(-100.050002,-88.900001)"><path d="M27.4,138.3h145.3c1.1,0,2-.9,2-2v-94.8c0-1.1-.9-2-2-2h-145.3c-1.1,0-2,.9-2,2v94.9c0,1,.9,1.9,2,1.9Zm2-94.8h16.2c0,0,0,0,0,.1c0,.3.1,3,.5,6.7l-7.9,7.9c-.8.8-.8,2.1,0,2.9.4.4.9.6,1.4.6s1-.2,1.4-.6l5.7-5.7c.6,4.6,1.6,9.5,3.1,13.1c0,0,0,0,0,0s0,0,0,0c1.5,3.6.5,6.1-1.1,9.9-1.4,3.4-3.1,7.6-3.1,13.6c0,1.1.9,2,2,2s2-.9,2-2c0-5.2,1.5-8.8,2.8-12c1.1-2.7,2.2-5.3,2.1-8.2c5.3,2,12.2,2.1,13.2,2.1c1.1,0,2-.9,2-2s-.9-2-2-2c-4.2,0-11.8-.9-14.5-3.3-3.1-7.6-3.7-22.2-3.7-23h121.1v90.8h-141.2v-90.9Z"/><path d="M116.2,110.1h-32.3c-1.1,0-2,.9-2,2s.9,2,2,2h18.2v6.1c0,4.5,3.6,8.1,8.1,8.1s8.1-3.6,8.1-8.1v-8.1c-.1-1.1-1-2-2.1-2Zm-6.1,14.1c-2.2,0-4-1.8-4-4v-6.1h8.1v6.1c0,2.2-1.8,4-4.1,4Z"/><path d="M82.5,101.4c.4.4.9.6,1.4.6s1-.2,1.4-.6c.8-.8.8-2.1,0-2.9l-2.6-2.6l2.6-2.6c.8-.8.8-2.1,0-2.9s-2.1-.8-2.9,0L79.8,93l-2.6-2.6c-.8-.8-2.1-.8-2.9,0s-.8,2.1,0,2.9l2.6,2.6-2.6,2.6c-.8.8-.8,2.1,0,2.9.4.4.9.6,1.4.6s1-.2,1.4-.6l2.6-2.6l2.8,2.6Z"/><path d="M125.7,90.5c-.8-.8-2.1-.8-2.9,0l-2.6,2.6-2.6-2.6c-.8-.8-2.1-.8-2.9,0s-.8,2.1,0,2.9l2.6,2.6-2.6,2.6c-.8.8-.8,2.1,0,2.9.4.4.9.6,1.4.6s1-.2,1.4-.6l2.6-2.6l2.6,2.6c.4.4.9.6,1.4.6s1-.2,1.4-.6c.8-.8.8-2.1,0-2.9L122.9,96l2.6-2.6c1-.9,1-2.1.2-2.9Z"/></g></g></svg>
