<svg id="noun-rocket-1011569" xmlns="http://www.w3.org/2000/svg"
    xmlns:xlink="http://www.w3.org/1999/xlink" viewBox="0 0 800 1000"
    shape-rendering="geometricPrecision" text-rendering="geometricPrecision">
    <g id="noun-rocket-1011569-u-wings" transform="translate(.000161 0)">
        <g id="noun-rocket-1011569-u-left-beam">
            <path id="noun-rocket-1011569-s-path1"
                d="M43.428,639.902c-5.119,0-10.236-1.951-14.143-5.857-7.811-7.811-7.811-20.475,0-28.285L144.933,490.114c7.811-7.811,20.475-7.809,28.284,0c7.811,7.811,7.811,20.475,0,28.285L57.57,634.045c-3.905,3.904-9.025,5.857-14.142,5.857Z" />
        </g>
        <g id="noun-rocket-1011569-u-center-beam">
            <path id="noun-rocket-1011569-s-path2"
                d="M69.286,750.715c-5.118,0-10.237-1.953-14.142-5.857-7.811-7.811-7.811-20.475,0-28.285L175.683,596.034c7.812-7.811,20.475-7.811,28.284,0c7.811,7.811,7.811,20.475,0,28.285L83.428,744.857c-3.905,3.905-9.024,5.858-14.142,5.858Z" />
        </g>
        <path id="noun-rocket-1011569-u-rocket-body"
            d="M770.715,29.287c-4.539-4.539-10.977-6.626-17.318-5.604-2.322.374-57.754,9.48-133.296,38.342-44.315,16.931-86.421,37.205-125.146,60.262-48.6,28.936-92.004,62.368-129.006,99.369-62.441,62.441-113.465,141.185-151.653,234.041-3.069,7.465-1.353,16.043,4.354,21.75l37.81,37.811l85.412-85.412c7.813-7.811,20.475-7.811,28.285,0s7.811,20.475,0,28.285l-85.412,85.412l37.809,37.811c3.826,3.824,8.941,5.857,14.146,5.857c2.561,0,5.143-.492,7.604-1.504c92.862-38.191,171.604-89.215,234.042-151.652c37-37.002,70.434-80.406,99.369-129.006c23.057-38.726,43.332-80.83,60.262-125.146c28.861-75.543,37.969-130.974,38.342-133.297c1.019-6.339-1.065-12.781-5.604-17.319ZM590.644,309.921c-13.431,13.432-31.286,20.829-50.278,20.829-.002,0-.004,0-.006,0-18.994-.002-36.852-7.398-50.281-20.828-13.43-13.432-20.826-31.289-20.826-50.283s7.396-36.852,20.828-50.281c13.43-13.432,31.289-20.829,50.283-20.829s36.85,7.396,50.28,20.827c27.725,27.726,27.725,72.839,0,100.565Z" />
        <g id="noun-rocket-1011569-u-right-beam">
            <path id="noun-rocket-1011569-s-path3"
                d="M180.098,776.572c-5.119,0-10.237-1.951-14.143-5.857-7.811-7.811-7.811-20.475,0-28.285L281.603,626.782c7.811-7.809,20.473-7.811,28.283,0s7.811,20.475,0,28.285L194.239,770.715c-3.905,3.904-9.023,5.857-14.141,5.857Z" />
        </g>
        <path id="noun-rocket-1011569-u-left-wing"
            d="M317.792,229.131L217.314,248.692c-3.898.758-7.483,2.662-10.297,5.466L70.177,390.559c-6.233,6.213-7.673,15.769-3.546,23.542c3.516,6.621,10.365,10.623,17.66,10.623c1.266,0,2.549-.121,3.826-.369l117.368-22.85c30.956-65.159,68.569-122.881,112.307-172.374Z" />
        <path id="noun-rocket-1011569-u-right-wing"
            d="M398.494,594.516L375.646,711.883c-1.682,8.639,2.48,17.361,10.254,21.486c2.961,1.572,6.178,2.336,9.371,2.336c5.193,0,10.325-2.021,14.172-5.881L545.842,592.98c2.805-2.813,4.707-6.398,5.467-10.297L570.87,482.208c-49.491,43.737-107.214,81.349-172.376,112.308Z" />
    </g>
</svg>