<?xml version="1.0" encoding="utf-8"?>
<!-- Generator: Adobe Illustrator 27.8.1, SVG Export Plug-In . SVG Version: 6.00 Build 0)  -->
<svg version="1.1" id="Layer_1" xmlns="http://www.w3.org/2000/svg" xmlns:xlink="http://www.w3.org/1999/xlink" x="0px" y="0px"
	 viewBox="0 0 800 800" style="enable-background:new 0 0 800 800;" xml:space="preserve">
<path d="M618.7,310c-5.5-0.8-11-1.6-17.2-3.1V182.4c0-88.5-71.2-159.7-159.7-159.7h-58.7c-87.7,0-159.7,72-159.7,159.7v124.5
	c-5.5,1.6-11,2.3-17.2,3.1c-14.1,1.6-24.3,14.1-24.3,28.2c0,57.9,0,191,0,191c0,110.4,176.2,209.1,231,237.2
	C467.6,738.3,643,639.6,643,529.3c0-0.8,0-133.9,0-191C643,324.1,632,312.4,618.7,310z M448,501.8v66.6c0,15.7-12.5,28.2-28.2,28.2
	h-16.4c-15.7,0-28.2-12.5-28.2-28.2v-66.6c-25.1-13.3-41.5-39.1-41.5-68.9c0-43.1,34.5-77.5,77.5-77.5s77.5,34.5,77.5,77.5
	C489.5,462.7,473.1,488.5,448,501.8z M412,244.3c-38.4,0-76.7,10.2-109.6,31.3c-2.3,1.6-5.5,3.1-8.6,4.7v-97.1
	c0-48.5,39.9-88.5,88.5-88.5H441c48.5,0,88.5,39.9,88.5,88.5v97.1c-3.1-1.6-5.5-3.1-8.6-4.7C488.8,254.4,451.2,244.3,412,244.3z"/>
</svg>
