<svg id="ep3wlPfHjyt1" xmlns="http://www.w3.org/2000/svg" xmlns:xlink="http://www.w3.org/1999/xlink" viewBox="0 0 200 202" shape-rendering="geometricPrecision" text-rendering="geometricPrecision">
<g id="ep3wlPfHjyt2_to" transform="translate(49.55,77.649998)"><g id="ep3wlPfHjyt2_ts" transform="scale(0,0)"><g transform="translate(-49.55,-77.649997)"><path d="M69.5,58.1v-25.3L32.7,47.6v-7.3h-15.3v13.5L5.1,58.6v63.9h88.9v-64.4h-24.5ZM38.9,119.4v-21.4h21.5v21.5h-21.5v-.1Zm52.1,0h-27.6v-24.5h-27.6v24.5h-27.6v-58.7l12.3-4.9v-12.5h9.2v8.8L66.5,37.4v23.8h24.5v58.2Z"/><path d="M65.3,68.3v18.7h18.7v-18.7h-18.7Zm14.9,7.5h-3.7v-3.8h3.7v3.8ZM72.7,72v3.7h-3.7v-3.7h3.7ZM69,79.5h3.7v3.7h-3.7v-3.7Zm7.5,3.8v-3.7h3.7v3.7h-3.7Z"/><path d="M17.4,70.4v15.3h15.3v-15.3h-15.3Zm12.3,6.1h-3.1v-3.1h3.1v3.1Zm-6.2-3.1v3.1h-3.1v-3.1h3.1Zm-3,6.2h3.1v3.1h-3.1v-3.1Zm6.1,3v-3.1h3.1v3.1h-3.1Z"/></g></g></g><g transform="translate(0 0.000001)"><g id="ep3wlPfHjyt7_ts" transform="translate(81.150002,47.249317) scale(0,0)"><path d="M87.4,53.5l-4.9-.1c.1-4.1-3.1-7.5-7.2-7.6-.1,0-.2,0-.3,0L74.9,41c6.8-.1,12.4,5.3,12.5,12.1c0,.1,0,.3,0,.4Z" transform="translate(-81.150002,-47.249317)"/></g><g id="ep3wlPfHjyt8_ts" transform="translate(86.551502,41.848498) scale(0,0)"><path d="M98.1,53.4l-4.9-.1c.2-9.8-7.6-17.9-17.3-18.1-.2,0-.5,0-.7,0L75,30.3c6.1-.1,12.1,2.3,16.4,6.6c4.4,4.4,6.8,10.3,6.7,16.5Z" transform="translate(-86.551502,-41.848498)"/></g><g id="ep3wlPfHjyt9_ts" transform="translate(91.899998,36.39596) scale(0,0)"><path d="M108.7,53.2l-4.9-.1c.3-15.5-12-28.3-27.4-28.6-.4,0-.8,0-1.2,0l-.1-4.9c18.2-.4,33.2,14.1,33.6,32.3c0,.5,0,.9,0,1.3Z" transform="translate(-91.899998,-36.39596)"/></g><g id="ep3wlPfHjyt10_ts" transform="translate(75.099998,53.199999) scale(0,0)"><circle r="1.9" transform="translate(0.000002,0.000001)"/></g></g><g id="ep3wlPfHjyt11_ts" transform="translate(172.600006,90.35) scale(0,0)"><g transform="translate(-172.600006,-90.35)"><g><path d="M155.8,63.2c0-2.5,2-4.5,4.5-4.5h24.6c2.5,0,4.5,2,4.5,4.5v54.3c0,2.5-2,4.5-4.5,4.5h-24.6c-2.5,0-4.5-2-4.5-4.5v-54.3Zm1.9,0v54.3c0,1.4,1.2,2.6,2.6,2.6h24.6c1.4,0,2.6-1.2,2.6-2.6v-54.3c0-1.4-1.2-2.6-2.6-2.6h-4.5c-.4,0-.8.2-1,.6l-1.3,2.1c-.2.3-.6.6-1,.6h-9.1c-.4,0-.8-.2-1-.6l-1.3-2.1c-.2-.3-.6-.6-1-.6h-4.5c-1.3,0-2.5,1.2-2.5,2.6Z" clip-rule="evenodd" fill-rule="evenodd"/></g></g></g><g id="ep3wlPfHjyt14_to" transform="translate(157.168271,122.499982)"><g id="ep3wlPfHjyt14_ts" transform="scale(0,1)"><g transform="translate(-113.801785,-158.399982)"><path d="M108.1,146.5c2.1,0,3.9-1.3,4.6-3.3.1-.4,0-.8-.3-1.1l-6.2-4.3c-.3-.2-.8-.2-1.1,0-2.1,1.7-2.4,4.8-.6,6.9.7,1.1,2.1,1.8,3.6,1.8v0Zm-2.4-6.7l4.9,3.4c-.9,1.4-2.7,1.9-4.2,1-.9-.6-1.4-1.5-1.4-2.6c0-.7.2-1.3.7-1.8Zm14,6.7c2.7,0,4.9-2.2,4.8-4.9c0-1.4-.7-2.8-1.8-3.7-.3-.3-.8-.3-1.1,0l-6.2,4.3c-.3.2-.5.7-.3,1.1.7,1.8,2.5,3.2,4.6,3.2Zm2.4-6.7c.4.5.6,1.2.6,1.8c0,1.7-1.3,3-3,3-1.1,0-2-.5-2.6-1.4l5-3.4Zm-12.3,10c-.5.8-.5,1.7,0,2.5l2,3.4c.7,1.2,2.2,1.6,3.4.9.4-.2.7-.5.9-.9l2-3.4c.7-1.2.3-2.7-.9-3.4-.4-.2-.8-.3-1.2-.3h-3.9c-1.1,0-1.9.4-2.3,1.2Zm6.6.9c.1.2.1.4,0,.6l-2,3.4c-.2.3-.6.4-.9.2-.1,0-.1-.1-.2-.2l-1.9-3.4c-.2-.3,0-.7.3-.8.1,0,.1-.1.2-.1h3.9c.3,0,.5.1.6.3v0Zm16.8-.8l-4.5-1.1v-6.6c0-8.2-6.7-14.9-14.9-14.9-.2,0-.4,0-.6,0-7.9.3-14.3,7.1-14.3,15.2v6.2l-4.5,1.1c-2.7.7-4.6,3.1-4.6,5.9v16c0,2.7,1.7,5,4.2,5.8l3.2,1v8.2c0,1.5,1.2,2.8,2.8,2.8h27.5c1.5,0,2.8-1.2,2.8-2.8v-8.4l3.1-.9c2.6-.8,4.3-3.2,4.4-5.9v-15.9c.1-2.6-1.9-5.1-4.6-5.7v0Zm-32.3-7.4c0-7.1,5.6-13.1,12.5-13.3h.5c7.2,0,13,5.8,13,13v10.5c0,.8-.5,1.5-1.2,1.7l-.7.2c-1.5.5-2.5,1.9-2.5,3.5c0,1-.8,1.8-1.8,1.8c0,0,0,0,0,0h-13.4c-1,0-1.8-.8-1.8-1.8c0-1.6-1-3-2.5-3.5l-.7-.2c-.7-.3-1.2-1-1.2-1.7v-10.2h-.2Zm26.7,45.2h-27.5c-.5,0-.9-.4-.9-.9v0-1.5h29.3v1.5c.1.5-.4.9-.9.9c0,0,0,0,0,0v0Zm-27.5-18.5h27.5c.5,0,.9.4.9.9v13.3h-29.3v-13.3c0-.5.4-.9.9-.9Zm35.9,2.5c0,1.9-1.2,3.5-3,4.1l-2.6.8v-6.4c0-1.5-1.2-2.7-2.6-2.8v-5h-1.8v5h-24.1v-5h-1.9v5c-1.5.1-2.6,1.3-2.6,2.8v6.5l-2.6-.8c-1.8-.6-3-2.2-3-4.1v-16c0-1.9,1.3-3.6,3.2-4.1l4-1v2c0,1.6,1,3,2.5,3.5l.7.2c.7.3,1.2,1,1.2,1.8c0,2,1.7,3.7,3.7,3.7h13.4c2,0,3.7-1.7,3.7-3.7c0-.8.5-1.5,1.2-1.7l.7-.2c1.5-.5,2.5-1.9,2.5-3.5v-1.9l4,1c1.9.5,3.3,2.2,3.3,4.1v15.7h.1Zm-34.8,7.2l2.3-2.5-2.3-2.5l1.4-1.2l2.2,2.5l2.2-2.5l1.4,1.2-2.3,2.5l2.3,2.5-1.4,1.2-2.2-2.4-2.2,2.4-1.4-1.2Zm9.1,0l2.4-2.5-2.3-2.5l1.4-1.2l2.2,2.5l2.2-2.5l1.4,1.2-2.4,2.5l2.3,2.5-1.4,1.2-2.2-2.4-2.2,2.4-1.4-1.2Zm9.1,0l2.3-2.5-2.3-2.5l1.4-1.2l2.2,2.5l2.2-2.5l1.4,1.2-2.3,2.5l2.3,2.5-1.4,1.2-2.2-2.4-2.2,2.4-1.4-1.2Z"/></g></g></g><g id="ep3wlPfHjyt16_ts" transform="translate(157.168275,41.422727) scale(0,0)"><g transform="translate(-125.550011,-90.337502)"><g><g><path d="M145.8,110.5h-40.5c-.7,0-1.3-.4-1.7-.9-.4-.6-.4-1.3,0-1.8L123.9,71c.7-1.1,2.6-1.1,3.3,0l20.3,36.8c.4.6.4,1.3,0,1.8s-.9.9-1.7.9Zm-37.3-3.7h34.3L125.7,75.7l-17.2,31.1Z"/></g></g><g><g><path d="M125.6,97.6c-1.1,0-1.8-.7-1.8-1.8v-9.2c0-1.1.7-1.8,1.8-1.8s1.8.7,1.8,1.8v9.2c0,1-.7,1.8-1.8,1.8Z"/></g></g><g><g><circle r="1.8" transform="translate(125.6 101.3)"/></g><g><path d="M125.6,104c-1.5,0-2.8-1.3-2.8-2.8s1.3-2.8,2.8-2.8s2.8,1.3,2.8,2.8c-.1,1.5-1.3,2.8-2.8,2.8Zm0-3.7c-.6,0-.9.4-.9.9c0,.6.4.9.9.9.6,0,.9-.4.9-.9s-.4-.9-.9-.9Z"/></g></g></g></g><g id="ep3wlPfHjyt28_ts" transform="translate(92.8,62.1) scale(0,1)"><g transform="translate(-92.799999,-62.1)"><g id="ep3wlPfHjyt29_tr" transform="translate(106.2,69.1) rotate(0)"><g transform="translate(-106.2,-69.1)"><path d="M141.7,53c0-.1-.1-.3-.1-.4c0,0,0-.1,0-.1s0,0-.1-.1-.2-.2-.3-.3-.2-.1-.3-.2c-.1,0-.1-.1-.1-.1l-27.3-7.9c-.4-.1-.7-.1-1.1.1-.3.2-.6.5-.7.8l-2.8,9.6c-.2.7.2,1.5.9,1.7l6.4,1.9v0l3,.9v0l8.2,2.4c.1,0,.3.1.4.1.2,0,.5-.1.7-.2l1.5-.8c.7.7,1.5,1.2,2.4,1.5.5.1,1,.2,1.6.2.9,0,1.8-.2,2.6-.7c1.3-.7,2.2-1.9,2.6-3.3.3-.9.3-1.9,0-2.8l1.6-.9c.2-.1.3-.2.4-.4.1-.1.2-.3.2-.4c0,0,0,0,0-.1c0,0,0,0,0,0c.3-.2.4-.4.3-.5Zm-11.8,4.3v0c0,0,0,0,0,0l-2,1.1-8.3-2.4c0,0,0,0-.1,0l-7.4-2.2l2-6.9l22.7,6.6-6.9,3.8Zm6.9,0c-.2.7-.7,1.3-1.3,1.6s-1.4.4-2.1.2c-.2-.1-.3-.2-.5-.3l4-2.2c0,.2-.1.4-.1.7Z"/><path d="M116.4,57.9L106.2,68.2l3,.9l10.2-10.3-3-.9Z"/></g></g><path d="M106.2,73c-.7,0-1.4-.6-1.4-1.4c0-.7.6-1.4,1.4-1.4.4,0,.7.1.9.4c0,0,0,0,0,0s0,0,0,0c.2.2.4.6.4.9c0,.9-.6,1.5-1.3,1.5Zm1.7-5.1c-.5-.3-1.1-.4-1.7-.4-1.8,0-3.3,1.1-3.9,2.7h-6.7v-3c0-.8-.6-1.4-1.4-1.4s-1.4.6-1.4,1.4v8.8c0,.8.6,1.4,1.4,1.4s1.4-.6,1.4-1.4v-3h6.7c.6,1.6,2.1,2.7,3.9,2.7c2.2,0,4.1-1.9,4.1-4.1c0-1.5-.9-2.9-2.4-3.7Z"/></g></g><g id="ep3wlPfHjyt33_ts" transform="translate(100,101.520003) scale(0,0)"><g transform="translate(-64.109871,-156.887497)"><path d="M60.2,164c.2.2.4.3.7.3s.5-.1.7-.3l12.7-12.7c.4-.4.4-1,0-1.4s-1-.4-1.4,0l-12,12-4.6-4.6c-.4-.4-1-.4-1.4,0s-.4,1,0,1.4l5.3,5.3Z"/><path d="M41.6,140.9c0,.3-2.2,28.5,22,40.9.1.1.3.1.5.1s.3,0,.5-.1c24.5-12.9,22-40.6,22-40.9c0-.5-.5-.9-1-.9-8.3-.3-15.3-3-20.8-7.9-.4-.3-.9-.3-1.3,0-5.3,4.6-12.4,7.3-20.8,7.9-.7.1-1.1.4-1.1.9Zm2,1c8.2-.7,15.1-3.3,20.5-7.7c5.6,4.6,12.5,7.2,20.5,7.7.2,4.6-.1,26.8-20.5,37.8-20.3-10.6-20.7-33.1-20.5-37.8Z"/></g></g><g id="ep3wlPfHjyt36_ts" transform="translate(41.584854,101) scale(0,1)"><g transform="translate(-191.100006,-160.5)"><path d="M169.1,156.6c-9.3,0-16.8-7.5-16.8-16.8s7.5-16.8,16.8-16.8s16.8,7.5,16.8,16.8c0,9.2-7.5,16.8-16.8,16.8Zm0-30.3c-7.4,0-13.4,6-13.4,13.4s6,13.4,13.4,13.4s13.4-6,13.4-13.4c.1-7.4-6-13.4-13.4-13.4Z" clip-rule="evenodd" fill-rule="evenodd"/><path d="M189.4,193.9h-20.3c-.9,0-1.7-.7-1.7-1.7v-37.4c0-.9.7-1.7,1.7-1.7s1.7.7,1.7,1.7v35.7h18.6c.9,0,1.7.7,1.7,1.7s-.8,1.7-1.7,1.7Z" clip-rule="evenodd" fill-rule="evenodd"/><path d="M169.2,149.7c-5.4,0-9.7-4.4-9.7-9.7c0-3.4,1.7-6.5,4.6-8.3.8-.5,1.8-.2,2.3.5.5.8.2,1.8-.5,2.3-1.9,1.2-3,3.2-3,5.4c0,3.5,2.9,6.4,6.4,6.4s6.4-2.9,6.4-6.4c0-2.2-1.1-4.2-3-5.4-.8-.5-1-1.5-.5-2.3s1.5-1,2.3-.5c2.9,1.8,4.6,4.9,4.6,8.3-.1,5.4-4.5,9.7-9.9,9.7Zm0-8.2c-.9,0-1.7-.7-1.7-1.7v-10.7c0-.9.7-1.7,1.7-1.7s1.7.7,1.7,1.7v10.7c0,1-.7,1.7-1.7,1.7Z" clip-rule="evenodd" fill-rule="evenodd"/><path d="M169.2,141.5c-.9,0-1.7-.7-1.7-1.7v-10.7c0-.9.7-1.7,1.7-1.7s1.7.7,1.7,1.7v10.7c0,1-.7,1.7-1.7,1.7Z" clip-rule="evenodd" fill-rule="evenodd"/></g></g><g id="ep3wlPfHjyt41_ts" transform="translate(132.63,74.95) scale(0,0)"><g transform="translate(-22,-175.249997)"><path d="M23.7,175.3c-.9,0-1.7-.7-1.7-1.7v-14c0-.9.7-1.7,1.7-1.7h16.4c.9,0,1.7.7,1.7,1.7s-.7,1.7-1.7,1.7h-14.7v12.3c-.1,1-.8,1.7-1.7,1.7Z" clip-rule="evenodd" fill-rule="evenodd"/><path d="M57.8,178.7c-10.7,0-19.4-8.7-19.4-19.4s8.7-19.4,19.4-19.4s19.4,8.7,19.4,19.4-8.7,19.4-19.4,19.4Zm0-35.4c-8.9,0-16.1,7.2-16.1,16.1s7.2,16.1,16.1,16.1s16.1-7.2,16.1-16.1-7.2-16.1-16.1-16.1v0Z" clip-rule="evenodd" fill-rule="evenodd"/><path d="M65.2,171.5h-14.8c-.9,0-1.7-.7-1.7-1.7v-13.4c0-.9.7-1.7,1.7-1.7h14.9c.9,0,1.7.7,1.7,1.7v13.4c-.1,1-.8,1.7-1.8,1.7ZM52,168.2h11.5v-10h-11.5v10Z" clip-rule="evenodd" fill-rule="evenodd"/><path d="M62.1,158.2c-.9,0-1.7-.7-1.7-1.7v-1.8c0-1.2-.4-2.3-1-3.1-.4-.5-1-1-1.7-1-1.5,0-2.7,1.9-2.7,4.2v1.8c0,.9-.7,1.7-1.7,1.7s-1.7-.7-1.7-1.7v-1.8c0-4.2,2.6-7.5,6.1-7.5c1.7,0,3.3.8,4.4,2.4c1.1,1.4,1.6,3.2,1.6,5.1v1.8c.1.8-.6,1.6-1.6,1.6Z" clip-rule="evenodd" fill-rule="evenodd"/><path d="M57.8,166.6c-.9,0-1.7-.7-1.7-1.7v-2.8c0-.9.7-1.7,1.7-1.7s1.7.7,1.7,1.7v2.8c-.1,1-.8,1.7-1.7,1.7Z" clip-rule="evenodd" fill-rule="evenodd"/></g></g><g id="ep3wlPfHjyt47_ts" transform="translate(123.079996,150.701165) scale(0,0)"><g transform="translate(-67.8,-102.6)"><path d="M121.7,143.4c-11.3,0-20.4-9.2-20.4-20.4s9.2-20.4,20.4-20.4s20.4,9.2,20.4,20.4-9.1,20.4-20.4,20.4Zm0-37.5c-9.4,0-17.1,7.7-17.1,17.1s7.7,17.1,17.1,17.1s17.1-7.7,17.1-17.1-7.7-17.1-17.1-17.1Z" clip-rule="evenodd" fill-rule="evenodd"/><path d="M103,125.5h-33.5c-.9,0-1.7-.7-1.7-1.7v-10.1c0-.9.7-1.7,1.7-1.7s1.7.7,1.7,1.7v8.5h31.8c.9,0,1.7.7,1.7,1.7s-.8,1.6-1.7,1.6Z" clip-rule="evenodd" fill-rule="evenodd"/><path d="M131.1,135.1c-.2,0-.4,0-.6-.1-.8-.4-1.3-1.3-1-2.2c2-5.1.8-10.9-3-14.7s-9.6-5-14.7-3c-.8.4-1.8-.1-2.2-1-.4-.8.1-1.8,1-2.2c6.3-2.5,13.5-1,18.3,3.8s6.3,12,3.8,18.3c-.3.8-.9,1.1-1.6,1.1v0Z" clip-rule="evenodd" fill-rule="evenodd"/><path d="M126.1,133.7c-.2,0-.4,0-.6-.1-.8-.4-1.3-1.3-1-2.2c1.3-3.2.5-6.9-1.9-9.3s-6.1-3.2-9.3-1.9c-.8.4-1.8-.1-2.2-1-.4-.8.1-1.8,1-2.2c4.4-1.8,9.5-.7,12.9,2.7s4.4,8.5,2.7,12.9c-.3.7-1,1.1-1.6,1.1v0Z" clip-rule="evenodd" fill-rule="evenodd"/><path d="M121.7,131.5c-.2,0-.4,0-.6-.1-.8-.4-1.3-1.3-1-2.2.5-1.3.2-2.9-.8-3.9s-2.6-1.3-3.9-.8c-.8.4-1.8-.1-2.2-1-.4-.8.1-1.8,1-2.2c2.6-1,5.5-.4,7.5,1.6s2.6,4.9,1.6,7.5c-.3.7-.9,1.1-1.6,1.1v0Z" clip-rule="evenodd" fill-rule="evenodd"/><path d="M114.2,134.9c-1.2,0-2.3-.4-3.2-1.3-1.8-1.8-1.8-4.6,0-6.4s4.6-1.8,6.4,0v0c1.8,1.8,1.8,4.6,0,6.4-.9.9-2,1.3-3.2,1.3Zm0-5.6c-.3,0-.6.1-.8.4-.5.5-.5,1.2,0,1.7s1.2.5,1.7,0s.5-1.2,0-1.7c-.3-.3-.6-.4-.9-.4Z" clip-rule="evenodd" fill-rule="evenodd"/></g></g><g id="ep3wlPfHjyt54_ts" transform="translate(172.600015,72.203752) scale(0,0)"><g transform="translate(-125.550011,-90.337502)"><g><g><path d="M145.8,110.5h-40.5c-.7,0-1.3-.4-1.7-.9-.4-.6-.4-1.3,0-1.8L123.9,71c.7-1.1,2.6-1.1,3.3,0l20.3,36.8c.4.6.4,1.3,0,1.8s-.9.9-1.7.9Zm-37.3-3.7h34.3L125.7,75.7l-17.2,31.1Z"/></g></g><g><g><path d="M125.6,97.6c-1.1,0-1.8-.7-1.8-1.8v-9.2c0-1.1.7-1.8,1.8-1.8s1.8.7,1.8,1.8v9.2c0,1-.7,1.8-1.8,1.8Z"/></g></g><g><g><circle r="1.8" transform="translate(125.6 101.3)"/></g><g><path d="M125.6,104c-1.5,0-2.8-1.3-2.8-2.8s1.3-2.8,2.8-2.8s2.8,1.3,2.8,2.8c-.1,1.5-1.3,2.8-2.8,2.8Zm0-3.7c-.6,0-.9.4-.9.9c0,.6.4.9.9.9.6,0,.9-.4.9-.9s-.4-.9-.9-.9Z"/></g></g></g></g><g id="ep3wlPfHjyt66_ts" transform="translate(172.599991,106.995421) scale(0,1)"><g transform="translate(-113.801785,-158.399982)"><path d="M108.1,146.5c2.1,0,3.9-1.3,4.6-3.3.1-.4,0-.8-.3-1.1l-6.2-4.3c-.3-.2-.8-.2-1.1,0-2.1,1.7-2.4,4.8-.6,6.9.7,1.1,2.1,1.8,3.6,1.8v0Zm-2.4-6.7l4.9,3.4c-.9,1.4-2.7,1.9-4.2,1-.9-.6-1.4-1.5-1.4-2.6c0-.7.2-1.3.7-1.8Zm14,6.7c2.7,0,4.9-2.2,4.8-4.9c0-1.4-.7-2.8-1.8-3.7-.3-.3-.8-.3-1.1,0l-6.2,4.3c-.3.2-.5.7-.3,1.1.7,1.8,2.5,3.2,4.6,3.2Zm2.4-6.7c.4.5.6,1.2.6,1.8c0,1.7-1.3,3-3,3-1.1,0-2-.5-2.6-1.4l5-3.4Zm-12.3,10c-.5.8-.5,1.7,0,2.5l2,3.4c.7,1.2,2.2,1.6,3.4.9.4-.2.7-.5.9-.9l2-3.4c.7-1.2.3-2.7-.9-3.4-.4-.2-.8-.3-1.2-.3h-3.9c-1.1,0-1.9.4-2.3,1.2Zm6.6.9c.1.2.1.4,0,.6l-2,3.4c-.2.3-.6.4-.9.2-.1,0-.1-.1-.2-.2l-1.9-3.4c-.2-.3,0-.7.3-.8.1,0,.1-.1.2-.1h3.9c.3,0,.5.1.6.3v0Zm16.8-.8l-4.5-1.1v-6.6c0-8.2-6.7-14.9-14.9-14.9-.2,0-.4,0-.6,0-7.9.3-14.3,7.1-14.3,15.2v6.2l-4.5,1.1c-2.7.7-4.6,3.1-4.6,5.9v16c0,2.7,1.7,5,4.2,5.8l3.2,1v8.2c0,1.5,1.2,2.8,2.8,2.8h27.5c1.5,0,2.8-1.2,2.8-2.8v-8.4l3.1-.9c2.6-.8,4.3-3.2,4.4-5.9v-15.9c.1-2.6-1.9-5.1-4.6-5.7v0Zm-32.3-7.4c0-7.1,5.6-13.1,12.5-13.3h.5c7.2,0,13,5.8,13,13v10.5c0,.8-.5,1.5-1.2,1.7l-.7.2c-1.5.5-2.5,1.9-2.5,3.5c0,1-.8,1.8-1.8,1.8c0,0,0,0,0,0h-13.4c-1,0-1.8-.8-1.8-1.8c0-1.6-1-3-2.5-3.5l-.7-.2c-.7-.3-1.2-1-1.2-1.7v-10.2h-.2Zm26.7,45.2h-27.5c-.5,0-.9-.4-.9-.9v0-1.5h29.3v1.5c.1.5-.4.9-.9.9c0,0,0,0,0,0v0Zm-27.5-18.5h27.5c.5,0,.9.4.9.9v13.3h-29.3v-13.3c0-.5.4-.9.9-.9Zm35.9,2.5c0,1.9-1.2,3.5-3,4.1l-2.6.8v-6.4c0-1.5-1.2-2.7-2.6-2.8v-5h-1.8v5h-24.1v-5h-1.9v5c-1.5.1-2.6,1.3-2.6,2.8v6.5l-2.6-.8c-1.8-.6-3-2.2-3-4.1v-16c0-1.9,1.3-3.6,3.2-4.1l4-1v2c0,1.6,1,3,2.5,3.5l.7.2c.7.3,1.2,1,1.2,1.8c0,2,1.7,3.7,3.7,3.7h13.4c2,0,3.7-1.7,3.7-3.7c0-.8.5-1.5,1.2-1.7l.7-.2c1.5-.5,2.5-1.9,2.5-3.5v-1.9l4,1c1.9.5,3.3,2.2,3.3,4.1v15.7h.1Zm-34.8,7.2l2.3-2.5-2.3-2.5l1.4-1.2l2.2,2.5l2.2-2.5l1.4,1.2-2.3,2.5l2.3,2.5-1.4,1.2-2.2-2.4-2.2,2.4-1.4-1.2Zm9.1,0l2.4-2.5-2.3-2.5l1.4-1.2l2.2,2.5l2.2-2.5l1.4,1.2-2.4,2.5l2.3,2.5-1.4,1.2-2.2-2.4-2.2,2.4-1.4-1.2Zm9.1,0l2.3-2.5-2.3-2.5l1.4-1.2l2.2,2.5l2.2-2.5l1.4,1.2-2.3,2.5l2.3,2.5-1.4,1.2-2.2-2.4-2.2,2.4-1.4-1.2Z"/></g></g></svg>
