<svg id="solar-system-container" xmlns="http://www.w3.org/2000/svg"
    xmlns:xlink="http://www.w3.org/1999/xlink" viewBox="0 0 900 900"
    shape-rendering="geometricPrecision" text-rendering="geometricPrecision">
    <circle id="solar-mask" cx="449.6" cy="450.5" r="320" />
    <g id="sun-group_tr" transform="translate(450,450) rotate(0)">
        <g id="sun-group" transform="translate(-450,-450)">
            <g id="sun-base-group">
                <!-- <path id="sun-base-beam"
                d="M271,190.7c0,16.7-6.7,31.7-17.7,42.6-10.9,10.9-26,17.7-42.6,17.7-33.3,0-60.3-27-60.3-60.3s27-60.3,60.3-60.3v0v0c33.3,0,60.3,27,60.3,60.3Z"
                    fill="none" stroke-width="18" stroke-dasharray="0,1,0,0,0" /> -->

                <g class="sun_rotate_tr"
                    transform="translate(210.700005,190.699997) rotate(0)">
                    <path id="sun-base"
                        d="M263.7,190.7c0,14.7-5.9,27.9-15.5,37.5c-9.6,9.6-22.9,15.5-37.5,15.5c-29.3,0-53-23.7-53-53
                s23.7-53,53-53C239.9,137.7,263.7,161.4,263.7,190.7z"
                        transform="translate(-210.700005,-190.699997)" />

                </g>
                <g
                    id="sun-orbit_00000159459039756549502920000001921451113386127268_">
                    <g id="solar-system-container-s-g2">
                        <path id="solar-system-container-s-path5"
                            d="M276,144c17.1-9.8,35.1-18.1,53.9-24.9" fill="none"
                            stroke-width="11.8915" stroke-linecap="round" stroke-miterlimit="10" />
                        <path id="solar-system-container-s-path6"
                            d="M351.5,112c12.2-3.6,24.7-6.5,37.4-8.7" fill="none"
                            stroke-width="11.8915" stroke-linecap="round" stroke-miterlimit="10"
                            stroke-dasharray="27.0754,22.6926" />
                        <path id="solar-system-container-s-path7"
                            d="M400.1,101.5c16.3-2.3,33-3.5,49.9-3.5c194.3,0,352,157.7,352,352s-157.7,352-352,352-352-157.7-352-352c0-48,9.6-93.8,27.1-135.5"
                            fill="none" stroke-width="11.8915"
                            stroke-linecap="round" stroke-miterlimit="10"
                            stroke-dasharray="113.464,22.6926,27.0754,22.6926" />
                        <path id="solar-system-container-s-path8"
                            d="M129.6,304.1c8.3-18.1,18-35.4,29.1-51.7" fill="none"
                            stroke-width="11.8915" stroke-linecap="round" stroke-miterlimit="10" />
                    </g>
                </g>
            </g>
            <path id="sun-beam"
                d="M271,190.7c0,16.7-6.7,31.7-17.7,42.6-10.9,10.9-26,17.7-42.6,17.7-33.3,0-60.3-27-60.3-60.3s27-60.3,60.3-60.3v0v0c33.3,0,60.3,27,60.3,60.3Z"
                fill="none" stroke-width="18" stroke-dasharray="0,1,0,0,0" />
            <g class="sun_rotate_tr"
                transform="translate(210.700005,190.699997) rotate(0)">
                <path id="sun"
                    d="M263.7,190.7c0,14.7-5.9,27.9-15.5,37.5c-9.6,9.6-22.9,15.5-37.5,15.5c-29.3,0-53-23.7-53-53
                s23.7-53,53-53C239.9,137.7,263.7,161.4,263.7,190.7z"
                    transform="translate(-210.700005,-190.699997)" />
            </g>
            <g id="sun-orbit">
                <g id="solar-system-container-s-g1">
                    <path id="solar-system-container-s-path1"
                        d="M276,144c17.1-9.8,35.1-18.1,53.9-24.9" fill="none"
                        stroke-width="11.8915" stroke-linecap="round" stroke-miterlimit="10" />
                    <path id="solar-system-container-s-path2"
                        d="M351.5,112c12.2-3.6,24.7-6.5,37.4-8.7" fill="none"
                        stroke-width="11.8915" stroke-linecap="round" stroke-miterlimit="10"
                        stroke-dasharray="27.0754,22.6926" />
                    <path id="solar-system-container-s-path3"
                        d="M400.1,101.5c16.3-2.3,33-3.5,49.9-3.5c194.3,0,352,157.7,352,352s-157.7,352-352,352-352-157.7-352-352c0-48,9.6-93.8,27.1-135.5"
                        fill="none" stroke-width="11.8915" stroke-linecap="round"
                        stroke-miterlimit="10" stroke-dasharray="113.464,22.6926,27.0754,22.6926" />
                    <path id="solar-system-container-s-path4"
                        d="M129.6,304.1c8.3-18.1,18-35.4,29.1-51.7" fill="none"
                        stroke-width="11.8915" stroke-linecap="round" stroke-miterlimit="10" />
                </g>
            </g>
        </g>
    </g>
    <g id="moon-group_tr"
        transform="translate(444.341187,451.501572) rotate(0)">
        <g id="moon-group" transform="translate(-444.341187,-451.501572)">
            <g id="moon-base-group">
                <g id="moon-base-orbit">
                    <g id="solar-system-container-s-g3">
                        <path id="solar-system-container-s-path9"
                            d="M637.5,317.7c1.2,1.7,2.3,3.4,3.5,5.1" fill="none"
                            stroke-width="7.9392" stroke-linecap="round" stroke-miterlimit="10" />
                        <path id="solar-system-container-s-path10"
                            d="M649.1,336.1c11.4,20.2,19.9,42.2,24.9,65.5" fill="none"
                            stroke-width="7.9392" stroke-linecap="round"
                            stroke-miterlimit="10" stroke-dasharray="62.4968,15.6242" />
                        <path id="solar-system-container-s-path11"
                            d="M675.5,409.3c2.7,15,4,30.5,3.8,46.4C677,585.3,569.9,688.8,440.2,686.5s-233.1-109.4-230.8-239.1s109.4-233.1,239.1-230.9c37.9.7,73.5,10.3,104.9,26.7"
                            fill="none" stroke-width="7.9392"
                            stroke-linecap="round" stroke-miterlimit="10"
                            stroke-dasharray="12.1704,15.6242,62.4968,15.6242" />
                        <path id="solar-system-container-s-path12"
                            d="M560.2,247c1.8,1,3.6,2.1,5.3,3.1" fill="none"
                            stroke-width="7.9392" stroke-linecap="round" stroke-miterlimit="10" />
                    </g>
                </g>
                <g class="moon-rotate_tr"
                    transform="translate(603.424866,280.170532) rotate(0)">
                    <path id="moon-base"
                        d="M624.4,306.4c-0.3,0.2-0.5,0.4-0.8,0.6l-0.1,0.1c-1.6,1.2-3.2,2.1-4.8,3
                    c-0.2,0.1-0.4,0.2-0.6,0.3c-0.2,0.1-0.4,0.2-0.6,0.3c-0.1,0.1-0.2,0.2-0.3,0.2c-0.2,0.1-0.3,0.2-0.4,0.2c-1,0.5-2.1,0.9-3.1,1.2
                    c-0.3,0.1-0.6,0.2-0.9,0.3c-0.2,0.1-0.5,0.1-0.7,0.2c-1.5,0.4-3.1,0.7-4.7,0.9h-0.3c-0.7,0.1-1.3,0.2-2,0.2h-3.9
                    c-0.3-0.1-0.5-0.1-0.8-0.1c-0.1,0-0.1,0-0.2,0h-0.1c-0.3,0-0.7-0.1-1-0.1h-0.3c-0.1,0-0.3-0.1-0.4-0.1c-0.2,0-0.5-0.1-0.7-0.1
                    s-0.5-0.1-0.7-0.1s-0.4-0.1-0.6-0.1c-0.2-0.1-0.5-0.1-0.7-0.2c-0.2-0.1-0.5-0.1-0.7-0.2c-0.2-0.1-0.5-0.1-0.7-0.2
                    c-0.1,0-0.2-0.1-0.3-0.1c-0.3-0.1-0.6-0.2-0.9-0.3c0-0.1-0.1-0.1-0.2-0.1h-0.1c-0.3-0.2-0.7-0.3-1-0.4c-0.2,0-0.3-0.1-0.4-0.1
                    c-0.1,0-0.1-0.1-0.2-0.1c-0.2,0-0.4-0.1-0.6-0.2c0,0-0.1-0.1-0.2-0.1c-0.1,0-0.2-0.1-0.3-0.1H590c-0.5-0.2-1-0.5-1.5-0.7
                    c-0.3-0.2-0.6-0.3-0.8-0.4c-0.1,0-0.3-0.1-0.4-0.2c0-0.1-0.1-0.1-0.1-0.1c0-0.1-0.1-0.1-0.1-0.1c-0.1,0-0.1-0.1-0.2-0.1
                    c-0.1,0-0.1,0-0.1,0c-0.3-0.1-0.5-0.3-0.7-0.4c0-0.1-0.1-0.1-0.1-0.1c0-0.1-0.1-0.1-0.2-0.2c-0.4-0.2-0.7-0.5-1.1-0.7
                    c-0.2,0-0.3-0.1-0.4-0.2c-0.2-0.2-0.5-0.3-0.7-0.5c-0.2-0.2-0.3-0.3-0.5-0.4c-0.4-0.2-0.8-0.5-1.1-0.8c-0.1-0.1-0.1-0.1-0.1-0.1
                    c-0.3-0.3-0.6-0.5-0.9-0.8c-0.1,0-0.2-0.1-0.3-0.2c-0.1-0.2-0.3-0.3-0.4-0.4c-0.2-0.1-0.3-0.3-0.5-0.4c-0.4-0.4-0.8-0.9-1.2-1.3
                    c-0.8-0.8-1.5-1.7-2.2-2.6c-11.3-14.9-8.3-36.1,6.6-47.3c6-4.6,13.1-6.8,20.2-6.8c6.2,0,12.4,1.7,17.8,5.1
                    c0.1,0.1,0.3,0.2,0.5,0.3c0.1,0,0.1,0,0.1,0c0.1,0.1,0.2,0.1,0.3,0.2c0.2,0.1,0.3,0.2,0.5,0.3l0.1,0.1c0.1,0.1,0.2,0.1,0.3,0.2
                    c0.1,0.1,0.3,0.2,0.4,0.3c0.2,0.1,0.4,0.2,0.5,0.3c0.1,0,0.2,0.1,0.3,0.2c0.1,0,0.1,0,0.1,0c0.2,0.1,0.3,0.3,0.5,0.4
                    c0.1,0.1,0.1,0.1,0.2,0.2c0.1,0.1,0.3,0.2,0.4,0.3c0.1,0,0.1,0.1,0.2,0.1c0.1,0.1,0.1,0.1,0.2,0.2c0.2,0.1,0.3,0.3,0.5,0.4
                    c0.1,0.1,0.2,0.2,0.3,0.3c0.2,0.1,0.4,0.3,0.6,0.5l0.1,0.1c0.3,0.3,0.6,0.5,0.8,0.8l0.4,0.4l0.5,0.6c0.1,0.1,0.1,0.1,0.2,0.2
                    c0.2,0.1,0.4,0.3,0.5,0.5c0.1,0.2,0.2,0.3,0.3,0.4c0.2,0.3,0.5,0.6,0.7,0.9c0.3,0.4,0.5,0.7,0.7,1
                    C641.4,275.2,638.6,295.1,624.4,306.4z"
                        transform="translate(-603.424866,-280.170532)" clip-rule="evenodd"
                        fill-rule="evenodd" />
                    <path id="moon-base-surface"
                        d="M631.3,265.2l-.5.1c.2.4.3.7.5.8l.1.1.3-.2-.4-.8Zm-9.7-7.1c-1-.2-1.6-1.2-2.5-1.5-.4-.2-3.1-1.2-3.3-1.2-.4,0-.6.6-.9.5-.4-.1-1-.9-1.4-1.1-.7.7-.6,1.4-.6,2.2-1.4,0-1.7-2.1-2.8-2.9-.8.6-.9.9-1.2,1.5.2.3.2.3.4.4.2.7.1.7-.3,1.3.7.8.9,0,1.7,0l.1-.1c.1.7-.6,1.4.2,2.2.6.6,1.9.1,2,1.3.6.7,1,.1,1.6.5.3.2.5.6.8.8c0,0,2.4-1.7,2.4-1.7.3-.1.6.7.9.6c1.2-.2.6-1.5,2.2-.6.4-.3.6-.5.7-.9l.4-.5-.4-.8Zm3.3,25.4c-.4-.8-.4-2.2-.3-3c.1-.2.8-.2,1.4-.5-.4-.6-1.1-.8-1.7-.9-.3-.8.1-1.2.4-1.8-.1-.2-.3-.4-.5-.6-1.2.8-1.3,1.6-1.4,2.6-.9.3-1,0-1.7.9l-.1-.1c-.3-.3,0-.8-.5-1.2-.3-.3-.8-.2-1.2-.6l.3-.4c.2-.3.5-.3.9-.2.2-.1.3-.3.5-.5-.2-.6-.5-1.5-.5-2.1.3-.4.7-.7,1.2-.9l-.1-.1.1-.1c-.7-1.2-2.1-1.9-1.7-3.4-.1-.7.4-1.6.8-2.2.8.8.5,2.4,1.7,2.8l.4.3c.5-.5.5-.7.5-1.2l.7-.5c.2.4.4.7.7,1c.4-.4.3-.4.6-.7-.3-.7-.6-1-1.1-1.1-.3-.9,0-1.4.5-2-.5-.9-2.8-.4-3,.5-.7.3-.8.1-1.3-.3l.6-1.5c-.7-1.1-1.3.1-2.1-.3-.4-.2-.8-1-1.1-1.2-.8.8-.3,1.2-1.1,1.2l-.1.1c.4.8.8,1.4,1.4,1.6.3.6.2.7.2,1.2-2.1,1-1-.8-2.3-1.5-.3.1-.6.1-.8.2-.7-.3-1-1.3-1.8-1.3-1,0-.8,1.5-1.9,1.3-.7.7-.5,1.8-.3,2.8-.3-.1-.7-.5-.9-.7-.5.4-1.3,1.3-1.3,1.9.1.4.8.7.8,1.4.1.7-.5,1.5-.8,2l1,2.2c.4.4,1.3,0,1.7.5.2.3.1.8.4,1.1s2.5,1.9,2.8,1.9c.4,0,.9-.2,1.2-.3l.3.6c-1.2.8-1.8.9-2.7.5-1.1.8-.1,1.2-.4,2.1-.1.4-.7.7-.7,1.1l.6,1.6c-.2.3-1,.8-1.2,1.2l-.3.3c.5.9.9.7,1.7.6.1.2.2.5.3.8-.4.1-.5.1-.8,0-.2.2-.2.2-.3.3c0,0-.2.2,0,.2l.1-.1c.5.4,1-.1,1.4.1.9.5-.2,1.2,1.4,1c.1.3,0,.3,0,.6-.6.6-1,1.5-1.9,1.4-.5.3-.4.4-.7.7c0,.2,0,.1,0,.3.5.8,1,.5,1.5.9.8.6.5,1.1,1.4,1.6c1.9-1.3,2.2-2.8,2.4-4.5.4-.2.8-.4,1.2-.5c0-.3,0-.7-.1-1c.2-.2.4-.4.5-.6.3-.2.4-.2.6-.2.2.1.5,1.5,1.5,1.8.7.3.5-.4,1.1-.5.5-.1.4.4,1.1.2c1.3-.2,1.8-2.3,2-3.2-.5-.7-1-.2-1.9,0l-.2-.4c.5-.3,1.2-.6,1.2-1.3.5-.1.7.1,1.2,0c.2,0,0,0,.3,0c0-.1.1-.3.1-.4-.5-.9-1.2-1.4-1.9-1.5Zm-4.1-23c-.4.1-2.6,1.5-2.8,1.8l-.3.2c.6,1.2.9,1.1,1.7,1.4c1.2-.9,1.2-1.6,1.8-2.6l-.4-.8Zm6.7,15.9c-.5.1-.6.1-.3.5.2,0,.1,0,.3,0v-.5Zm-18.8-22.7c-.6-1-1.3-.9-2.2-.8l-.5-1c-.3.2-.4.3-.6.3-.3-.3-.2-.1-.1-.6l-.3-.6c-.4-.3-.8.4-1.3.5-.4.1-.8-.5-1.2-.4-.8.2-1.5.5-2.2.9-.2-.4-.3-.4-.5-.5-.5-.5-1-.2-1.5-.4l-.3.2c.3.4.2.4.6.4.3.8.2.9-.1,1.5.2.4.4.7.7.8.8.7,1.3-.2,2.2-.2l.1-.1c-.1.2-.1.2-.3.5c1.8,2,1.5.1,3.4,0c1-.3,2.3.8,3.2,1.3.2-.5-.1-1,0-1.5c0-.4.6-.1.9-.1l-.1-.2h.1Zm2.1,9.2c-.7.1-1.5.5-2.1.5l-.2-.3c.3-.5.5-.6.5-1.2c0-.2,0-.1,0-.4-.5-.1-.9.1-1.5,0-.2-.1-.1,0-.3-.2.1-.5.1-.9.2-1.4-.9-1.6-2.2-1.7-3.3-2.4-.9.8-.4,1.4,0,2.4-.2,0-.3.1-.5.1-.8-.6-2.2-2.1-1.8-3.3-.6-.8-.9-.6-1.5-.8-.4.4-.4.2-.3.7-.8.4-1-.3-1.5-.1-.4.4-.8.8-1.2,1.2-.4,0-.7-1.1-1.1-1.3-.6-.4-1.6,0-2.3-.1l-1.1.9c-.1.9-.2,1.6-.2,2.5-.9.6-2,.4-2.7,1.5-1.3,2-1.9,6.4-5.5,5-.8.6-.8,1-1.1,1.7.1.3.4.9.4,1.1s0,.4-.1.7c-.7-.3-1.5-.5-2.1-1c.4-.9,1.2-1.9,1.1-3c1.2-.5,5.5-.5,6-2.7.2-.3.2-.4.3-.7-.6-.9-1-.8-1.6-.6-.7-1.6.4-1.8,1.2-3.1l.3-1.3c-.2-.3-.2-.3-.4-.3-.7-.5-1.2.1-2,.1l-.1.1c-.1-1,1-1.3,1.5-2.1.2-.4.2-1.1.4-1.5s.9-.7,1.1-.7c.5-.5.6-.7.8-1.2-.2-.3-.4-.5-.6-.7-1.2.6-7,4-7.3,5.3l-.2.2.5.8c-.8.9-2.1,1.4-3,2.6-.7,1-1.6,2.3-2.2,3.2l.2.3.7-.2c.8,1.9-1.9,2.9-2.9,4.3-1.6,2.3-1.3,3.7-1.8,6c.5.6.7.5,1.1.5l.2.2c-.1.5-.5,1.2-.5,1.8.1.9.7,1.7.8,2.5c0,.6-.5,1.3-.3,1.9l1.1,1.4c.2.5-.2.9-.1,1.4l.8,1.4c.3.7.1,1.3.2,2c.1.5.5,1,.5,1.5.2.3.5.6.8.8.4-.4.4-.8.4-1.3.1-.1.3-.1.5-.2.4.7.9,1.5.9,2.1.1.2.3.3.5.5.4-.4.3-.7.2-1.2.6-.1,1.2-.2,1.8-.2.4,0,.4,0,.8.5l.2-.1c.1-.7.1-1.7.3-2.4-2.1-3-.2-2.2-.3-4.5c0-.7-.5-1.3-.8-2.1-.2-.6-.1-1.2-.2-1.7l.7-1.1c.7-.8,1.8-.8,2-1.9c1-1.6-.9-2.8-1.1-4.7l-.2-.3c2.1.8,1.9,5.2,1.5,6.3.4.4.3.4.7.4.3.7.3,1.5.2,2.1.2.3.2.3.4.4.7.5,2.5-.2,2.7,1.2l.2.2c.9-.9-.9-6.9,2.1-6.7c1.5-.3,1.4,1.6,3.3.8.3.4.8.9,1.1,1s2.7.1,3.1,0l.1.1c.4-.3.7-.6,1.1-1c1.1-.4,1.7.5,3.4-.7.1-.3.2-.5.2-.9.1-.4-.8-.5-1.1-.7l-1.6-1.9c-.7-.5-1.6-.3-2.2-.9-.2-.1-.3-.3-.5-.6l.6-.4c.6.2,1.4.2,2,.5.8-.5,1.7-1,2.2-2c0-.1,0-.6.1-.7.3-.4.8-.3,1.2-.5c0-.6-.4-1.5-.4-2.1c1.5-.8,1.3.8,2.4,1.4.4.2.8-.1,1.2-.1l1.3.8c1.6-1.1,1.6-1.9,2.2-3.2l-.5-.2Zm-2.8,4.3c-1.1,1.1.5,1.5-.4,2.8.1.2.3.3.4.5.7-.6,1.8-2.4,1.7-3.3-.8.2-1.2.2-1.7,0Zm-11-14.6c-.9-.6-3.4-.4-4.5-.6-.5.5-.5.5-.5,1.1-.6.4-1.1.2-1.7,0-.9.7-1.1,1.2-1.5,1.9.2.4,0,.3.3.5.8.6,1.8.2,2.6.3.6-.7,1.1-1.5,1.4-2.5.4-.2.5-.3.8-.2.2.1.1,0,.3.2l-.1.1.1.2-.6.5.3.5c.9-.2,2-.8,2.8-.7.3-.2.6-.5.8-.9-.3-.3-.3-.3-.5-.4Zm9.7,18.5c-.3.1-.6.3-.8.4.4.6.4.7.9.7l.1.1c.2-.3.2-.3.4-.6-.2-.2-.4-.4-.6-.6Zm3,6.1c-.3-.1-.7-.4-1-.6-.2.1-.3.3-.4.5c0,.3,0,.1,0,.3.2.4.3.6.6.7.1,0,0,0,.1-.1.4,0,.5.2.7.4l.4-.2c-.1-.4-.2-.7-.4-1Zm1.3,2.2c-.3.1-.6.2-.8.5.3.4.3.3.6.5.2-.1.3-.3.4-.4l-.2-.6Zm-3.4-3l-.3-.5c-.2-.1-.3-.1-.5-.2l-.2.3c.2.4.3.6.6.7.2,0,.1,0,.3,0l-.1-.1.2-.2Zm1.2,3.7c.2-1.9-2.1-2-3-3.5-.5.5-.7.7-1.2.5-.7.7-.3.5-.3,1.3l-.6,1.5c.6.8,1.1.4,1.5.9.3.4.2,1,.7,1.2.4,0,.3-.1.6-.4.4.3.9,1,1.3,1.2.2,0,.4,0,.6-.1.2-.8.6-1.7.4-2.6Zm-6.1-1.8c-1.4.1-2.2-.7-3.3-1.9-1.3.5-1.2.9-2.3,1.8.1.6.5,1.7.8,2.3-.3.3-.4.6-.8.5-.5.1-1-.4-1.5-.8-1.3.6-2.2,1.9-3.4,1.3-.3.2-.4.3-.5.5.2.6,1.2.8,1.9,1.7-.1.7-.1,1.5-.4,2.1.9,1.2,1.1.1,2,.5.6.2,1.1.8,1.6,1.1.2,0,.1,0,.3,0c1.2-.8.8-1.5,1.5-2.3c0-.2,0-.1.1-.3.4.3.7.5,1.1.8.2,0,.1,0,.3,0c.5-.4.6-.7.9-1.1l-.2-1.2c-.3-.9-1.3-1.3-1.3-2.2.1-.2,0-.1.2-.3.3.2.6.5.9.6.3,0,.6-.2.9-.1.6-.5,1.2-1.6,1.5-2.2l-.3-.8Zm2,6.5l-.4-.7c-.4.3-.4.3-.4.6-.3.2-.5.3-.7.2-.3-.1-.6-.5-.8-.8-.1,0-.1,0-.2,0-.8.7-.7,1.5-1.5,2.3.4.4.8.4.7,1c.3.4.1.3.5.3.3,0,.4-.2.4-.6.9-.4,1.6-.2,2.3-.4-.2-.9-.3-1.1.1-1.9Zm-.9,7.9c-.3-.1-.5-.2-.8-.3l-.3.3.4.6c0,.4-.3.4-.2.9l.1-.1.1.1c.5-.3.7-.5,1-.9l-.3-.6Zm-1.9-1.6c-.5,0-.7,0-.9.6-.3.1-.2.1-.5,0-.3-.2-.2-.5-.5-1-.5.3-.5.4-.8,1c.5.8.9.9,1.4,1.3.5-.2.9-.3,1-.8.3-.4.4-.7.3-1.1Zm-10.8-10.8l-.6.1c0,.2-.1.3-.2.5.1.2.3.3.4.4.3-.2.4-.3.5-.5c0-.3,0-.2-.1-.5Zm6.7,14.4c.3-.4.4-.9.7-1.3c0-.2,0-.1,0-.3-.5-.5-.8-.2-1.3-.6-.3-.1-.7-.8-.7-1.1l-.1-.2.3-.2c.2.4.1.5.4.7l.1.2.5-.5c-.4-.8-1.5-1.9-1.5-2.8-.8-1.4-.7-.7-1.6-1.1l-.4.1c0,.2,0,.2-.1.4c0,.2.2.6.2.8c0,.6-.4.6-.8,1c.2.9.4,1.7.9,2.6l-.1.1.1.1c-.7,0-1,.4-1.4.4-.1-.2.2-1.1,0-1.8l-.4.1c-.1.6-.4,1.1-.4,1.7-.3.1-.3.2-.5.2-.1,0-.3-.2-.4-.2-.3-.5-.3-.6-.4-1c1-.6,1.2-.7,1.6-1.5-.4-.6-1.1-1.6-1.6-1.7-.4-.8.1-.7,0-1.4c0-.4-.3-.6-.3-1c0-.1,0-.1,0-.2.2.1.5.5.7.6.2,0,.4.1.5.1l.5-.4c.2-1.2.7-2.6-1-3.4-.2.2-.2.2-.2.3-.2.4-.1,1,0,1.4h-.5l-.2-.4c-.4.3-.6.5-.9.3-.1.2-.1.1-.1.3c0,.4.4,1,.5,1.4l.1.4c-1.6.9-2.6,1.3-2.5,3.2c0,.3.4.5.4.8.1.6-.3.7.2,1.4.3-.3.3-.3.3-.7.3,0,.3.1.5.1s.3-.2.6-.4c.4,1.1-.7,2.2-1.1,3.1l.2.3c.6-.4.8-.3,1.2-.3.6.9.2,1.3.2,2l-.1.1c-.2-.4-.3-.7-.3-1-.2-.2-.3-.4-.5-.6l-.2.3c.2.6,1.1,2.2,1.1,2.8l.9,1.2.1-.1c-.1-.4-.3-1-.3-1.5l-.1-.2.1-.1c.3.5.6,1.1.6,1.5l.6.9c.1-.2.1-.5,0-.8l.2-.1c.1.1.3.2.4.4.2-.2.4-.3.5-.5.4.1.9.2,1.3.2.1.2.2.3.2.5.3,0,.6-.1.8-.1.2.1.1.1.3.4l.1-.1.1.1c.9-.6.6-1.1,1.7-1.8-.4-.6-1-.8-1.6-.8-.3-.7.1-.6.3-1.1c0-.2.1-.1-.2-.2c0-.6,1.1-.2,1.8-1Zm-7.5,5.2v0h-.2c-.4-.1-1,0-1.4,0-.2-.3-.3-.5-.3-.7c0-.5.4-.3.4-.9.2.1.4.2.7.3l.1.1.1-.1-.1-.1c.1-.3.1-.3,0-.6c0-.4-.3-1-.7-1-.2-.5,0-.8.2-1.2-.5-.6-.7-.4-1.2-.8-.3-.2-.2-.5-.4-1-.7.6-.2.4-.1,1.2c0,.1-.2,1.1-.2,1.4.1.1.2.3.4.4l.4-.3c.3.6.2.8.6,1.4l-.1.1.1.1c-.5.2-.7.2-1.1.1-.4.3-.9.9-1.1,1.1l-.2.1c.2.4.3.8.7,1s.4.2.6-.1c.5.4.7,1,1.1,1.2.2,0,0,0,.3,0-.1-.3-.5-1-.6-1.4l-.1-.1.2-.1.7,1.2c.3-.2.2,0,.3-.2.2-.3.1-.2,0-.6.3-.2.6-.2.9-.5v0Zm5.3,5.4c-.1.3-.1.5-.4.8-.5-.1-.6,0-1-.5l-.2.1c.2.2.3.4.4.4.3.4.4.3.8.5.5-.3.6-.5.8-.9l-.4-.4Zm2.6,5.1l-.1-.2-.4.2.3.5c.2,0,.3.1.5.1l.1.1.1-.1c0-.1,0-.2.1-.3-.2-.1-.4-.2-.6-.3Zm-11.6-14.3c-.3-.2-.6-.3-.9-.3-.5-.9-.2-1.6.1-2.4c0-.3-.1-.6-.4-.7l-.4-.5c-.2.3-.2.3-.2.6-.2.1-.2.1-.4.1-.3-.2-.3-.7-.5-1.1l-.1.1-.1-.1-.1.1c0,.4-.2.8-.2,1.2-.5.1-.8-.3-1.3-.6-.4.4-.1.7-.3,1-.2.1-.4.2-.7.3l-.1.2.5.9c0,.2-.4.3-.3.5.1.4.7.9.8,1.2l.6.8c.2-.3.2-.1.1-.5.6,0,.7.9,1.2,1.2.2,0,.1,0,.4-.2l.4.5c.5-.4.5-.4,1-.5-.1-.4-.2-.7-.3-1c.2-.1.2-.1.4-.1.4.1.8.4,1.1.9l.3-.2c-.3-.4-.8-.9-.6-1.4Zm9.7,12.8c-.1.1-.2.2-.3.3.2.2.2.2.3.2l.1.1c.2-.2.2-.2.2-.5-.2,0-.1,0-.3-.1Zm-22.4-27.1c-1.1.4-.4,1.9-.3,3l.1.1c.8-.8.7-2.1.2-3.1Zm-.9-.5c0-.2,0-.1-.1-.3l-.1.1-.1-.1-.2.1c0,.2,0,.1-.1.3l.4.8c.4-.4.4-.4.2-.9ZM584.2,300c-.4-.1-.5-.3-.8-.7l-.7.2c.1.4.4,1,.5,1.3l1,.4c.4-.4.3-.7,0-1.2Zm-9-10.5c-.5,0-.4,0-.6.4.2.3.3.4.5.5l.1.1c.2-.3.1-.4.2-.7l-.2-.3Zm9.9,13.8c-.2,0-.5-.1-.7-.2-.6.4-.3.7-.3,1.2.5.6.9.8,1.4,1.1l.4-.2c-.5-.8-.4-1.3-.8-1.9Zm-3.3-2.9c-.3.2-.3.1,0,.6l.2-.1c0-.2-.1-.4-.2-.5Zm-2.2-2.1l-.3-.4c-.3.1-.2.1-.4.2.2.2.2.3.4.3s0,0,.3,0v-.1v0Zm2.5,3.7c-.2-.1-.1,0-.2-.1-.3.3-.3.1-.1.5c0,.2,0,.1.1.3.1,0,.2,0,.3.1l.1.1c.2-.2.1-.2.2-.4l-.4-.5Zm-2.3-1.8c-.1,0-.3-.1-.4-.2l-.2.3c.3.3.3.2.6.4c0-.3,0-.2,0-.5Z"
                        clip-rule="evenodd" transform="translate(-603.424866,-280.170532)"
                        fill-rule="evenodd" />
                </g>

            </g>
            <g id="moon-phase-4">
                <g class="moon-rotate_tr"
                    transform="translate(603.424866,280.170532) rotate(0)">
                    <path id="full-moon"
                        d="M624.4,306.4c-0.3,0.2-0.5,0.4-0.8,0.6l-0.1,0.1c-1.6,1.2-3.2,2.1-4.8,3
                    c-0.2,0.1-0.4,0.2-0.6,0.3c-0.2,0.1-0.4,0.2-0.6,0.3c-0.1,0.1-0.2,0.2-0.3,0.2c-0.2,0.1-0.3,0.2-0.4,0.2c-1,0.5-2.1,0.9-3.1,1.2
                    c-0.3,0.1-0.6,0.2-0.9,0.3c-0.2,0.1-0.5,0.1-0.7,0.2c-1.5,0.4-3.1,0.7-4.7,0.9h-0.3c-0.7,0.1-1.3,0.2-2,0.2h-3.9
                    c-0.3-0.1-0.5-0.1-0.8-0.1c-0.1,0-0.1,0-0.2,0h-0.1c-0.3,0-0.7-0.1-1-0.1h-0.3c-0.1,0-0.3-0.1-0.4-0.1c-0.2,0-0.5-0.1-0.7-0.1
                    s-0.5-0.1-0.7-0.1s-0.4-0.1-0.6-0.1c-0.2-0.1-0.5-0.1-0.7-0.2c-0.2-0.1-0.5-0.1-0.7-0.2c-0.2-0.1-0.5-0.1-0.7-0.2
                    c-0.1,0-0.2-0.1-0.3-0.1c-0.3-0.1-0.6-0.2-0.9-0.3c0-0.1-0.1-0.1-0.2-0.1h-0.1c-0.3-0.2-0.7-0.3-1-0.4c-0.2,0-0.3-0.1-0.4-0.1
                    c-0.1,0-0.1-0.1-0.2-0.1c-0.2,0-0.4-0.1-0.6-0.2c0,0-0.1-0.1-0.2-0.1c-0.1,0-0.2-0.1-0.3-0.1H590c-0.5-0.2-1-0.5-1.5-0.7
                    c-0.3-0.2-0.6-0.3-0.8-0.4c-0.1,0-0.3-0.1-0.4-0.2c0-0.1-0.1-0.1-0.1-0.1c0-0.1-0.1-0.1-0.1-0.1c-0.1,0-0.1-0.1-0.2-0.1
                    c-0.1,0-0.1,0-0.1,0c-0.3-0.1-0.5-0.3-0.7-0.4c0-0.1-0.1-0.1-0.1-0.1c0-0.1-0.1-0.1-0.2-0.2c-0.4-0.2-0.7-0.5-1.1-0.7
                    c-0.2,0-0.3-0.1-0.4-0.2c-0.2-0.2-0.5-0.3-0.7-0.5c-0.2-0.2-0.3-0.3-0.5-0.4c-0.4-0.2-0.8-0.5-1.1-0.8c-0.1-0.1-0.1-0.1-0.1-0.1
                    c-0.3-0.3-0.6-0.5-0.9-0.8c-0.1,0-0.2-0.1-0.3-0.2c-0.1-0.2-0.3-0.3-0.4-0.4c-0.2-0.1-0.3-0.3-0.5-0.4c-0.4-0.4-0.8-0.9-1.2-1.3
                    c-0.8-0.8-1.5-1.7-2.2-2.6c-11.3-14.9-8.3-36.1,6.6-47.3c6-4.6,13.1-6.8,20.2-6.8c6.2,0,12.4,1.7,17.8,5.1
                    c0.1,0.1,0.3,0.2,0.5,0.3c0.1,0,0.1,0,0.1,0c0.1,0.1,0.2,0.1,0.3,0.2c0.2,0.1,0.3,0.2,0.5,0.3l0.1,0.1c0.1,0.1,0.2,0.1,0.3,0.2
                    c0.1,0.1,0.3,0.2,0.4,0.3c0.2,0.1,0.4,0.2,0.5,0.3c0.1,0,0.2,0.1,0.3,0.2c0.1,0,0.1,0,0.1,0c0.2,0.1,0.3,0.3,0.5,0.4
                    c0.1,0.1,0.1,0.1,0.2,0.2c0.1,0.1,0.3,0.2,0.4,0.3c0.1,0,0.1,0.1,0.2,0.1c0.1,0.1,0.1,0.1,0.2,0.2c0.2,0.1,0.3,0.3,0.5,0.4
                    c0.1,0.1,0.2,0.2,0.3,0.3c0.2,0.1,0.4,0.3,0.6,0.5l0.1,0.1c0.3,0.3,0.6,0.5,0.8,0.8l0.4,0.4l0.5,0.6c0.1,0.1,0.1,0.1,0.2,0.2
                    c0.2,0.1,0.4,0.3,0.5,0.5c0.1,0.2,0.2,0.3,0.3,0.4c0.2,0.3,0.5,0.6,0.7,0.9c0.3,0.4,0.5,0.7,0.7,1
                    C641.4,275.2,638.6,295.1,624.4,306.4z"
                        clip-rule="evenodd" transform="translate(-603.424866,-280.170532)"
                        fill-rule="evenodd" />
                    <path id="full-moon-surface"
                        d="M631.3,265.2l-.5.1c.2.4.3.7.5.8l.1.1.3-.2-.4-.8Zm-9.7-7.1c-1-.2-1.6-1.2-2.5-1.5-.4-.2-3.1-1.2-3.3-1.2-.4,0-.6.6-.9.5-.4-.1-1-.9-1.4-1.1-.7.7-.6,1.4-.6,2.2-1.4,0-1.7-2.1-2.8-2.9-.8.6-.9.9-1.2,1.5.2.3.2.3.4.4.2.7.1.7-.3,1.3.7.8.9,0,1.7,0l.1-.1c.1.7-.6,1.4.2,2.2.6.6,1.9.1,2,1.3.6.7,1,.1,1.6.5.3.2.5.6.8.8c0,0,2.4-1.7,2.4-1.7.3-.1.6.7.9.6c1.2-.2.6-1.5,2.2-.6.4-.3.6-.5.7-.9l.4-.5-.4-.8Zm3.3,25.4c-.4-.8-.4-2.2-.3-3c.1-.2.8-.2,1.4-.5-.4-.6-1.1-.8-1.7-.9-.3-.8.1-1.2.4-1.8-.1-.2-.3-.4-.5-.6-1.2.8-1.3,1.6-1.4,2.6-.9.3-1,0-1.7.9l-.1-.1c-.3-.3,0-.8-.5-1.2-.3-.3-.8-.2-1.2-.6l.3-.4c.2-.3.5-.3.9-.2.2-.1.3-.3.5-.5-.2-.6-.5-1.5-.5-2.1.3-.4.7-.7,1.2-.9l-.1-.1.1-.1c-.7-1.2-2.1-1.9-1.7-3.4-.1-.7.4-1.6.8-2.2.8.8.5,2.4,1.7,2.8l.4.3c.5-.5.5-.7.5-1.2l.7-.5c.2.4.4.7.7,1c.4-.4.3-.4.6-.7-.3-.7-.6-1-1.1-1.1-.3-.9,0-1.4.5-2-.5-.9-2.8-.4-3,.5-.7.3-.8.1-1.3-.3l.6-1.5c-.7-1.1-1.3.1-2.1-.3-.4-.2-.8-1-1.1-1.2-.8.8-.3,1.2-1.1,1.2l-.1.1c.4.8.8,1.4,1.4,1.6.3.6.2.7.2,1.2-2.1,1-1-.8-2.3-1.5-.3.1-.6.1-.8.2-.7-.3-1-1.3-1.8-1.3-1,0-.8,1.5-1.9,1.3-.7.7-.5,1.8-.3,2.8-.3-.1-.7-.5-.9-.7-.5.4-1.3,1.3-1.3,1.9.1.4.8.7.8,1.4.1.7-.5,1.5-.8,2l1,2.2c.4.4,1.3,0,1.7.5.2.3.1.8.4,1.1s2.5,1.9,2.8,1.9c.4,0,.9-.2,1.2-.3l.3.6c-1.2.8-1.8.9-2.7.5-1.1.8-.1,1.2-.4,2.1-.1.4-.7.7-.7,1.1l.6,1.6c-.2.3-1,.8-1.2,1.2l-.3.3c.5.9.9.7,1.7.6.1.2.2.5.3.8-.4.1-.5.1-.8,0-.2.2-.2.2-.3.3c0,0-.2.2,0,.2l.1-.1c.5.4,1-.1,1.4.1.9.5-.2,1.2,1.4,1c.1.3,0,.3,0,.6-.6.6-1,1.5-1.9,1.4-.5.3-.4.4-.7.7c0,.2,0,.1,0,.3.5.8,1,.5,1.5.9.8.6.5,1.1,1.4,1.6c1.9-1.3,2.2-2.8,2.4-4.5.4-.2.8-.4,1.2-.5c0-.3,0-.7-.1-1c.2-.2.4-.4.5-.6.3-.2.4-.2.6-.2.2.1.5,1.5,1.5,1.8.7.3.5-.4,1.1-.5.5-.1.4.4,1.1.2c1.3-.2,1.8-2.3,2-3.2-.5-.7-1-.2-1.9,0l-.2-.4c.5-.3,1.2-.6,1.2-1.3.5-.1.7.1,1.2,0c.2,0,0,0,.3,0c0-.1.1-.3.1-.4-.5-.9-1.2-1.4-1.9-1.5Zm-4.1-23c-.4.1-2.6,1.5-2.8,1.8l-.3.2c.6,1.2.9,1.1,1.7,1.4c1.2-.9,1.2-1.6,1.8-2.6l-.4-.8Zm6.7,15.9c-.5.1-.6.1-.3.5.2,0,.1,0,.3,0v-.5Zm-18.8-22.7c-.6-1-1.3-.9-2.2-.8l-.5-1c-.3.2-.4.3-.6.3-.3-.3-.2-.1-.1-.6l-.3-.6c-.4-.3-.8.4-1.3.5-.4.1-.8-.5-1.2-.4-.8.2-1.5.5-2.2.9-.2-.4-.3-.4-.5-.5-.5-.5-1-.2-1.5-.4l-.3.2c.3.4.2.4.6.4.3.8.2.9-.1,1.5.2.4.4.7.7.8.8.7,1.3-.2,2.2-.2l.1-.1c-.1.2-.1.2-.3.5c1.8,2,1.5.1,3.4,0c1-.3,2.3.8,3.2,1.3.2-.5-.1-1,0-1.5c0-.4.6-.1.9-.1l-.1-.2h.1Zm2.1,9.2c-.7.1-1.5.5-2.1.5l-.2-.3c.3-.5.5-.6.5-1.2c0-.2,0-.1,0-.4-.5-.1-.9.1-1.5,0-.2-.1-.1,0-.3-.2.1-.5.1-.9.2-1.4-.9-1.6-2.2-1.7-3.3-2.4-.9.8-.4,1.4,0,2.4-.2,0-.3.1-.5.1-.8-.6-2.2-2.1-1.8-3.3-.6-.8-.9-.6-1.5-.8-.4.4-.4.2-.3.7-.8.4-1-.3-1.5-.1-.4.4-.8.8-1.2,1.2-.4,0-.7-1.1-1.1-1.3-.6-.4-1.6,0-2.3-.1l-1.1.9c-.1.9-.2,1.6-.2,2.5-.9.6-2,.4-2.7,1.5-1.3,2-1.9,6.4-5.5,5-.8.6-.8,1-1.1,1.7.1.3.4.9.4,1.1s0,.4-.1.7c-.7-.3-1.5-.5-2.1-1c.4-.9,1.2-1.9,1.1-3c1.2-.5,5.5-.5,6-2.7.2-.3.2-.4.3-.7-.6-.9-1-.8-1.6-.6-.7-1.6.4-1.8,1.2-3.1l.3-1.3c-.2-.3-.2-.3-.4-.3-.7-.5-1.2.1-2,.1l-.1.1c-.1-1,1-1.3,1.5-2.1.2-.4.2-1.1.4-1.5s.9-.7,1.1-.7c.5-.5.6-.7.8-1.2-.2-.3-.4-.5-.6-.7-1.2.6-7,4-7.3,5.3l-.2.2.5.8c-.8.9-2.1,1.4-3,2.6-.7,1-1.6,2.3-2.2,3.2l.2.3.7-.2c.8,1.9-1.9,2.9-2.9,4.3-1.6,2.3-1.3,3.7-1.8,6c.5.6.7.5,1.1.5l.2.2c-.1.5-.5,1.2-.5,1.8.1.9.7,1.7.8,2.5c0,.6-.5,1.3-.3,1.9l1.1,1.4c.2.5-.2.9-.1,1.4l.8,1.4c.3.7.1,1.3.2,2c.1.5.5,1,.5,1.5.2.3.5.6.8.8.4-.4.4-.8.4-1.3.1-.1.3-.1.5-.2.4.7.9,1.5.9,2.1.1.2.3.3.5.5.4-.4.3-.7.2-1.2.6-.1,1.2-.2,1.8-.2.4,0,.4,0,.8.5l.2-.1c.1-.7.1-1.7.3-2.4-2.1-3-.2-2.2-.3-4.5c0-.7-.5-1.3-.8-2.1-.2-.6-.1-1.2-.2-1.7l.7-1.1c.7-.8,1.8-.8,2-1.9c1-1.6-.9-2.8-1.1-4.7l-.2-.3c2.1.8,1.9,5.2,1.5,6.3.4.4.3.4.7.4.3.7.3,1.5.2,2.1.2.3.2.3.4.4.7.5,2.5-.2,2.7,1.2l.2.2c.9-.9-.9-6.9,2.1-6.7c1.5-.3,1.4,1.6,3.3.8.3.4.8.9,1.1,1s2.7.1,3.1,0l.1.1c.4-.3.7-.6,1.1-1c1.1-.4,1.7.5,3.4-.7.1-.3.2-.5.2-.9.1-.4-.8-.5-1.1-.7l-1.6-1.9c-.7-.5-1.6-.3-2.2-.9-.2-.1-.3-.3-.5-.6l.6-.4c.6.2,1.4.2,2,.5.8-.5,1.7-1,2.2-2c0-.1,0-.6.1-.7.3-.4.8-.3,1.2-.5c0-.6-.4-1.5-.4-2.1c1.5-.8,1.3.8,2.4,1.4.4.2.8-.1,1.2-.1l1.3.8c1.6-1.1,1.6-1.9,2.2-3.2l-.5-.2Zm-2.8,4.3c-1.1,1.1.5,1.5-.4,2.8.1.2.3.3.4.5.7-.6,1.8-2.4,1.7-3.3-.8.2-1.2.2-1.7,0Zm-11-14.6c-.9-.6-3.4-.4-4.5-.6-.5.5-.5.5-.5,1.1-.6.4-1.1.2-1.7,0-.9.7-1.1,1.2-1.5,1.9.2.4,0,.3.3.5.8.6,1.8.2,2.6.3.6-.7,1.1-1.5,1.4-2.5.4-.2.5-.3.8-.2.2.1.1,0,.3.2l-.1.1.1.2-.6.5.3.5c.9-.2,2-.8,2.8-.7.3-.2.6-.5.8-.9-.3-.3-.3-.3-.5-.4Zm9.7,18.5c-.3.1-.6.3-.8.4.4.6.4.7.9.7l.1.1c.2-.3.2-.3.4-.6-.2-.2-.4-.4-.6-.6Zm3,6.1c-.3-.1-.7-.4-1-.6-.2.1-.3.3-.4.5c0,.3,0,.1,0,.3.2.4.3.6.6.7.1,0,0,0,.1-.1.4,0,.5.2.7.4l.4-.2c-.1-.4-.2-.7-.4-1Zm1.3,2.2c-.3.1-.6.2-.8.5.3.4.3.3.6.5.2-.1.3-.3.4-.4l-.2-.6Zm-3.4-3l-.3-.5c-.2-.1-.3-.1-.5-.2l-.2.3c.2.4.3.6.6.7.2,0,.1,0,.3,0l-.1-.1.2-.2Zm1.2,3.7c.2-1.9-2.1-2-3-3.5-.5.5-.7.7-1.2.5-.7.7-.3.5-.3,1.3l-.6,1.5c.6.8,1.1.4,1.5.9.3.4.2,1,.7,1.2.4,0,.3-.1.6-.4.4.3.9,1,1.3,1.2.2,0,.4,0,.6-.1.2-.8.6-1.7.4-2.6Zm-6.1-1.8c-1.4.1-2.2-.7-3.3-1.9-1.3.5-1.2.9-2.3,1.8.1.6.5,1.7.8,2.3-.3.3-.4.6-.8.5-.5.1-1-.4-1.5-.8-1.3.6-2.2,1.9-3.4,1.3-.3.2-.4.3-.5.5.2.6,1.2.8,1.9,1.7-.1.7-.1,1.5-.4,2.1.9,1.2,1.1.1,2,.5.6.2,1.1.8,1.6,1.1.2,0,.1,0,.3,0c1.2-.8.8-1.5,1.5-2.3c0-.2,0-.1.1-.3.4.3.7.5,1.1.8.2,0,.1,0,.3,0c.5-.4.6-.7.9-1.1l-.2-1.2c-.3-.9-1.3-1.3-1.3-2.2.1-.2,0-.1.2-.3.3.2.6.5.9.6.3,0,.6-.2.9-.1.6-.5,1.2-1.6,1.5-2.2l-.3-.8Zm2,6.5l-.4-.7c-.4.3-.4.3-.4.6-.3.2-.5.3-.7.2-.3-.1-.6-.5-.8-.8-.1,0-.1,0-.2,0-.8.7-.7,1.5-1.5,2.3.4.4.8.4.7,1c.3.4.1.3.5.3.3,0,.4-.2.4-.6.9-.4,1.6-.2,2.3-.4-.2-.9-.3-1.1.1-1.9Zm-.9,7.9c-.3-.1-.5-.2-.8-.3l-.3.3.4.6c0,.4-.3.4-.2.9l.1-.1.1.1c.5-.3.7-.5,1-.9l-.3-.6Zm-1.9-1.6c-.5,0-.7,0-.9.6-.3.1-.2.1-.5,0-.3-.2-.2-.5-.5-1-.5.3-.5.4-.8,1c.5.8.9.9,1.4,1.3.5-.2.9-.3,1-.8.3-.4.4-.7.3-1.1Zm-10.8-10.8l-.6.1c0,.2-.1.3-.2.5.1.2.3.3.4.4.3-.2.4-.3.5-.5c0-.3,0-.2-.1-.5Zm6.7,14.4c.3-.4.4-.9.7-1.3c0-.2,0-.1,0-.3-.5-.5-.8-.2-1.3-.6-.3-.1-.7-.8-.7-1.1l-.1-.2.3-.2c.2.4.1.5.4.7l.1.2.5-.5c-.4-.8-1.5-1.9-1.5-2.8-.8-1.4-.7-.7-1.6-1.1l-.4.1c0,.2,0,.2-.1.4c0,.2.2.6.2.8c0,.6-.4.6-.8,1c.2.9.4,1.7.9,2.6l-.1.1.1.1c-.7,0-1,.4-1.4.4-.1-.2.2-1.1,0-1.8l-.4.1c-.1.6-.4,1.1-.4,1.7-.3.1-.3.2-.5.2-.1,0-.3-.2-.4-.2-.3-.5-.3-.6-.4-1c1-.6,1.2-.7,1.6-1.5-.4-.6-1.1-1.6-1.6-1.7-.4-.8.1-.7,0-1.4c0-.4-.3-.6-.3-1c0-.1,0-.1,0-.2.2.1.5.5.7.6.2,0,.4.1.5.1l.5-.4c.2-1.2.7-2.6-1-3.4-.2.2-.2.2-.2.3-.2.4-.1,1,0,1.4h-.5l-.2-.4c-.4.3-.6.5-.9.3-.1.2-.1.1-.1.3c0,.4.4,1,.5,1.4l.1.4c-1.6.9-2.6,1.3-2.5,3.2c0,.3.4.5.4.8.1.6-.3.7.2,1.4.3-.3.3-.3.3-.7.3,0,.3.1.5.1s.3-.2.6-.4c.4,1.1-.7,2.2-1.1,3.1l.2.3c.6-.4.8-.3,1.2-.3.6.9.2,1.3.2,2l-.1.1c-.2-.4-.3-.7-.3-1-.2-.2-.3-.4-.5-.6l-.2.3c.2.6,1.1,2.2,1.1,2.8l.9,1.2.1-.1c-.1-.4-.3-1-.3-1.5l-.1-.2.1-.1c.3.5.6,1.1.6,1.5l.6.9c.1-.2.1-.5,0-.8l.2-.1c.1.1.3.2.4.4.2-.2.4-.3.5-.5.4.1.9.2,1.3.2.1.2.2.3.2.5.3,0,.6-.1.8-.1.2.1.1.1.3.4l.1-.1.1.1c.9-.6.6-1.1,1.7-1.8-.4-.6-1-.8-1.6-.8-.3-.7.1-.6.3-1.1c0-.2.1-.1-.2-.2c0-.6,1.1-.2,1.8-1Zm-7.5,5.2v0h-.2c-.4-.1-1,0-1.4,0-.2-.3-.3-.5-.3-.7c0-.5.4-.3.4-.9.2.1.4.2.7.3l.1.1.1-.1-.1-.1c.1-.3.1-.3,0-.6c0-.4-.3-1-.7-1-.2-.5,0-.8.2-1.2-.5-.6-.7-.4-1.2-.8-.3-.2-.2-.5-.4-1-.7.6-.2.4-.1,1.2c0,.1-.2,1.1-.2,1.4.1.1.2.3.4.4l.4-.3c.3.6.2.8.6,1.4l-.1.1.1.1c-.5.2-.7.2-1.1.1-.4.3-.9.9-1.1,1.1l-.2.1c.2.4.3.8.7,1s.4.2.6-.1c.5.4.7,1,1.1,1.2.2,0,0,0,.3,0-.1-.3-.5-1-.6-1.4l-.1-.1.2-.1.7,1.2c.3-.2.2,0,.3-.2.2-.3.1-.2,0-.6.3-.2.6-.2.9-.5v0Zm5.3,5.4c-.1.3-.1.5-.4.8-.5-.1-.6,0-1-.5l-.2.1c.2.2.3.4.4.4.3.4.4.3.8.5.5-.3.6-.5.8-.9l-.4-.4Zm2.6,5.1l-.1-.2-.4.2.3.5c.2,0,.3.1.5.1l.1.1.1-.1c0-.1,0-.2.1-.3-.2-.1-.4-.2-.6-.3Zm-11.6-14.3c-.3-.2-.6-.3-.9-.3-.5-.9-.2-1.6.1-2.4c0-.3-.1-.6-.4-.7l-.4-.5c-.2.3-.2.3-.2.6-.2.1-.2.1-.4.1-.3-.2-.3-.7-.5-1.1l-.1.1-.1-.1-.1.1c0,.4-.2.8-.2,1.2-.5.1-.8-.3-1.3-.6-.4.4-.1.7-.3,1-.2.1-.4.2-.7.3l-.1.2.5.9c0,.2-.4.3-.3.5.1.4.7.9.8,1.2l.6.8c.2-.3.2-.1.1-.5.6,0,.7.9,1.2,1.2.2,0,.1,0,.4-.2l.4.5c.5-.4.5-.4,1-.5-.1-.4-.2-.7-.3-1c.2-.1.2-.1.4-.1.4.1.8.4,1.1.9l.3-.2c-.3-.4-.8-.9-.6-1.4Zm9.7,12.8c-.1.1-.2.2-.3.3.2.2.2.2.3.2l.1.1c.2-.2.2-.2.2-.5-.2,0-.1,0-.3-.1Zm-22.4-27.1c-1.1.4-.4,1.9-.3,3l.1.1c.8-.8.7-2.1.2-3.1Zm-.9-.5c0-.2,0-.1-.1-.3l-.1.1-.1-.1-.2.1c0,.2,0,.1-.1.3l.4.8c.4-.4.4-.4.2-.9ZM584.2,300c-.4-.1-.5-.3-.8-.7l-.7.2c.1.4.4,1,.5,1.3l1,.4c.4-.4.3-.7,0-1.2Zm-9-10.5c-.5,0-.4,0-.6.4.2.3.3.4.5.5l.1.1c.2-.3.1-.4.2-.7l-.2-.3Zm9.9,13.8c-.2,0-.5-.1-.7-.2-.6.4-.3.7-.3,1.2.5.6.9.8,1.4,1.1l.4-.2c-.5-.8-.4-1.3-.8-1.9Zm-3.3-2.9c-.3.2-.3.1,0,.6l.2-.1c0-.2-.1-.4-.2-.5Zm-2.2-2.1l-.3-.4c-.3.1-.2.1-.4.2.2.2.2.3.4.3s0,0,.3,0v-.1v0Zm2.5,3.7c-.2-.1-.1,0-.2-.1-.3.3-.3.1-.1.5c0,.2,0,.1.1.3.1,0,.2,0,.3.1l.1.1c.2-.2.1-.2.2-.4l-.4-.5Zm-2.3-1.8c-.1,0-.3-.1-.4-.2l-.2.3c.3.3.3.2.6.4c0-.3,0-.2,0-.5Z"
                        clip-rule="evenodd"
                        transform="translate(-603.424866,-280.170532)" fill-rule="evenodd" />
                </g>
            </g>
            <g id="moon-phase-3">
                <g class="moon-rotate_tr"
                    transform="translate(603.424866,280.170532) rotate(0)">
                    <path id="gibbous-moon"
                        d="M619.7,309.2c-0.3,0.2-0.6,0.3-0.9,0.5l-0.2,0.1c-12.6,6.4-27.4,4.1-37.4-4.7
                    c-0.1-0.1-0.2-0.2-0.3-0.3c-0.1,0-0.2-0.1-0.3-0.2c-0.1-0.1-0.1-0.2-0.2-0.2c-0.2-0.2-0.3-0.4-0.5-0.5l-0.7-0.7
                    c-0.1-0.2-0.3-0.3-0.4-0.5c-4-4.5-5.8-11.1-5-18.3c0.1-0.7,0.2-1.4,0.3-2.1c0.1-0.5,0.2-1.1,0.3-1.6c0.5-1.8,1-3.6,1.8-5.4
                    c1.2-3,2.8-5.8,4.7-8.5c1.9-2.6,4.1-5,6.5-7.1c2.7-2.3,5.6-4.3,8.6-5.9c0.4-0.2,0.7-0.4,1-0.5c0.6-0.3,1.1-0.6,1.7-0.8
                    c0.5-0.2,1-0.4,1.5-0.6c0.9-0.3,1.7-0.6,2.5-0.8c4.4-1.3,8.8-1.7,13-1c2.2,0.4,4.2,1,6,1.9c0.1,0,0.2,0.1,0.3,0.1
                    c0.6,0.3,1.2,0.6,1.8,1c0.5,0.4,1,0.7,1.5,1.1c0.1,0,0.1,0.1,0.2,0.1c0.2,0.2,0.5,0.4,0.7,0.6l1.3,1.3c0.2,0.1,0.3,0.3,0.4,0.4
                    c0.1,0.1,0.3,0.3,0.4,0.4l0.5,0.6c0.1,0.1,0.1,0.1,0.2,0.2c0.2,0.1,0.4,0.3,0.5,0.5s0.2,0.3,0.3,0.4c0.6,0.8,1.2,1.6,1.8,2.4
                    c0.1,0.2,0.2,0.3,0.3,0.5c0.2,0.3,0.4,0.6,0.6,0.9c0.3,0.7,0.7,1.4,1.1,2.1c0.2,0.4,0.3,0.8,0.5,1.1
                    C641.5,281.8,635.3,300.9,619.7,309.2z"
                        clip-rule="evenodd" transform="translate(-603.424866,-280.170532)"
                        fill-rule="evenodd" />
                    <path id="gibbous-moon-surface"
                        d="M631.3,265.2l-.5.1c.2.4.3.7.5.8l.1.1.3-.2-.4-.8Zm-9.7-7.1c-1-.2-1.6-1.2-2.5-1.5-.4-.2-3.1-1.2-3.3-1.2-.4,0-.6.6-.9.5-.4-.1-1-.9-1.4-1.1-.7.7-.6,1.4-.6,2.2-1.4,0-1.7-2.1-2.8-2.9-.8.6-.9.9-1.2,1.5.2.3.2.3.4.4.2.7.1.7-.3,1.3.7.8.9,0,1.7,0l.1-.1c.1.7-.6,1.4.2,2.2.6.6,1.9.1,2,1.3.6.7,1,.1,1.6.5.3.2.5.6.8.8c0,0,2.4-1.7,2.4-1.7.3-.1.6.7.9.6c1.2-.2.6-1.5,2.2-.6.4-.3.6-.5.7-.9l.4-.5-.4-.8Zm3.3,25.4c-.4-.8-.4-2.2-.3-3c.1-.2.8-.2,1.4-.5-.4-.6-1.1-.8-1.7-.9-.3-.8.1-1.2.4-1.8-.1-.2-.3-.4-.5-.6-1.2.8-1.3,1.6-1.4,2.6-.9.3-1,0-1.7.9l-.1-.1c-.3-.3,0-.8-.5-1.2-.3-.3-.8-.2-1.2-.6l.3-.4c.2-.3.5-.3.9-.2.2-.1.3-.3.5-.5-.2-.6-.5-1.5-.5-2.1.3-.4.7-.7,1.2-.9l-.1-.1.1-.1c-.7-1.2-2.1-1.9-1.7-3.4-.1-.7.4-1.6.8-2.2.8.8.5,2.4,1.7,2.8l.4.3c.5-.5.5-.7.5-1.2l.7-.5c.2.4.4.7.7,1c.4-.4.3-.4.6-.7-.3-.7-.6-1-1.1-1.1-.3-.9,0-1.4.5-2-.5-.9-2.8-.4-3,.5-.7.3-.8.1-1.3-.3l.6-1.5c-.7-1.1-1.3.1-2.1-.3-.4-.2-.8-1-1.1-1.2-.8.8-.3,1.2-1.1,1.2l-.1.1c.4.8.8,1.4,1.4,1.6.3.6.2.7.2,1.2-2.1,1-1-.8-2.3-1.5-.3.1-.6.1-.8.2-.7-.3-1-1.3-1.8-1.3-1,0-.8,1.5-1.9,1.3-.7.7-.5,1.8-.3,2.8-.3-.1-.7-.5-.9-.7-.5.4-1.3,1.3-1.3,1.9.1.4.8.7.8,1.4.1.7-.5,1.5-.8,2l1,2.2c.4.4,1.3,0,1.7.5.2.3.1.8.4,1.1s2.5,1.9,2.8,1.9c.4,0,.9-.2,1.2-.3l.3.6c-1.2.8-1.8.9-2.7.5-1.1.8-.1,1.2-.4,2.1-.1.4-.7.7-.7,1.1l.6,1.6c-.2.3-1,.8-1.2,1.2l-.3.3c.5.9.9.7,1.7.6.1.2.2.5.3.8-.4.1-.5.1-.8,0-.2.2-.2.2-.3.3c0,0-.2.2,0,.2l.1-.1c.5.4,1-.1,1.4.1.9.5-.2,1.2,1.4,1c.1.3,0,.3,0,.6-.6.6-1,1.5-1.9,1.4-.5.3-.4.4-.7.7c0,.2,0,.1,0,.3.5.8,1,.5,1.5.9.8.6.5,1.1,1.4,1.6c1.9-1.3,2.2-2.8,2.4-4.5.4-.2.8-.4,1.2-.5c0-.3,0-.7-.1-1c.2-.2.4-.4.5-.6.3-.2.4-.2.6-.2.2.1.5,1.5,1.5,1.8.7.3.5-.4,1.1-.5.5-.1.4.4,1.1.2c1.3-.2,1.8-2.3,2-3.2-.5-.7-1-.2-1.9,0l-.2-.4c.5-.3,1.2-.6,1.2-1.3.5-.1.7.1,1.2,0c.2,0,0,0,.3,0c0-.1.1-.3.1-.4-.5-.9-1.2-1.4-1.9-1.5Zm-4.1-23c-.4.1-2.6,1.5-2.8,1.8l-.3.2c.6,1.2.9,1.1,1.7,1.4c1.2-.9,1.2-1.6,1.8-2.6l-.4-.8Zm6.7,15.9c-.5.1-.6.1-.3.5.2,0,.1,0,.3,0v-.5Zm-18.8-22.7c-.6-1-1.3-.9-2.2-.8l-.5-1c-.3.2-.4.3-.6.3-.3-.3-.2-.1-.1-.6l-.3-.6c-.4-.3-.8.4-1.3.5-.3.1-.7-.3-1-.4-.1,0-.2,0-.2,0-.8.2-1.5.5-2.2.9c0,0,0,0,0,0-.5.2-1,.4-1.5.6c0,.2-.1.3-.3.6.2.4.4.7.7.8.8.7,1.3-.2,2.2-.2l.1-.1c-.1.2-.1.2-.3.5c1.8,2,1.5.1,3.4,0c1-.3,2.3.8,3.2,1.3.2-.5-.1-1,0-1.5c0-.4.6-.1.9-.1l-.1-.2h.1Zm2.1,9.2c-.7.1-1.5.5-2.1.5l-.2-.3c.3-.5.5-.6.5-1.2c0-.2,0-.1,0-.4-.5-.1-.9.1-1.5,0-.2-.1-.1,0-.3-.2.1-.5.1-.9.2-1.4-.9-1.6-2.2-1.7-3.3-2.4-.9.8-.4,1.4,0,2.4-.2,0-.3.1-.5.1-.8-.6-2.2-2.1-1.8-3.3-.6-.8-.9-.6-1.5-.8-.4.4-.4.2-.3.7-.8.4-1-.3-1.5-.1-.4.4-.8.8-1.2,1.2-.4,0-.7-1.1-1.1-1.3-.6-.4-1.6,0-2.3-.1l-1.1.9c-.1.9-.2,1.6-.2,2.5-.9.6-2,.4-2.7,1.5-1.3,2-1.9,6.4-5.5,5-.8.6-.8,1-1.1,1.7.1.3.4.9.4,1.1s0,.4-.1.7c-.7-.3-1.5-.5-2.1-1c.4-.9,1.2-1.9,1.1-3c1.2-.5,5.5-.5,6-2.7.2-.3.2-.4.3-.7-.6-.9-1-.8-1.6-.6-.5-1.2-.1-1.6.5-2.2-4.8,4.2-8.7,9.6-11.2,15.6-.8,1.8-1.3,3.6-1.8,5.4l1,1.1c.2.5-.2.9-.1,1.4l.8,1.4c.3.7.1,1.3.2,2c.1.5.5,1,.5,1.5.2.3.5.6.8.8.4-.4.4-.8.4-1.3.1-.1.3-.1.5-.2.4.7.9,1.5.9,2.1.1.2.3.3.5.5.4-.4.3-.7.2-1.2.6-.1,1.2-.2,1.8-.2.4,0,.4,0,.8.5l.2-.1c.1-.7.1-1.7.3-2.4-2.1-3-.2-2.2-.3-4.5c0-.7-.5-1.3-.8-2.1-.2-.6-.1-1.2-.2-1.7l.7-1.1c.7-.8,1.8-.8,2-1.9c1-1.6-.9-2.8-1.1-4.7l-.2-.3c2.1.8,1.9,5.2,1.5,6.3.4.4.3.4.7.4.3.7.3,1.5.2,2.1.2.3.2.3.4.4.7.5,2.5-.2,2.7,1.2l.2.2c.9-.9-.9-6.9,2.1-6.7c1.5-.3,1.4,1.6,3.3.8.3.4.8.9,1.1,1s2.7.1,3.1,0l.1.1c.4-.3.7-.6,1.1-1c1.1-.4,1.7.5,3.4-.7.1-.3.2-.5.2-.9.1-.4-.8-.5-1.1-.7l-1.6-1.9c-.7-.5-1.6-.3-2.2-.9-.2-.1-.3-.3-.5-.6l.6-.4c.6.2,1.4.2,2,.5.8-.5,1.7-1,2.2-2c0-.1,0-.6.1-.7.3-.4.8-.3,1.2-.5c0-.6-.4-1.5-.4-2.1c1.5-.8,1.3.8,2.4,1.4.4.2.8-.1,1.2-.1l1.3.8c1.6-1.1,1.6-1.9,2.2-3.2h-.4Zm-2.8,4.3c-1.1,1.1.5,1.5-.4,2.8.1.2.3.3.4.5.7-.6,1.8-2.4,1.7-3.3-.8.2-1.2.2-1.7,0Zm-11.9-13.3c.2,0,.3,0,.5,0c.2-.2.3-.3.5-.5-.3.2-.7.3-1,.5Zm10.6,17.2c-.3.1-.6.3-.8.4.4.6.4.7.9.7l.1.1c.2-.3.2-.3.4-.6-.2-.2-.4-.4-.6-.6Zm3,6.1c-.3-.1-.7-.4-1-.6-.2.1-.3.3-.4.5c0,.3,0,.1,0,.3.2.4.3.6.6.7.1,0,0,0,.1-.1.4,0,.5.2.7.4l.4-.2c-.1-.4-.2-.7-.4-1Zm1.3,2.2c-.3.1-.6.2-.8.5.3.4.3.3.6.5.2-.1.3-.3.4-.4l-.2-.6Zm-3.4-3l-.3-.5c-.2-.1-.3-.1-.5-.2l-.2.3c.2.4.3.6.6.7.2,0,.1,0,.3,0l-.1-.1.2-.2Zm1.2,3.7c.2-1.9-2.1-2-3-3.5-.5.5-.7.7-1.2.5-.7.7-.3.5-.3,1.3l-.6,1.5c.6.8,1.1.4,1.5.9.3.4.2,1,.7,1.2.4,0,.3-.1.6-.4.4.3.9,1,1.3,1.2.2,0,.4,0,.6-.1.2-.8.6-1.7.4-2.6Zm-6.1-1.8c-1.4.1-2.2-.7-3.3-1.9-1.3.5-1.2.9-2.3,1.8.1.6.5,1.7.8,2.3-.3.3-.4.6-.8.5-.5.1-1-.4-1.5-.8-1.3.6-2.2,1.9-3.4,1.3-.3.2-.4.3-.5.5.2.6,1.2.8,1.9,1.7-.1.7-.1,1.5-.4,2.1.9,1.2,1.1.1,2,.5.6.2,1.1.8,1.6,1.1.2,0,.1,0,.3,0c1.2-.8.8-1.5,1.5-2.3c0-.2,0-.1.1-.3.4.3.7.5,1.1.8.2,0,.1,0,.3,0c.5-.4.6-.7.9-1.1l-.2-1.2c-.3-.9-1.3-1.3-1.3-2.2.1-.2,0-.1.2-.3.3.2.6.5.9.6.3,0,.6-.2.9-.1.6-.5,1.2-1.6,1.5-2.2l-.3-.8Zm2,6.5l-.4-.7c-.4.3-.4.3-.4.6-.3.2-.5.3-.7.2-.3-.1-.6-.5-.8-.8-.1,0-.1,0-.2,0-.8.7-.7,1.5-1.5,2.3.4.4.8.4.7,1c.3.4.1.3.5.3.3,0,.4-.2.4-.6.9-.4,1.6-.2,2.3-.4-.2-.9-.3-1.1.1-1.9Zm-.9,7.9c-.3-.1-.5-.2-.8-.3l-.3.3.4.6c0,.4-.3.4-.2.9l.1-.1.1.1c.5-.3.7-.5,1-.9l-.3-.6Zm-1.9-1.6c-.5,0-.7,0-.9.6-.3.1-.2.1-.5,0-.3-.2-.2-.5-.5-1-.5.3-.5.4-.8,1c.5.8.9.9,1.4,1.3.5-.2.9-.3,1-.8.3-.4.4-.7.3-1.1Zm-10.8-10.8l-.6.1c0,.2-.1.3-.2.5.1.2.3.3.4.4.3-.2.4-.3.5-.5c0-.3,0-.2-.1-.5Zm6.7,14.4c.3-.4.4-.9.7-1.3c0-.2,0-.1,0-.3-.5-.5-.8-.2-1.3-.6-.3-.1-.7-.8-.7-1.1l-.1-.2.3-.2c.2.4.1.5.4.7l.1.2.5-.5c-.4-.8-1.5-1.9-1.5-2.8-.8-1.4-.7-.7-1.6-1.1l-.4.1c0,.2,0,.2-.1.4c0,.2.2.6.2.8c0,.6-.4.6-.8,1c.2.9.4,1.7.9,2.6l-.1.1.1.1c-.7,0-1,.4-1.4.4-.1-.2.2-1.1,0-1.8l-.4.1c-.1.6-.4,1.1-.4,1.7-.3.1-.3.2-.5.2-.1,0-.3-.2-.4-.2-.3-.5-.3-.6-.4-1c1-.6,1.2-.7,1.6-1.5-.4-.6-1.1-1.6-1.6-1.7-.4-.8.1-.7,0-1.4c0-.4-.3-.6-.3-1c0-.1,0-.1,0-.2.2.1.5.5.7.6.2,0,.4.1.5.1l.5-.4c.2-1.2.7-2.6-1-3.4-.2.2-.2.2-.2.3-.2.4-.1,1,0,1.4h-.5l-.2-.4c-.4.3-.6.5-.9.3-.1.2-.1.1-.1.3c0,.4.4,1,.5,1.4l.1.4c-1.6.9-2.6,1.3-2.5,3.2c0,.3.4.5.4.8.1.6-.3.7.2,1.4.3-.3.3-.3.3-.7.3,0,.3.1.5.1s.3-.2.6-.4c.4,1.1-.7,2.2-1.1,3.1l.2.3c.6-.4.8-.3,1.2-.3.6.9.2,1.3.2,2l-.1.1c-.2-.4-.3-.7-.3-1-.2-.2-.3-.4-.5-.6l-.2.3c.2.6,1.1,2.2,1.1,2.8l.9,1.2.1-.1c-.1-.4-.3-1-.3-1.5l-.1-.2.1-.1c.3.5.6,1.1.6,1.5l.6.9c.1-.2.1-.5,0-.8l.2-.1c.1.1.3.2.4.4.2-.2.4-.3.5-.5.4.1.9.2,1.3.2.1.2.2.3.2.5.3,0,.6-.1.8-.1.2.1.1.1.3.4l.1-.1.1.1c.9-.6.6-1.1,1.7-1.8-.4-.6-1-.8-1.6-.8-.3-.7.1-.6.3-1.1c0-.2.1-.1-.2-.2c0-.6,1.1-.2,1.8-1Zm-7.5,5.2v0h-.2c-.4-.1-1,0-1.4,0-.2-.3-.3-.5-.3-.7c0-.5.4-.3.4-.9.2.1.4.2.7.3l.1.1.1-.1-.1-.1c.1-.3.1-.3,0-.6c0-.4-.3-1-.7-1-.2-.5,0-.8.2-1.2-.5-.6-.7-.4-1.2-.8-.3-.2-.2-.5-.4-1-.7.6-.2.4-.1,1.2c0,.1-.2,1.1-.2,1.4.1.1.2.3.4.4l.4-.3c.3.6.2.8.6,1.4l-.1.1.1.1c-.5.2-.7.2-1.1.1-.4.3-.9.9-1.1,1.1l-.2.1c.2.4.3.8.7,1s.4.2.6-.1c.5.4.7,1,1.1,1.2.2,0,0,0,.3,0-.1-.3-.5-1-.6-1.4l-.1-.1.2-.1.7,1.2c.3-.2.2,0,.3-.2.2-.3.1-.2,0-.6.3-.2.6-.2.9-.5v0Zm5.3,5.4c-.1.3-.1.5-.4.8-.5-.1-.6,0-1-.5l-.2.1c.2.2.3.4.4.4.3.4.4.3.8.5.5-.3.6-.5.8-.9l-.4-.4Zm2.6,5.1l-.1-.2-.4.2.3.5c.2,0,.3.1.5.1l.1.1.1-.1c0-.1,0-.2.1-.3-.2-.1-.4-.2-.6-.3Zm-11.6-14.3c-.3-.2-.6-.3-.9-.3-.5-.9-.2-1.6.1-2.4c0-.3-.1-.6-.4-.7l-.4-.5c-.2.3-.2.3-.2.6-.2.1-.2.1-.4.1-.3-.2-.3-.7-.5-1.1l-.1.1-.1-.1-.1.1c0,.4-.2.8-.2,1.2-.5.1-.8-.3-1.3-.6-.4.4-.1.7-.3,1-.2.1-.4.2-.7.3l-.1.2.5.9c0,.2-.4.3-.3.5.1.4.7.9.8,1.2l.6.8c.2-.3.2-.1.1-.5.6,0,.7.9,1.2,1.2.2,0,.1,0,.4-.2l.4.5c.5-.4.5-.4,1-.5-.1-.4-.2-.7-.3-1c.2-.1.2-.1.4-.1.4.1.8.4,1.1.9l.3-.2c-.3-.4-.8-.9-.6-1.4Zm9.7,12.8c-.1.1-.2.2-.3.3.2.2.2.2.3.2l.1.1c.2-.2.2-.2.2-.5-.2,0-.1,0-.3-.1Zm-22.1-26.4c-.1.7-.2,1.4-.3,2.1.4-.5.5-1.3.3-2.1Zm10,17.5c-.4-.1-.5-.3-.8-.7l-.7.2c.1.4.4,1,.5,1.3l1,.4c.4-.4.3-.7,0-1.2Zm-9-10.5c-.5,0-.4,0-.6.4.2.3.3.4.5.5l.1.1c.2-.3.1-.4.2-.7l-.2-.3Zm9.9,13.8c-.2,0-.5-.1-.7-.2-.6.4-.3.7-.3,1.2.5.6.9.8,1.4,1.1l.4-.2c-.5-.8-.4-1.3-.8-1.9Zm-3.3-2.9c-.3.2-.3.1,0,.6l.2-.1c0-.2-.1-.4-.2-.5Zm-2.2-2.1l-.3-.4c-.3.1-.2.1-.4.2.2.2.2.3.4.3s0,0,.3,0v-.1v0Zm2.5,3.7c-.2-.1-.1,0-.2-.1-.3.3-.3.1-.1.5c0,.2,0,.1.1.3.1,0,.2,0,.3.1l.1.1c.2-.2.1-.2.2-.4l-.4-.5Zm-2.3-1.8c-.1,0-.3-.1-.4-.2l-.2.3c.3.3.3.2.6.4c0-.3,0-.2,0-.5Z"
                        clip-rule="evenodd" transform="translate(-603.424866,-280.170532)"
                        fill-rule="evenodd" />
                </g>
            </g>
            <g id="moon-phase-2">
                <g class="moon-rotate_tr"
                    transform="translate(603.424866,280.170532) rotate(0)">
                    <path id="half-moon"
                        d="M624.8,306.6c-0.3,0.2-0.5,0.4-0.8,0.6l-0.1,0.1c-1.6,1.2-3.2,2.1-4.8,3c-0.2,0.1-0.4,0.2-0.6,0.3
                    c-0.2,0.1-0.4,0.2-0.6,0.3c-0.1,0-0.2,0.1-0.3,0.1c-0.2,0.1-0.3,0.2-0.4,0.2c-1,0.5-2.1,0.9-3.1,1.2c-0.3,0.1-0.6,0.2-0.9,0.3
                    c-0.2,0.1-0.5,0.1-0.7,0.2c-1.5,0.4-3.1,0.7-4.7,0.9h-0.3c-0.7,0.1-1.3,0.2-2,0.2h-3.9c-0.3-0.1-0.5-0.1-0.8-0.1
                    c-0.1,0-0.1,0-0.2,0h-0.1c-0.3,0-0.7-0.1-1-0.1h-0.6c-0.1,0-0.1,0-0.2,0c-0.2,0-0.5-0.1-0.7-0.1s-0.5-0.1-0.7-0.1
                    s-0.4-0.1-0.6-0.1c-0.2-0.1-0.5-0.1-0.7-0.2c-0.2-0.1-0.5-0.1-0.7-0.2c-0.2-0.1-0.5-0.1-0.7-0.2c-0.5-0.2-1-0.3-1.5-0.5H593
                    c-0.3-0.2-0.7-0.3-1-0.4c-0.2,0-0.3-0.1-0.4-0.1c-0.1,0-0.1-0.1-0.2-0.1c-0.2,0-0.4-0.1-0.6-0.2c0,0-0.1-0.1-0.2-0.1
                    c-0.1,0-0.2-0.1-0.3-0.1h-0.1c-0.5-0.2-1-0.5-1.5-0.7c-0.4-0.2-0.8-0.4-1.2-0.6c0-0.1-0.1-0.1-0.1-0.1c0-0.1-0.1-0.1-0.1-0.1
                    c-0.1,0-0.1-0.1-0.2-0.1c-0.1,0-0.1,0-0.1,0c-0.3-0.1-0.5-0.3-0.7-0.4c0-0.1-0.1-0.1-0.1-0.1c0-0.1-0.1-0.1-0.2-0.2
                    c-0.4-0.2-0.7-0.5-1.1-0.7c-0.2,0-0.3-0.1-0.4-0.2c-0.2-0.2-0.5-0.3-0.7-0.5s-0.3-0.3-0.5-0.4c-0.4-0.2-0.8-0.5-1.1-0.8
                    c-0.1-0.1-0.1-0.1-0.1-0.1c-0.3-0.3-0.6-0.5-0.9-0.8c-0.1,0-0.2-0.1-0.3-0.2c0.1-0.1,0.1-0.1,0.2-0.1c0.2-0.1,0.5-0.2,0.8-0.3
                    c0.2-0.1,0.3-0.1,0.5-0.2c0.5-0.2,1-0.4,1.5-0.6c0.4-0.2,0.7-0.3,1.1-0.5c1.2-0.6,2.3-1.2,3.4-1.8c0.1-0.1,0.2-0.1,0.3-0.2
                    c0.1-0.1,0.2-0.1,0.3-0.2s0.2-0.1,0.3-0.2c0.7-0.5,1.5-0.9,2.2-1.4c0.2,0,0.3-0.1,0.4-0.2c0-0.1,0.1-0.2,0.2-0.2c1.4-1,2.7-2,4-3
                    c1.3-1.1,2.7-2.3,4-3.5l1.5-1.5c3.9-4,7.5-8.4,10.5-13.1c2-3.2,3.8-6.6,5.2-10c0.2-0.3,0.4-0.7,0.5-1.1c0.3-0.7,0.6-1.4,0.8-2.1
                    c0.1-0.4,0.3-0.8,0.4-1.2c0.3-1,0.6-2.1,0.9-3.1c0.1-0.2,0.1-0.5,0.2-0.7c0.2-0.7,0.3-1.5,0.5-2.2c0.3-1.3,0.5-2.7,0.7-4
                    c0.1-0.6,0.2-1.2,0.2-1.8c0-0.1,0-0.1,0-0.2c0,0,0-0.1,0-0.2c0.1,0,0.1,0,0.1,0c0.1,0.1,0.2,0.1,0.3,0.2c0.2,0.1,0.3,0.2,0.5,0.3
                    l0.1,0.1c0.1,0.1,0.2,0.1,0.3,0.2c0.1,0.1,0.3,0.2,0.4,0.3c0.2,0.1,0.4,0.2,0.5,0.3c0.1,0,0.2,0.1,0.3,0.2c0.1,0,0.1,0,0.1,0
                    c0.2,0.2,0.5,0.4,0.7,0.6c0.2,0.1,0.3,0.2,0.4,0.3c0.2,0.1,0.3,0.2,0.4,0.3c0.2,0.1,0.3,0.3,0.5,0.4c0.1,0.1,0.2,0.2,0.3,0.3
                    c0.2,0.1,0.4,0.3,0.6,0.5l0.1,0.1c0.3,0.3,0.6,0.5,0.8,0.8l0.4,0.4l0.5,0.6c0.1,0.1,0.1,0.1,0.2,0.2c0.2,0.1,0.4,0.3,0.5,0.5
                    c0.1,0.2,0.2,0.3,0.3,0.4c0.2,0.3,0.5,0.6,0.7,0.9c0.3,0.4,0.5,0.7,0.7,1C641.4,275.2,638.6,295.1,624.8,306.6z"
                        clip-rule="evenodd" transform="translate(-603.424866,-280.170532)"
                        fill-rule="evenodd" />
                    <path id="half-moon-surface"
                        d="M631.3,265.2l-.5.1c.2.4.3.7.5.8l.1.1.3-.2-.4-.8Zm-9.7-7.1c-.2,0-.5-.2-.7-.3-.2.7-.3,1.5-.5,2.2.1,0,.3.1.4.2.4-.3.6-.5.7-.9l.4-.5-.3-.7Zm3.3,25.4c-.4-.8-.4-2.2-.3-3c.1-.2.8-.2,1.4-.5-.4-.6-1.1-.8-1.7-.9-.3-.8.1-1.2.4-1.8-.1-.2-.3-.4-.5-.6-1.2.8-1.3,1.6-1.4,2.6-.9.3-1,0-1.7.9l-.1-.1c-.3-.3,0-.8-.5-1.2-.3-.3-.8-.2-1.2-.6l.3-.4c.2-.3.5-.3.9-.2.2-.1.3-.3.5-.5-.2-.6-.5-1.5-.5-2.1.3-.4.7-.7,1.2-.9l-.1-.1.1-.1c-.7-1.2-2.1-1.9-1.7-3.4-.1-.7.4-1.6.8-2.2.8.8.5,2.4,1.7,2.8l.4.3c.5-.5.5-.7.5-1.2l.7-.5c.2.4.4.7.7,1c.4-.4.3-.4.6-.7-.3-.7-.6-1-1.1-1.1-.3-.9,0-1.4.5-2-.5-.9-2.8-.4-3,.5-.7.3-.8.1-1.3-.3l.6-1.5c-.7-1.1-1.3.1-2.1-.3c0,0-.1-.1-.1-.1-.2.7-.5,1.4-.8,2.1.2.4.1.5.1.9-.2.1-.4.2-.6.2-1.4,3.4-3.2,6.8-5.2,10c.7.6,2.1,1.5,2.3,1.5.4,0,.9-.2,1.2-.3l.3.6c-1.2.8-1.8.9-2.7.5-1.1.8-.1,1.2-.4,2.1-.1.4-.7.7-.7,1.1l.6,1.6c-.2.3-1,.8-1.2,1.2l-.3.3c.5.9.9.7,1.7.6.1.2.2.5.3.8-.4.1-.5.1-.8,0-.2.2-.2.2-.3.3c0,0-.2.2,0,.2l.1-.1c.5.4,1-.1,1.4.1.9.5-.2,1.2,1.4,1c.1.3,0,.3,0,.6-.6.6-1,1.5-1.9,1.4-.5.3-.4.4-.7.7c0,.2,0,.1,0,.3.5.8,1,.5,1.5.9.8.6.5,1.1,1.4,1.6c1.9-1.3,2.2-2.8,2.4-4.5.4-.2.8-.4,1.2-.5c0-.3,0-.7-.1-1c.2-.2.4-.4.5-.6.3-.2.4-.2.6-.2.2.1.5,1.5,1.5,1.8.7.3.5-.4,1.1-.5.5-.1.4.4,1.1.2c1.3-.2,1.8-2.3,2-3.2-.5-.7-1-.2-1.9,0l-.2-.4c.5-.3,1.2-.6,1.2-1.3.5-.1.7.1,1.2,0c.2,0,0,0,.3,0c0-.1.1-.3.1-.4-.3-.8-1-1.3-1.7-1.4Zm-4.1-23c-.1,0-.3.1-.6.2-.3,1-.6,2.1-.9,3.1c0,0,.1,0,.1,0c1.2-.9,1.2-1.6,1.8-2.6l-.4-.7Zm6.7,15.9c-.5.1-.6.1-.3.5.2,0,.1,0,.3,0v-.5Zm-23.7,16.3c-.3-.1-.5-.2-.8-.3l-.3.3.4.6c0,.4-.3.4-.2.9l.1-.1.1.1c.5-.3.7-.5,1-.9l-.3-.6Zm-3.4,0c.1.1.2.1.3.2.5-.2.9-.3,1-.8.2-.3.2-.5.2-.9-.5.5-1,1-1.5,1.5Zm-8.3,6.6c-.1.1-.2.2-.4.2l.3.5c.2-.2.1-.4.1-.7Zm4.1-1.8c-.3-.7.1-.6.3-1.1c0-.2.1-.1-.2-.2-1.3,1-2.6,2-4,3c.1.1.2.2.3.3.2-.2.4-.3.5-.5.4.1.9.2,1.3.2.1.2.2.3.2.5.3,0,.6-.1.8-.1.2.1.1.1.3.4l.1-.1.1.1c.9-.6.6-1.1,1.7-1.8-.3-.5-.9-.6-1.4-.7Zm-7.4,3.9c-.1.1-.2.1-.3.2.1,0,.1.1.2.1.2,0,0,0,.3,0-.1-.1-.1-.2-.2-.3Zm.3-.2v0c.3-.1.2,0,.3-.1c0,0,0,0,0-.1c0,0-.1.1-.3.2Zm6.5,4.1c-.1.3-.1.5-.4.8-.5-.1-.6,0-1-.5l-.2.1c.2.2.3.4.4.4.3.4.4.3.8.5.5-.3.6-.5.8-.9l-.4-.4Zm2.6,5.1l-.1-.2-.4.2.3.5c.2,0,.3.1.5.1l.1.1.1-.1c0-.1,0-.2.1-.3-.2-.1-.4-.2-.6-.3Zm-1.9-1.5c-.1.1-.2.2-.3.3.2.2.2.2.3.2l.1.1c.2-.2.2-.2.2-.5-.2,0-.1,0-.3-.1Zm-11.2-5.6c0,0,0,0,0,0-.3-.1-.5-.2-.8-.3-.4.3-.4.5-.4.8c0,.1,0,.2,0,.4.5.6.9.8,1.4,1.1l.4-.2c-.3-.7-.2-1.2-.6-1.8Z"
                        clip-rule="evenodd" transform="translate(-603.424866,-280.170532)"
                        fill-rule="evenodd" />
                </g>
            </g>
            <g id="moon-phase-1">
                <g class="moon-rotate_tr"
                    transform="translate(603.424866,280.170532) rotate(0)">
                    <path id="crescent-moon"
                        d="M624.4,306.4c-0.3,0.2-0.5,0.4-0.8,0.6l-0.1,0.1c-1.6,1.2-3.2,2.1-4.8,3
                    c-0.2,0.1-0.4,0.2-0.6,0.3c-0.2,0.1-0.4,0.2-0.6,0.3c-0.1,0-0.2,0.1-0.3,0.1c-0.2,0.1-0.3,0.2-0.4,0.2c-1,0.5-2.1,0.9-3.1,1.2
                    c-0.3,0.1-0.6,0.2-0.9,0.3c-0.2,0.1-0.5,0.1-0.7,0.2c-1.5,0.4-3.1,0.7-4.7,0.9h-0.3c-0.7,0.1-1.3,0.2-2,0.2h-3.9
                    c-0.3-0.1-0.5-0.1-0.8-0.1c-0.1,0-0.1,0-0.2,0h-0.1c-0.3,0-0.7-0.1-1-0.1h-0.6c-0.1,0-0.1,0-0.2,0c-0.2,0-0.5-0.1-0.7-0.1
                    c-0.2,0-0.5-0.1-0.7-0.1c-0.2,0-0.4-0.1-0.6-0.1c-0.2-0.1-0.5-0.1-0.7-0.2c-0.2-0.1-0.5-0.1-0.7-0.2c-0.2-0.1-0.5-0.1-0.7-0.2
                    c-0.1,0-0.2-0.1-0.3-0.1c-0.3-0.1-0.6-0.2-0.9-0.3c0-0.1-0.1-0.1-0.2-0.1h-0.1c-0.3-0.2-0.7-0.3-1-0.4c-0.2,0-0.3-0.1-0.4-0.1
                    c-0.2-0.1-0.5-0.2-0.7-0.3c0,0-0.1-0.1-0.2-0.1c-0.1,0-0.2-0.1-0.3-0.1H590c-0.5-0.2-1-0.5-1.5-0.7c-0.3-0.2-0.6-0.3-0.8-0.4
                    c-0.1-0.1-0.3-0.2-0.5-0.3c0-0.1-0.1-0.1-0.1-0.1c-0.1,0-0.1-0.1-0.2-0.1c-0.1,0-0.1,0-0.1,0c-0.3-0.1-0.5-0.3-0.7-0.4
                    c0-0.1-0.1-0.1-0.1-0.1c0-0.1-0.1-0.1-0.2-0.2c-0.4-0.2-0.7-0.5-1.1-0.7c-0.2,0-0.3-0.1-0.4-0.2c-0.2-0.2-0.5-0.3-0.7-0.5
                    c-0.2-0.2-0.3-0.3-0.5-0.4c-0.4-0.2-0.8-0.5-1.1-0.8c-0.1-0.1-0.1-0.1-0.1-0.1c-0.3-0.3-0.6-0.5-0.9-0.8c-0.1,0-0.2-0.1-0.3-0.2
                    c-0.1-0.2-0.3-0.3-0.4-0.4c-0.2-0.1-0.3-0.3-0.5-0.4c-0.4-0.4-0.8-0.9-1.2-1.3h0.1c0.5,0.3,1.1,0.6,1.6,0.9
                    c0.4,0.2,0.9,0.5,1.4,0.7c0.1,0.1,0.2,0.1,0.3,0.2c0.4,0.2,0.9,0.4,1.3,0.6c2.4,1,4.9,1.7,7.5,2.1c8.8,1.4,18-0.7,25.6-6.4
                    l0.2-0.1c0.3-0.2,0.5-0.4,0.8-0.6c13.8-11.2,16.6-31.1,6.4-45.6c-0.2-0.4-0.5-0.7-0.7-1c-0.5-0.6-0.9-1.2-1.4-1.7
                    c0-0.1-0.1-0.1-0.1-0.2l-0.1-0.1c-0.2-0.1-0.3-0.3-0.5-0.5c0.1,0.1,0.3,0.2,0.5,0.3c0.1,0,0.1,0,0.1,0c0.1,0.1,0.2,0.1,0.3,0.2
                    c0.2,0.1,0.3,0.2,0.5,0.3l0.1,0.1c0.1,0.1,0.2,0.1,0.3,0.2c0.1,0.1,0.3,0.2,0.4,0.3c0.2,0.1,0.4,0.2,0.5,0.3
                    c0.1,0,0.2,0.1,0.3,0.2c0.1,0,0.1,0,0.1,0c0.2,0.1,0.3,0.3,0.5,0.4c0.1,0.1,0.1,0.1,0.2,0.2c0.2,0.1,0.3,0.2,0.4,0.3
                    c0.2,0.1,0.3,0.2,0.4,0.3c0.2,0.1,0.3,0.3,0.5,0.4c0.1,0.1,0.2,0.2,0.3,0.3c0.2,0.2,0.4,0.4,0.6,0.6l0.1,0.1
                    c0.3,0.3,0.6,0.5,0.8,0.8l0.4,0.4l0.5,0.6c0.1,0.1,0.1,0.1,0.2,0.2c0.2,0.1,0.4,0.3,0.5,0.5c0.1,0.2,0.2,0.3,0.3,0.4
                    c0.2,0.3,0.5,0.6,0.7,0.9c0.3,0.4,0.5,0.7,0.7,1C641.4,275.2,638.6,295.1,624.4,306.4z"
                        clip-rule="evenodd" transform="translate(-603.424866,-280.170532)"
                        fill-rule="evenodd" />
                    
                </g>
            </g>
            <g id="moon-orbit">
                <g id="solar-system-container-s-g4">
                    <path id="solar-system-container-s-path13"
                        d="M637.5,317.7c1.2,1.7,2.3,3.4,3.5,5.1" fill="none"
                        stroke-width="7.9392" stroke-linecap="round" stroke-miterlimit="10" />
                    <path id="solar-system-container-s-path14"
                        d="M649.1,336.1c11.4,20.2,19.9,42.2,24.9,65.5" fill="none"
                        stroke-width="7.9392" stroke-linecap="round"
                        stroke-miterlimit="10" stroke-dasharray="62.4968,15.6242" />
                    <path id="solar-system-container-s-path15"
                        d="M675.5,409.3c2.7,15,4,30.5,3.8,46.4C677,585.3,569.9,688.8,440.2,686.5s-233.1-109.4-230.8-239.1s109.4-233.1,239.1-230.9c37.9.7,73.5,10.3,104.9,26.7"
                        fill="none" stroke-width="7.9392"
                        stroke-linecap="round" stroke-miterlimit="10"
                        stroke-dasharray="12.1704,15.6242,62.4968,15.6242" />
                    <path id="solar-system-container-s-path16"
                        d="M560.2,247c1.8,1,3.6,2.1,5.3,3.1" fill="none"
                        stroke-width="7.9392" stroke-linecap="round" stroke-miterlimit="10" />
                </g>
            </g>
        </g>
    </g>
    <g id="center-group_tr"
        transform="translate(444.300003,451.499985) rotate(0)">
        <g id="center-group" transform="translate(-444.300003,-451.499985)">
            <g id="center-orbit">
                <circle id="solar-system-container-s-circle1" r="186.1"
                    transform="translate(444.3 451.5)" fill="none"
                    stroke-width="6.2857" stroke-linecap="round" stroke-miterlimit="10"
                    stroke-dasharray="66.4201,13.284,53.1361,13.284" />
            </g>
            <circle
                id="center-holder"
                r="177.7" transform="translate(444.3 451.5)" />
        </g>
    </g>
</svg>