<svg xmlns="http://www.w3.org/2000/svg" viewBox="0 0 1200 267">
  <path id="earth" class="cls-1"
    d="M260.986,91c17.821,11.5,22.872,24.415,26.085,30.994-1.621-1.7-3.916-3.762-7.2-3.6-1.516.2-2.587,1.276-3.6,1.8-1.9.418-2.744-1.755-5.654-1.672-3,1.086-2.942,4.691-5.4,5.273-1.144-.32-1.2-1.9-2.184-5.659a4.9,4.9,0,0,0-3.341-3.343c-1.092-.411-2.639-0.137-2.7.771a4.172,4.172,0,0,0,1.285,2.958,8.2,8.2,0,0,1,2.056,3.087c0.627,1.156-.031,1.629-0.771,1.929-0.863.349-2.569,0.12-4.112-.129a19.2,19.2,0,0,0-2.441-.257c-0.915,0-2.111.206-2.056,1.029,0.077,1.147,1.025,2.183,1.413,3.729,0.38,0.893.794,2.17-4.24,1.8-10.374-.632-12.017-0.412-16.7,3.858a18.067,18.067,0,0,0-5.011,7.459c-0.924,2.364-.414,5.3-0.643,8.617-0.128,1.5-.72,2.835-0.385,4.5,1.816,4.343,5.188,4.559,9.2,5.37,2.119,0.428,3.37,2,2.1,5.69-0.419,1.219-.8,1.283-1.685,3.359-0.931,2.188-1.657,4.222-2.941,5.386-1.266,1.148-2.331,1.059-2.956,2.83-1.694,4.8.748,7.929-1.67,12.474-2.388,4.49-5.533,5.155-6.939,8.488-1.484,3.519-.289,9.327,2.313,10.289,3.753,1.388,7.863-.527,11.436-1.8,2.586-.921,5.346-1.544,7.2-3.215,1.6-1.444,1.541-2.27,2.956-3.6a8.712,8.712,0,0,1,4.191-1.945,4.838,4.838,0,0,0,2.876-1.27c2.8-3.217,3.944-8.413,7.71-10.674,4.111-2.468,10.31.2,12.464-5.273,1.094-2.779-.865-8.276-0.642-12.089,0.3-5.155.347-11.342,2.184-13.375,0.3-.043,1.1-0.793,1.8.257,2.457,4.737-.65,12.565.771,17.1,1.14,3.639,2.9,4.638,5.783,5.53,0.942,0.086,1.627.3,2.57,0.386-7.436,15.711-27.978,34.043-56.283,34.98A65.753,65.753,0,0,1,170.78,183.6c-0.248-.371.9-1.483,1.413-2.958,0.483-1.382,1.817-1.246,2.442-1.286,1.015-.065,2.49-1.3,3.341-2.315,0.838-1,1.094-2.891,2.313-3.473,1.56-.744,3.008.1,4.5-1.543A34.52,34.52,0,0,0,188,167.265c1.948-1.077,5.252.187,7.2-1.415,2.221-1.831,8.547-9.271,7.71-13.5-0.25-1.262-2.341-3.307-3.6-4.116a15.4,15.4,0,0,1-5.526-7.33c-0.91-2.676,1.017-3.991.257-6.431-0.686-2.2-2.564-2.514-3.855-3.729-2.158-2.033-3.65-3.239-5.911-5.273-0.91-.819-2.055-2.159-4.24-2.186-3.986-.051-6.554,6.211-7.967,8.23a21.068,21.068,0,0,0-1.928,3.859c-0.556,1.32.349,3.3,0,4.887-0.539,2.455-.381,5.5.257,6.687,1.152,2.135,2.1,3.432,2.7,6.045,0.64,2.782-1.927,4.9-2.57,7.33-0.637,2.4-.556,6.091-2.313,8.359a5.777,5.777,0,0,1-3.984,2.573c-7.124-18.214-3.894-35.587-1.927-42.312a68.994,68.994,0,0,1,14.52-26.364c0.994,0.6,2.294,4.31,2.313,6.43,0.015,1.634-1.935,5.542-2.158,5.81-1.227,1.473-2.77,6.434-.026,5.25a8.877,8.877,0,0,0,1.927-1.286c0.906-1.055,1.035-2.782,2.056-3.472,0.944-.637,2.2-0.351,3.213-1.8,1.291-1.848.262-3.488,2.441-3.73,1.855,0.1,3.26,2.234,4.112,3.987,1.369,2.817,2.489,5.292,4.5,6.3,0.668,0.2,1.489.43,1.413-.643a24.188,24.188,0,0,0-4.626-9.645,12.712,12.712,0,0,0-3.6-2.572c-0.991-.529-3.583-1.329-4.24-1.929-0.769-1.6.75-3.662,5.525-5.273a6.326,6.326,0,0,1,6.554,1.672c1.606,1.593.584,3.535,0.642,4.115,0.119,1.191.365,1.811,1.028,1.929,4.517-.175,11.739-3.438,17.99-2.7a32.163,32.163,0,0,1,4.5,1.414c0.858,0.331,6.308,1.2,8.738.515,3.018-.856,4.322-9.418,6.682-12.218,0.291,0.067.631-1.142,1.123-.318,2.068,3.464-.093,6.235.291,8.163,0.317,1.594,1.308.993,2.663,1.64,0.214,0.1,3,.144,4.019.675,2.008,1.05,4.326,2.408,8.737.772a1.316,1.316,0,0,0,.257-2.444c-2.285-2.175-5.424-5.173-6.938-6.044-0.79-.454-1.966-2.154-5.4-4.244-2.612-1.591-5.66-1.933-8.1-2.315-4.369-.7-6.678.036-10.922-1.672-2.388-.961-2.81-3.282-4.369-4.758-1.406-1.332-3.249-1.445-4.369-1.929C223.526,79.816,243.479,79.7,260.986,91Zm30.968,59.03c-6.1.543-19.344-5.07-17.99-9.774,0.64-.862,2.458-2.186,4.112-1.415,4.891,2.278,7.463,9.319,13.878,6.945v4.244Zm-2.441,15.3a25.14,25.14,0,0,1-9.252-3.344C280.793,158.94,291.063,160.464,289.513,165.336Z" />
  <path id="arrow1" class="cls-1"
    d="M134.258,92.775L37.773,147.892l90.757,54.235,63.442,8.378-88.554-62.613,96.925-65.258Z" />
  <path id="arrow2" class="cls-1"
    d="M321.5,200.364l96.484-55.117L327.226,91.012l-63.441-8.378,88.554,62.613-96.925,65.258Z" />
  <path id="We_Believe_In_Vision" data-name="We Believe In Vision" class="cls-1"
    d="M537.521,223.386l12.408-36.256h-1.634l12.347,36.256H567l14.163-42.37h-5.75l-13.195,39.1h3.026l-13.195-39.1h-5.568l-13.5,39.1h3.148l-13.014-39.1h-6.234l14.163,42.37h6.477Zm69.274-.969a14.05,14.05,0,0,0,5.417-3.874L609,214.791a11.33,11.33,0,0,1-4.086,2.905,13.354,13.354,0,0,1-5.175.968,12.99,12.99,0,0,1-6.113-1.392,10.175,10.175,0,0,1-4.146-3.9,11.029,11.029,0,0,1-1.483-5.72V206.68a11.527,11.527,0,0,1,1.332-5.6,9.59,9.59,0,0,1,3.692-3.813,11.394,11.394,0,0,1,10.8,0,9.719,9.719,0,0,1,3.662,3.783,10.8,10.8,0,0,1,1.271,5.508l2.36-1.453H586.851v4.177h27.3q0.06-.423.091-0.908c0.019-.323.03-0.606,0.03-0.848a17.874,17.874,0,0,0-2.028-8.685,14.567,14.567,0,0,0-5.6-5.781A16.2,16.2,0,0,0,598.412,191a16.379,16.379,0,0,0-8.262,2.088,15.078,15.078,0,0,0-5.75,5.781,16.908,16.908,0,0,0-2.089,8.474,16.53,16.53,0,0,0,2.149,8.474,15.26,15.26,0,0,0,6.053,5.81A20.347,20.347,0,0,0,606.795,222.417Zm52.871,0.969q8.049,0,12.135-3a9.859,9.859,0,0,0,4.086-8.443,10.733,10.733,0,0,0-1.634-6.083,10.371,10.371,0,0,0-4.419-3.723,15.307,15.307,0,0,0-6.416-1.271l-1.089,1.816a12.664,12.664,0,0,0,5.629-1.271,10.2,10.2,0,0,0,4.146-3.632,10.391,10.391,0,0,0,1.544-5.81,9.468,9.468,0,0,0-3.935-8.02q-3.934-2.935-11.258-2.936H639.449v42.37h20.217ZM645.5,185.919H657.91a12.815,12.815,0,0,1,7.143,1.695,6.355,6.355,0,0,1,0,10.168,12.8,12.8,0,0,1-7.143,1.695H644.957v4.9h14.467q5.022,0,7.687,1.695a5.916,5.916,0,0,1,2.663,5.387,5.854,5.854,0,0,1-2.663,5.326q-2.666,1.695-7.687,1.695H645.5V185.919Zm60.437,36.5a14.042,14.042,0,0,0,5.417-3.874l-3.208-3.752a11.327,11.327,0,0,1-4.085,2.905,13.358,13.358,0,0,1-5.175.968,12.992,12.992,0,0,1-6.114-1.392,10.175,10.175,0,0,1-4.146-3.9,11.029,11.029,0,0,1-1.483-5.72V206.68a11.538,11.538,0,0,1,1.332-5.6,9.59,9.59,0,0,1,3.692-3.813,11.394,11.394,0,0,1,10.8,0,9.719,9.719,0,0,1,3.662,3.783,10.8,10.8,0,0,1,1.271,5.508l2.361-1.453H686v4.177h27.3q0.06-.423.091-0.908t0.03-.848a17.874,17.874,0,0,0-2.028-8.685,14.571,14.571,0,0,0-5.6-5.781A16.2,16.2,0,0,0,697.556,191a16.379,16.379,0,0,0-8.262,2.088,15.078,15.078,0,0,0-5.75,5.781,16.918,16.918,0,0,0-2.088,8.474,16.539,16.539,0,0,0,2.148,8.474,15.26,15.26,0,0,0,6.053,5.81A20.347,20.347,0,0,0,705.939,222.417Zm21.336,0.969V178.474h-5.811v44.912h5.811Zm16.887,0v-32.08h-5.81v32.08h5.81Zm-0.06-39.374a3.8,3.8,0,0,0,1.089-2.754,3.477,3.477,0,0,0-1.12-2.633,3.94,3.94,0,0,0-2.814-1.059,3.872,3.872,0,0,0-2.815,1.09,3.64,3.64,0,0,0-1.119,2.723,3.572,3.572,0,0,0,1.119,2.664,3.876,3.876,0,0,0,2.815,1.089A3.792,3.792,0,0,0,744.1,184.012Zm32.654,38.405a14.046,14.046,0,0,0,5.418-3.874l-3.208-3.752a11.33,11.33,0,0,1-4.086,2.905,13.358,13.358,0,0,1-5.175.968,12.99,12.99,0,0,1-6.113-1.392,10.177,10.177,0,0,1-4.147-3.9,11.028,11.028,0,0,1-1.482-5.72V206.68a11.538,11.538,0,0,1,1.331-5.6,9.6,9.6,0,0,1,3.692-3.813,11.394,11.394,0,0,1,10.8,0,9.719,9.719,0,0,1,3.662,3.783,10.787,10.787,0,0,1,1.271,5.508l2.361-1.453H756.813v4.177h27.3q0.06-.423.091-0.908c0.02-.323.031-0.606,0.031-0.848a17.885,17.885,0,0,0-2.028-8.685,14.58,14.58,0,0,0-5.6-5.781A16.2,16.2,0,0,0,768.373,191a16.379,16.379,0,0,0-8.262,2.088,15.078,15.078,0,0,0-5.75,5.781,16.918,16.918,0,0,0-2.088,8.474,16.53,16.53,0,0,0,2.149,8.474,15.264,15.264,0,0,0,6.052,5.81A20.347,20.347,0,0,0,776.756,222.417Zm29.265,0.969,14.043-32.08h-5.69l-12.711,29.053h2.906L792.1,191.306h-6.053l14.043,32.08h5.931Zm40.1-.969a14.042,14.042,0,0,0,5.417-3.874l-3.208-3.752a11.327,11.327,0,0,1-4.085,2.905,13.358,13.358,0,0,1-5.175.968,13,13,0,0,1-6.114-1.392,10.175,10.175,0,0,1-4.146-3.9,11.029,11.029,0,0,1-1.483-5.72V206.68a11.538,11.538,0,0,1,1.332-5.6,9.59,9.59,0,0,1,3.692-3.813,11.394,11.394,0,0,1,10.8,0,9.719,9.719,0,0,1,3.662,3.783,10.8,10.8,0,0,1,1.271,5.508l2.361-1.453H826.177v4.177h27.3q0.06-.423.091-0.908t0.03-.848a17.885,17.885,0,0,0-2.027-8.685,14.58,14.58,0,0,0-5.6-5.781A16.2,16.2,0,0,0,837.738,191a16.379,16.379,0,0,0-8.262,2.088,15.078,15.078,0,0,0-5.75,5.781,16.918,16.918,0,0,0-2.088,8.474,16.539,16.539,0,0,0,2.148,8.474,15.26,15.26,0,0,0,6.053,5.81A20.347,20.347,0,0,0,846.121,222.417Zm38.707,0.969v-42.37h-6.052v42.37h6.052ZM906.2,192.759a11.146,11.146,0,0,0-4.843,4.9l0.908,2.3v-8.655h-5.568v32.08H902.5V206.862a12.529,12.529,0,0,1,1.24-5.872,8.3,8.3,0,0,1,3.541-3.571,11.406,11.406,0,0,1,5.387-1.21,8.445,8.445,0,0,1,6.386,2.36q2.27,2.361,2.27,7.021v17.8h5.81V204.925a16.091,16.091,0,0,0-1.695-7.808,10.869,10.869,0,0,0-4.69-4.6A15.188,15.188,0,0,0,913.821,191,15.882,15.882,0,0,0,906.2,192.759Zm67.064,30.627,18.582-42.37h-6.052l-17.251,39.1h3.753l-17.129-39.1h-6.537l18.642,42.37h5.992Zm28.991,0v-32.08h-5.809v32.08h5.809Zm-0.06-39.374a3.781,3.781,0,0,0,1.09-2.754,3.466,3.466,0,0,0-1.12-2.633,3.936,3.936,0,0,0-2.813-1.059,3.871,3.871,0,0,0-2.815,1.09,3.64,3.64,0,0,0-1.119,2.723,3.572,3.572,0,0,0,1.119,2.664,3.874,3.874,0,0,0,2.815,1.089A3.772,3.772,0,0,0,1002.19,184.012Zm27.72,38.556a10.932,10.932,0,0,0,4.78-3.3,7.8,7.8,0,0,0,1.7-5.024,7.555,7.555,0,0,0-1.12-4.358,7.724,7.724,0,0,0-2.91-2.542,17.7,17.7,0,0,0-3.96-1.423c-1.45-.342-2.91-0.625-4.36-0.847a35.713,35.713,0,0,1-3.96-.817,8.163,8.163,0,0,1-2.91-1.362,3.021,3.021,0,0,1-1.12-2.512,3.7,3.7,0,0,1,1.88-3.178,10.457,10.457,0,0,1,5.69-1.24,20.933,20.933,0,0,1,4.72.544,13.708,13.708,0,0,1,4.54,2l2.48-4.6a15.869,15.869,0,0,0-5.3-2.149,27.907,27.907,0,0,0-6.38-.757,19.311,19.311,0,0,0-7.11,1.181,10.334,10.334,0,0,0-4.63,3.359,8.241,8.241,0,0,0-1.64,5.084,8.073,8.073,0,0,0,1.09,4.449,7.591,7.591,0,0,0,2.91,2.6,17.278,17.278,0,0,0,3.99,1.452c1.45,0.344,2.91.626,4.36,0.848s2.77,0.474,3.96.756a7.5,7.5,0,0,1,2.88,1.271,2.815,2.815,0,0,1,1.09,2.361,3.621,3.621,0,0,1-1.79,3.208c-1.19.767-3.13,1.15-5.84,1.15a21.365,21.365,0,0,1-11.26-3.329l-2.42,4.6a17.8,17.8,0,0,0,5.66,2.663,26.108,26.108,0,0,0,7.6,1.09A20.649,20.649,0,0,0,1029.91,222.568Zm19.55,0.818v-32.08h-5.81v32.08h5.81Zm-0.06-39.374a3.781,3.781,0,0,0,1.09-2.754,3.466,3.466,0,0,0-1.12-2.633,4.225,4.225,0,0,0-5.63.031,3.667,3.667,0,0,0-1.12,2.723,3.6,3.6,0,0,0,1.12,2.664,3.892,3.892,0,0,0,2.82,1.089A3.769,3.769,0,0,0,1049.4,184.012Zm33.44,37.618a15.5,15.5,0,0,0,5.94-5.81,17.775,17.775,0,0,0,0-16.948,15.3,15.3,0,0,0-5.94-5.781,17.4,17.4,0,0,0-8.56-2.088,17.154,17.154,0,0,0-8.59,2.119,15.862,15.862,0,0,0-5.94,5.78,16.226,16.226,0,0,0-2.18,8.444,16.424,16.424,0,0,0,2.18,8.443,15.651,15.651,0,0,0,5.97,5.841A18.349,18.349,0,0,0,1082.84,221.63Zm-14.07-4.358a10.338,10.338,0,0,1-3.87-3.964,11.9,11.9,0,0,1-1.45-5.962,11.691,11.691,0,0,1,1.45-5.962,10.464,10.464,0,0,1,3.87-3.9,10.868,10.868,0,0,1,5.51-1.392,11.033,11.033,0,0,1,5.54,1.392,9.97,9.97,0,0,1,3.84,3.9,12.094,12.094,0,0,1,1.39,5.962,12.31,12.31,0,0,1-1.39,5.962,9.862,9.862,0,0,1-3.84,3.964,11.022,11.022,0,0,1-5.54,1.392A10.857,10.857,0,0,1,1068.77,217.272Zm39.71-24.513a11.088,11.088,0,0,0-4.84,4.9l0.9,2.3v-8.655h-5.56v32.08h5.81V206.862a12.492,12.492,0,0,1,1.24-5.872,8.224,8.224,0,0,1,3.54-3.571,11.391,11.391,0,0,1,5.38-1.21,8.441,8.441,0,0,1,6.39,2.36q2.265,2.361,2.27,7.021v17.8h5.81V204.925a16.093,16.093,0,0,0-1.69-7.808,10.875,10.875,0,0,0-4.7-4.6A15.14,15.14,0,0,0,1116.1,191,15.874,15.874,0,0,0,1108.48,192.759Z" />
  <path id="VISIONAllies" class="cls-1"
    d="M556.448,51.833L522.6,138.3l-33.038-86.47h-4.351l34.67,90.548h5.438l35.621-90.548h-4.487Zm21.069,90.141h4.215V51.833h-4.215v90.141Zm56.285,1.767c14.819,0,30.455-7.206,30.455-23.929,0-14.683-8.7-21.209-22.434-24.744L625.1,90.853c-12.373-3.535-18.627-9.653-18.627-19.986,0-11.013,9.517-16.995,26.24-16.995,13.732,0,21.482,4.758,28.687,15.907l2.72-2.855c-8.566-13.46-18.763-16.859-31.271-16.859-16.179,0-30.59,5.574-30.59,20.8,0,11.692,6.662,19.442,21.617,23.793l16.451,4.351c13.732,3.807,19.714,9.517,19.714,20.8,0,12.644-11.964,20.258-26.24,20.258-16.859,0-24.88-6.254-31.678-17.946l-2.991,3.127C607.834,139.662,617.9,143.741,633.8,143.741Zm49.62-1.767h4.215V51.833h-4.215v90.141Zm62.4,1.767c20.258,0,37.661-8.565,37.661-37.117V86.91c0-28.143-17.4-36.845-37.661-36.845-19.85,0-36.981,8.7-36.981,36.845v19.714C708.844,135.176,725.975,143.741,745.825,143.741Zm0-3.807c-21.073,0-32.766-10.876-32.766-33.31V86.91c0-22.161,11.693-33.038,32.766-33.038,21.346,0,33.31,10.877,33.31,33.038v19.714C779.135,129.058,767.171,139.934,745.825,139.934Zm117.463-88.1V134.5l-54.52-82.663H804.69v90.141h4.078l-0.136-82.8,54.52,82.8h4.214V51.833h-4.078Zm87.959,90.141H955.6L922.56,51.017h-5.574l-33.174,90.957h4.351l8.293-22.841h46.5Zm-53.431-26.512L919.705,55.1l21.889,60.366H897.816Zm73.141,26.512h4.078V41.772h-4.078v100.2Zm27.054,0h4.079V41.772h-4.079v100.2Zm29.229-82.119a3.537,3.537,0,0,0,3.81-3.671,3.468,3.468,0,0,0-3.81-3.671,3.361,3.361,0,0,0-3.67,3.671A3.426,3.426,0,0,0,1027.24,59.855Zm-1.9,82.119h4.08V79.161h-4.08v62.813Zm78.31-29.911v-7.75c0-20.394-12.65-26.92-27.06-26.92s-27.87,6.662-27.87,26.92v12.236c0,20.53,13.05,27.192,27.87,27.192,11.56,0,21.21-3.4,26.24-11.149l-2.85-2.311c-5.17,7.342-13.87,9.925-23.25,9.925-11.83,0-23.93-5.166-23.93-23.929v-4.214h50.85Zm-27.06-31.135c10.74,0,22.98,5.166,22.98,23.385v4.759H1052.8v-4.759C1052.8,86.095,1065.44,80.928,1076.59,80.928Zm64.85,62.813c13.73,0,25.7-4.487,25.7-17.4,0-9.517-5.04-14.411-16.18-16.859l-16.86-3.67c-7.75-1.768-13.19-5.031-13.19-12.509,0-8.837,10.6-12.508,20.12-12.508,10.06,0,19.04,3.807,24.2,12.236l2.45-2.719c-5.3-8.7-14.55-12.916-26.78-12.916-12.78,0-23.93,5.166-23.93,16.043,0,8.7,5.71,13.46,16.04,15.772l16.86,3.67c8.84,2.04,13.32,5.983,13.32,13.6,0,10.605-11.42,13.868-21.75,13.868a29.963,29.963,0,0,1-24.88-12.236l-2.45,2.583C1120.64,139.39,1129.61,143.741,1141.44,143.741Z" />
  <path id="Line_1" data-name="Line 1" class="cls-1" d="M447.767,40.417h3V233.386h-3V40.417Z" />
</svg>