<svg id="vision" xmlns="http://www.w3.org/2000/svg" xmlns:xlink="http://www.w3.org/1999/xlink" viewBox="0 0 20 20" shape-rendering="geometricPrecision" text-rendering="geometricPrecision">
<g id="vision-u-circle1_ts" transform="translate(10,10) scale(0,0)"><path id="vision-u-circle1" d="M10,12c1.1045,0,2-.8954,2-2s-.8955-2-2-2-2,.89539-2,2s.89551,2,2,2Z" transform="translate(-10,-10)"/></g><g id="vision-u-circle2_ts" transform="translate(10,10) scale(0,0)"><path id="vision-u-circle2" d="M10,16c3.3137,0,6-2.6863,6-6s-2.6863-6-6-6-6,2.68628-6,6s2.68628,6,6,6Zm0-2c2.2092,0,4-1.7909,4-4s-1.7908-4-4-4-4,1.79089-4,4s1.79077,4,4,4Z" transform="translate(-10,-10)" clip-rule="evenodd" fill-rule="evenodd"/></g><g id="vision-s-g1"><g id="vision-u-circle3_ts" transform="translate(10,10) scale(0,0)"><path id="vision-u-circle3" d="M20,10c0,5.5228-4.4771,10-10,10s-10-4.4772-10-10s4.47705-10,10-10s10,4.47717,10,10Zm-2,0c0,4.4183-3.5818,8-8,8s-8-3.5817-8-8s3.58179-8,8-8s8,3.58167,8,8Z" transform="translate(-10,-10)" clip-rule="evenodd" fill-rule="evenodd"/></g></g></svg>
