<svg id="website-development" xmlns="http://www.w3.org/2000/svg" xmlns:xlink="http://www.w3.org/1999/xlink" viewBox="0 0 67 67" shape-rendering="geometricPrecision" text-rendering="geometricPrecision">
<g id="website-development-s-g1"><g id="website-development-s-g2" transform="translate(0 0.000001)"><g id="website-development-u-s2-e11_tr" transform="translate(51.06543,37.405578) rotate(0)"><g id="website-development-u-s2-e11_ts" transform="scale(0,0)"><path id="website-development-u-s2-e11" d="M43.481934,41.19878l-2.042481,2.058594.269531.268555.098145.235839h.138183l3.274415,3.266602l2.154785-2.163086c.325683.154297.665039.288574,1.015136.401856v3.077659h5.334961v-3.076195c.353028-.113281.695313-.248046,1.023926-.403808l2.163086,2.163086l3.770508-3.770508-2.041504-2.058594c.197266-.364258.368164-.739258.510738-1.121582h2.857426v-5.342773h-2.633789c-.130371-.47461-.29834-.929688-.502441-1.360352l1.810058-1.81006-3.770019-3.789551-1.706055,1.706543c-.477051-.259766-.973145-.474121-1.481934-.640625v-2.374024h-5.334961v2.375c-.514648.168457-1.005859.381836-1.467773.637207L45.218262,27.77495l-3.778809,3.788574L43.25,33.374073c-.202637.426758-.37207.882324-.507324,1.360352h-2.620606v5.342773h2.849121c.142579.382324.313477.757324.510743,1.121582ZM41.12207,35.734425h2.402344l.091309-.384278c.158203-.666015.388672-1.284668.684082-1.838867l.174804-.32666-1.62207-1.622072l2.366699-2.372559l1.54834,1.54834.336914-.208008c.583985-.361816,1.230469-.643555,1.92041-.837402l.364746-.102539v-2.124024h3.334961v2.125l.366211.102051c.673828.1875,1.32666.469727,1.94043.839844l.335449.202148l1.543945-1.544922l2.359864,2.371582-1.622559,1.622561.174805.32666c.298828.560547.525879,1.177734.674316,1.833519l.088379.389626h2.42334v3.342773h-2.575684l-.112304.345703c-.178711.550781-.424805,1.089844-.731446,1.601563l-.199707.333007l1.881348,1.896973-2.359375,2.359375-1.973144-1.973144-.326661.173828c-.471679.251465-.982421.452636-1.518554.598144l-.368653.100098v2.832054c0,0-2.627508.707452-3.33496,0-.600459-.600459,0-2.830589,0-2.830589l-.367188-.101075c-.533203-.146972-1.041992-.348144-1.512207-.598632l-.327637-.174317-1.964843,1.973145-2.365723-2.359375l1.880859-1.896485-.199707-.333007c-.30664-.511719-.552734-1.050782-.731445-1.601563l-.112305-.345703h-2.567383v-3.342773Z" transform="translate(-51.06543,-37.405578)"/></g></g><g id="website-development-u-s2-e10_ts" transform="translate(51.065186,37.405811) scale(0,0)"><path id="website-development-u-s2-e10" d="M51.069336,42.707569c2.918945,0,5.293457-2.381836,5.293457-5.310058c0-2.918946-2.374512-5.293457-5.293457-5.293457-2.92334,0-5.301758,2.374511-5.301758,5.293457c0,2.928222,2.378418,5.310058,5.301758,5.310058Zm0-9.603515c2.367187,0,4.293457,1.926269,4.293457,4.293456c0,2.376465-1.92627,4.310059-4.293457,4.310059-2.37207,0-4.301758-1.933594-4.301758-4.310059c0-2.367187,1.929688-4.293456,4.301758-4.293456Z" transform="translate(-51.065186,-37.405811)"/></g><g id="website-development-u-s2-e9_ts" transform="translate(27.301762,58.610401) scale(1,0)"><path id="website-development-u-s2-e9" d="M13.801758,59.110401c12.941345.002625,26.948791,0,26.820312,0c.276368,0,.5-.223633.5-.5s-.223632-.5-.5-.5h-2.815918v-11.374512c0-.276367-.223632-.5-.5-.5h-3.794922c-.276367,0-.5.223633-.5.5v11.374512h-3.311523v-6.001465c0-.276367-.223633-.5-.5-.5h-3.79541c-.276367,0-.5.223633-.5.5v6.001465h-3.311524v-8.695312c0-.276368-.223632-.5-.5-.5h-3.794921c-.276368,0-.5.223632-.5.5v8.695312h-2.496094v-18.958984c0-.276367-.223633-.5-.5-.5s-.5.223633-.5.5v19.458984c0,.276367.223633.5.5.5ZM34.011231,47.235889h2.794921v10.874512h-2.794921v-10.874512Zm-8.106934,5.373047h2.79541v5.501465h-2.79541v-5.501465Zm-8.106445-2.693847h2.794922v8.195312h-2.794922v-8.195312Z" transform="translate(-27.301762,-58.6104)"/></g><g id="website-development-u-s2-e8_ts" transform="translate(37.464356,19.662156) scale(0,1)"><path id="website-development-u-s2-e8" d="M61.094238,19.518602h-23.408203c-.276367,0-.5.223633-.5.5s.223633.5.5.5h23.408203c.276368,0,.5-.223632.5-.5s-.223632-.5-.5-.5Z" transform="translate(-37.464348,-19.662156)"/></g><g id="website-development-u-s2-e7_ts" transform="translate(13.301758,26.966356) scale(0,1)"><path id="website-development-u-s2-e7" d="M13.802246,27.466356h11.247559c.276367,0,.5-.223632.5-.5s-.223633-.5-.5-.5h-11.247559c-.276367,0-.5.223633-.5.5s.223633.5.5.5Z" transform="translate(-13.301757,-26.966356)"/></g><g id="website-development-u-s2-e6_ts" transform="translate(13.301758,29.898974) scale(0,1)"><path id="website-development-u-s2-e6" d="M13.802246,30.398974h11.247559c.276367,0,.5-.223633.5-.5s-.223633-.5-.5-.5h-11.247559c-.276367,0-.5.223632-.5.5s.223633.5.5.5Z" transform="translate(-13.301755,-29.898974)"/></g><g id="website-development-u-s2-e5_ts" transform="translate(13.301758,32.831593) scale(0,1)"><path id="website-development-u-s2-e5" d="M13.802246,33.331593h6.28711c.276367,0,.5-.223633.5-.5s-.223633-.5-.5-.5h-6.28711c-.276367,0-.5.223632-.5.5s.223633.5.5.5Z" transform="translate(-13.301757,-32.831593)"/></g><g id="website-development-u-s2-e4_ts" transform="translate(56.227295,58.610401) scale(0,1)"><path id="website-development-u-s2-e4" d="M61.851074,58.110401h-11.247558c-.276368,0-.5.223633-.5.5s.223632.5.5.5h11.247558c.276367,0,.5-.223633.5-.5s-.223633-.5-.5-.5Z" transform="translate(-56.227295,-58.610401)"/></g><g id="website-development-u-s2-e3_ts" transform="translate(56.385424,56.151905) scale(0,1)"><path id="website-development-u-s2-e3" d="M61.851074,55.651905h-11.247558c-.276368,0-.5.223633-.5.5s.223632.5.5.5h11.247558c.276367,0,.5-.223633.5-.5s-.223633-.5-.5-.5Z" transform="translate(-56.227295,-56.151905)"/></g><g id="website-development-u-s2-e2_ts" transform="translate(58.70752,53.693409) scale(0,1)"><path id="website-development-u-s2-e2" d="M55.563965,53.193409c-.276367,0-.5.223633-.5.5s.223633.5.5.5h6.287109c.276367,0,.5-.22361.5-.5s-.223633-.5-.5-.5h-6.287109Z" transform="translate(-58.70752,-53.693409)"/></g><g id="website-development-u-s2-e1_ts" transform="translate(18.41797,44.1209) scale(0,1)"><path id="website-development-u-s2-e1" d="M21.250977,43.392628c0-1.129883-.925293-2.048828-2.062989-2.048828-1.129882,0-2.048828.918945-2.048828,2.048828s.918946,2.049316,2.048828,2.049316c.679688,0,1.278565-.332275,1.654602-.837402l4.376404,2.099975c-.037475.154725-.062744.314026-.062744.480103c0,1.129883.918945,2.048828,2.048828,2.048828c1.137696,0,2.062989-.918945,2.062989-2.048828c0-.30011-.06897-.583191-.186158-.840271l5.025025-3.712219c.354004.291504.801025.473877,1.294433.473877c1.137696,0,2.062989-.918946,2.062989-2.048828s-.925293-2.048828-2.062989-2.048828c-1.129882,0-2.048828.918945-2.048828,2.048828c0,.274414.056152.535461.154419.774841l-5.053039,3.73291c-.347779-.265137-.777466-.429138-1.248841-.429138-.604065,0-1.142212.267578-1.517456.684692l-4.465637-2.142883c.013367-.093994.028992-.187378.028992-.284973Zm-2.062989,1.049316c-.578125,0-1.048828-.470703-1.048828-1.049316c0-.578125.470703-1.048828,1.048828-1.048828.585938,0,1.062989.470703,1.062989,1.048828c0,.578613-.477051,1.049316-1.062989,1.049316ZM35.401367,40.00835c.585938,0,1.062989.470704,1.062989,1.048829s-.477051,1.048828-1.062989,1.048828c-.578125,0-1.048828-.470703-1.048828-1.048828s.470703-1.048829,1.048828-1.048829Zm-8.196289,6.127442c.585938,0,1.062988.470703,1.062988,1.048828s-.47705,1.048828-1.062988,1.048828c-.578125,0-1.048828-.470703-1.048828-1.048828s.470703-1.048828,1.048828-1.048828Z" transform="translate(-18.417966,-44.1209)"/></g><g id="website-development-u-s2-c3_ts" transform="translate(15.232178,20.018358) scale(0,0)"><path id="website-development-u-s2-c3" d="M16.259277,18.491259h-2.054199c-.276367,0-.5.223632-.5.5v2.054199c0,.276367.223633.5.5.5h2.054199c.276368,0,.5-.223633.5-.5v-2.054199c0-.276368-.223632-.5-.5-.5Zm-.5,2.054199h-1.054199v-1.054199h1.054199v1.054199Z" transform="translate(-15.232178,-20.018358)"/></g><g id="website-development-u-s2-c2_ts" transform="translate(19.945313,20.018358) scale(0,0)"><path id="website-development-u-s2-c2" d="M20.972656,18.491259h-2.054687c-.276367,0-.5.223632-.5.5v2.054199c0,.276367.223633.5.5.5h2.054687c.276368,0,.5-.223633.5-.5v-2.054199c0-.276368-.223633-.5-.5-.5Zm-.5,2.054199h-1.054687v-1.054199h1.054687v1.054199Z" transform="translate(-19.945312,-20.018358)"/></g><g id="website-development-u-s2-c1_ts" transform="translate(24.658447,20.018358) scale(0,0)"><path id="website-development-u-s2-c1" d="M25.685547,18.491259h-2.054199c-.276367,0-.5.223632-.5.5v2.054199c0,.276367.223633.5.5.5h2.054199c.276367,0,.5-.223633.5-.5v-2.054199c0-.276368-.223633-.5-.5-.5Zm-.5,2.054199h-1.054199v-1.054199h1.054199v1.054199Z" transform="translate(-24.658447,-20.018358)"/></g></g><g id="website-development-s-g3" transform="translate(.000001 0)"><g id="website-development-u-s1-e3_ts" transform="translate(4.999023,14.296924) scale(0,1)"><path id="website-development-u-s1-e3" d="M17.24707,14.296924c0-.276368-.223632-.5-.5-.5h-11.248047c-.276367,0-.5.223632-.5.5s.223633.5.5.5h11.248047c.276368,0,.5-.223633.5-.5Z" transform="translate(-4.999023,-14.296924)"/></g><g id="website-development-u-s1-e2_ts" transform="translate(4.999023,17.22954) scale(0,1)"><path id="website-development-u-s1-e2" d="M8.788574,16.72954h-3.289551c-.276367,0-.5.223633-.5.5s.223633.5.5.5h3.289551c.276367,0,.5-.223633.5-.5s-.223633-.5-.5-.5Z" transform="translate(-4.999023,-17.22954)"/></g><g id="website-development-u-s1-e1_ts" transform="translate(4.999023,20.018603) scale(0,1)"><path id="website-development-u-s1-e1" d="M7.337891,19.662157h-1.838868c-.276367,0-.5.223633-.5.5s.223633.5.5.5h1.838868c.276367,0,.5-.223633.5-.5s-.223633-.5-.5-.5Z" transform="translate(-4.999023,-20.018603)"/></g><g id="website-development-u-s1-tap_ts" transform="translate(32.050464,7.348681) scale(0,1)"><path id="website-development-u-s1-tap" d="M51.09082,6.848681h-17.609863c-.276367,0-.5.223633-.5.5s.223633.5.5.5h17.609863c.276368,0,.5-.223633.5-.5s-.223632-.5-.5-.5Z" transform="translate(-32.980957,-7.348681)"/></g></g><g id="website-development-s-path1_ts" transform="translate(33.5,33.500048) scale(0,0)"><path id="website-development-s-path1" d="M62.499023,16.572313h-4.800293c-.000061-.098144-.006042-8.666443-.006347-9.179687c0-1.926758-1.567383-3.494629-3.494141-3.494629h-49.702636c-1.926758,0-3.494629,1.567871-3.494629,3.494629.006408,32.388428.007568,38.40802.007751,39.325134c0,.01886,0,.035828,0,.050598c0,.015259.000061.036133.000061.059815c0-.001892,0-.00409,0-.006104c0,.003174,0,.007569,0,.010315.000061.027832,0,.036377,0,.033203c0,.022522,0,.047852,0,.076844c0,1.924316,1.565918,3.489746,3.490235,3.489746h4.80957v9.180175c0,1.924317,1.570312,3.489747,3.5,3.489747h49.290039c2.150879,0,3.90039-1.749512,3.90039-3.899903c0-11.720947,0-21.277405,0-39.139648c0-1.924317-1.570312-3.490235-3.5-3.490235ZM2.000977,7.392626c0-1.375488,1.11914-2.494629,2.494629-2.494629h49.702636c1.375489,0,2.494141,1.119141,2.494141,2.494629v2.406251h-54.691406v-2.406251ZM9.308594,49.432179h-4.809571c-1.373047,0-2.490234-1.1167-2.490234-2.489747v-36.140137h54.689941v5.770018h-43.899902c-1.924316,0-3.490234,1.565918-3.490234,3.490235c0,4.741211,0,17.827516,0,29.369631Zm55.690429,9.770019c0,1.599121-1.301269,2.899902-2.90039,2.899902h-49.290039c-1.378418,0-2.5-1.116699-2.5-2.489746c0-8.51123,0-27.54956,0-36.140136h54.69043v35.72998Zm0-36.729982h-54.690429v-2.409668c0-1.373047,1.117187-2.490235,2.490234-2.490235c9.874817,0,39.531128,0,49.700196,0c1.378418,0,2.499999,1.117188,2.499999,2.490235v2.409668Z" transform="translate(-33.5,-33.500048)"/></g></g></svg>
